<?xml version="1.0" encoding="UTF-8"?>
<!DOCTYPE svg PUBLIC "-//W3C//DTD SVG 1.1//EN" "http://www.w3.org/Graphics/SVG/1.1/DTD/svg11.dtd">
<svg xmlns="http://www.w3.org/2000/svg" version="1.1" width="1000px" height="800px" style="shape-rendering:geometricPrecision; text-rendering:geometricPrecision; image-rendering:optimizeQuality; fill-rule:evenodd; clip-rule:evenodd" xmlns:xlink="http://www.w3.org/1999/xlink">
<g><path style="opacity:1" fill="#6a89a7" d="M 433.5,387.5 C 425.702,387.646 418.036,388.646 410.5,390.5C 408.343,392.792 406.176,395.125 404,397.5C 403.517,398.448 403.351,399.448 403.5,400.5C 401.53,404.439 399.53,408.439 397.5,412.5C 393.167,413.833 388.833,413.833 384.5,412.5C 379.47,403.104 374.97,393.438 371,383.5C 366.81,382.732 362.644,381.732 358.5,380.5C 358.167,380.833 357.833,381.167 357.5,381.5C 364.244,384.183 369.244,388.683 372.5,395C 371.663,396.011 371.33,397.178 371.5,398.5C 370.255,396.358 368.755,394.358 367,392.5C 361.777,393.676 360.277,396.676 362.5,401.5C 360.236,400.781 357.903,400.448 355.5,400.5C 354.89,399.609 354.557,398.609 354.5,397.5C 355.434,396.432 355.768,395.099 355.5,393.5C 349.599,392.043 343.599,391.376 337.5,391.5C 336.744,389.237 336.577,386.903 337,384.5C 334.603,386.782 331.769,388.116 328.5,388.5C 328.509,390.308 328.009,391.975 327,393.5C 324.642,390.481 322.309,387.481 320,384.5C 313.961,386.312 307.795,387.312 301.5,387.5C 300.924,379.48 300.09,371.48 299,363.5C 296.142,359.747 294.975,355.413 295.5,350.5C 333.954,368.401 372.62,368.568 411.5,351C 449.601,330.336 469.601,298.17 471.5,254.5C 472.011,210.708 455.678,174.874 422.5,147C 391.869,126.175 358.536,120.008 322.5,128.5C 326.648,118.5 332.648,109.666 340.5,102C 340.272,101.601 339.938,101.435 339.5,101.5C 349.513,91.3176 360.846,82.8176 373.5,76C 375.927,74.4455 375.927,73.2789 373.5,72.5C 375.505,69.7546 377.171,70.0879 378.5,73.5C 390.007,67.7194 402.007,63.2194 414.5,60C 412.505,59.0764 412.172,57.9097 413.5,56.5C 413.97,57.6935 414.97,58.3601 416.5,58.5C 430.05,55.4916 443.217,51.4916 456,46.5C 456.902,46.7432 457.735,47.0766 458.5,47.5C 458.082,48.2216 457.416,48.7216 456.5,49C 466.509,48.1112 476.509,46.7779 486.5,45C 519.442,42.8807 552.109,44.8807 584.5,51C 590.209,52.2999 595.709,54.1332 601,56.5C 595.516,175.855 589.35,295.189 582.5,414.5C 573.067,414.94 563.734,414.274 554.5,412.5C 549.58,404.328 544.913,395.995 540.5,387.5C 529.227,387.323 517.893,387.323 506.5,387.5C 504.334,395.497 500.834,402.83 496,409.5C 483.502,410.972 471.002,412.305 458.5,413.5C 450.806,405.973 443.639,397.973 437,389.5C 436.184,388.177 435.017,387.511 433.5,387.5 Z"/></g>
<g><path style="opacity:1" fill="#d8e5f2" d="M 458.5,47.5 C 457.735,47.0766 456.902,46.7432 456,46.5C 443.217,51.4916 430.05,55.4916 416.5,58.5C 414.97,58.3601 413.97,57.6935 413.5,56.5C 417.697,54.7679 422.031,53.4345 426.5,52.5C 426.5,51.5 426.5,50.5 426.5,49.5C 428.553,49.5979 430.22,48.9313 431.5,47.5C 436.729,45.9876 442.062,44.9876 447.5,44.5C 460.461,43.6791 473.461,42.1791 486.5,40C 492.528,39.1697 498.528,39.3364 504.5,40.5C 504.291,41.086 503.957,41.586 503.5,42C 488.451,43.5073 473.451,45.3406 458.5,47.5 Z"/></g>
<g><path style="opacity:0.95" fill="#587898" d="M 431.5,47.5 C 430.22,48.9313 428.553,49.5979 426.5,49.5C 426.5,50.5 426.5,51.5 426.5,52.5C 422.031,53.4345 417.697,54.7679 413.5,56.5C 412.172,57.9097 412.505,59.0764 414.5,60C 402.007,63.2194 390.007,67.7194 378.5,73.5C 377.171,70.0879 375.505,69.7546 373.5,72.5C 356.816,80.4465 342.316,91.4465 330,105.5C 329.517,106.448 329.351,107.448 329.5,108.5C 330.552,108.649 331.552,108.483 332.5,108C 334.703,105.628 337.037,103.461 339.5,101.5C 339.938,101.435 340.272,101.601 340.5,102C 332.648,109.666 326.648,118.5 322.5,128.5C 320.765,132.516 319.099,136.683 317.5,141C 317.833,141.5 318.167,142 318.5,142.5C 326.788,139.959 335.122,137.625 343.5,135.5C 337.257,138.283 330.923,141.117 324.5,144C 316.138,145.772 307.805,147.605 299.5,149.5C 302.765,147.846 306.098,146.18 309.5,144.5C 309.069,143.707 308.735,142.873 308.5,142C 309.88,137.356 311.547,132.856 313.5,128.5C 314.207,125.357 315.373,122.357 317,119.5C 322.245,112.676 327.245,105.676 332,98.5C 339.167,92 346.333,85.5 353.5,79C 364.167,73 374.833,67 385.5,61C 400.645,55.7844 415.978,51.2844 431.5,47.5 Z"/></g>
<g><path style="opacity:1" fill="#d6e3f0" d="M 582.5,43.5 C 582.917,42.8761 583.584,42.5427 584.5,42.5C 591.529,44.0393 598.529,45.7059 605.5,47.5C 606.713,47.7472 607.38,48.4138 607.5,49.5C 606.503,49.4701 605.836,49.9701 605.5,51C 606.442,57.4535 606.775,63.9535 606.5,70.5C 606.5,72.5 606.5,74.5 606.5,76.5C 605.292,77.2341 603.959,77.5674 602.5,77.5C 602.5,68.5 602.5,59.5 602.5,50.5C 596.134,49.3251 589.8,47.9918 583.5,46.5C 583.737,45.209 583.404,44.209 582.5,43.5 Z"/></g>
<g><path style="opacity:0.921" fill="#e0ecf7" d="M 689.5,58.5 C 689.5,59.5 689.5,60.5 689.5,61.5C 683.505,60.2607 677.505,58.9274 671.5,57.5C 668.931,60.961 666.597,64.6277 664.5,68.5C 661.167,69.5 657.834,70.5 654.5,71.5C 650.533,67.5203 646.199,64.0203 641.5,61C 639.613,60.8374 638.113,61.6707 637,63.5C 635.955,62.6266 635.122,61.6266 634.5,60.5C 636.146,58.2486 638.313,56.582 641,55.5C 646.079,59.2895 651.245,62.9562 656.5,66.5C 658.459,66.1252 660.293,65.4585 662,64.5C 663.528,61.5833 664.861,58.5833 666,55.5C 666.75,54.8742 667.584,54.3742 668.5,54C 674.168,54.2632 679.835,54.9298 685.5,56C 687.066,56.6082 688.4,57.4415 689.5,58.5 Z"/></g>
<g><path style="opacity:0.988" fill="#6b8b97" d="M 689.5,58.5 C 690.124,58.9169 690.457,59.5836 690.5,60.5C 689.421,64.6484 688.421,68.815 687.5,73C 689.323,76.3204 691.989,78.8204 695.5,80.5C 697.396,79.7255 699.063,78.7255 700.5,77.5C 701.315,78.4293 702.148,79.4293 703,80.5C 706.733,78.9163 709.899,79.7496 712.5,83C 713.793,83.49 715.127,83.6567 716.5,83.5C 718.455,87.8607 720.121,92.3607 721.5,97C 721.355,97.772 721.022,98.4387 720.5,99C 716.24,99.8089 712.24,101.309 708.5,103.5C 707.696,109.215 706.696,114.881 705.5,120.5C 710.476,123.485 715.476,126.151 720.5,128.5C 719.613,133.497 717.947,138.164 715.5,142.5C 707.197,132.689 699.031,122.689 691,112.5C 679.803,101.637 668.97,90.4708 658.5,79C 656.006,77.9683 653.672,76.8017 651.5,75.5C 653.942,75.6463 654.609,74.813 653.5,73C 646.471,68.6501 639.137,65.1501 631.5,62.5C 632.492,62.6716 633.158,62.3382 633.5,61.5C 633.5,60.8333 633.833,60.5 634.5,60.5C 635.122,61.6266 635.955,62.6266 637,63.5C 638.113,61.6707 639.613,60.8374 641.5,61C 646.199,64.0203 650.533,67.5203 654.5,71.5C 657.834,70.5 661.167,69.5 664.5,68.5C 666.597,64.6277 668.931,60.961 671.5,57.5C 677.505,58.9274 683.505,60.2607 689.5,61.5C 689.5,60.5 689.5,59.5 689.5,58.5 Z"/></g>
<g><path style="opacity:1" fill="#e3eefa" d="M 512.5,58.5 C 513.833,58.5 515.167,58.5 516.5,58.5C 516.762,59.9778 516.429,61.3112 515.5,62.5C 513.45,61.9234 512.45,60.5901 512.5,58.5 Z"/></g>
<g><path style="opacity:1" fill="#385a7c" d="M 705.5,145.5 C 689.159,142.166 672.826,138.833 656.5,135.5C 653.702,134.526 650.702,133.86 647.5,133.5C 645.626,133.39 644.126,134.056 643,135.5C 641.003,141.827 639.17,148.161 637.5,154.5C 629.04,158.452 621.873,164.119 616,171.5C 610.062,179.054 604.895,187.054 600.5,195.5C 602.43,155.83 604.43,116.163 606.5,76.5C 606.5,74.5 606.5,72.5 606.5,70.5C 607.477,67.7131 607.81,64.7131 607.5,61.5C 615.958,63.4852 624.292,65.9852 632.5,69C 639.992,74.5798 647.659,79.9131 655.5,85C 673.962,103.788 691.296,123.455 707.5,144C 707.164,145.03 706.497,145.53 705.5,145.5 Z"/></g>
<g><path style="opacity:1" fill="#d3e1ee" d="M 631.5,62.5 C 639.137,65.1501 646.471,68.6501 653.5,73C 654.609,74.813 653.942,75.6463 651.5,75.5C 642.317,70.6022 632.65,66.7688 622.5,64C 621.663,62.9887 621.33,61.8221 621.5,60.5C 624.877,60.9595 628.211,61.6261 631.5,62.5 Z"/></g>
<g><path style="opacity:1" fill="#e0ebf7" d="M 485.5,65.5 C 487.665,65.1159 489.332,65.7826 490.5,67.5C 489.332,69.2174 487.665,69.8841 485.5,69.5C 485.5,68.1667 485.5,66.8333 485.5,65.5 Z"/></g>
<g><path style="opacity:1" fill="#d6e3f1" d="M 445.5,71.5 C 448.167,71.5 450.833,71.5 453.5,71.5C 453.5,72.5 453.5,73.5 453.5,74.5C 433.624,76.969 414.291,81.6357 395.5,88.5C 395.33,87.1779 395.663,86.0113 396.5,85C 412.497,78.7541 428.83,74.2541 445.5,71.5 Z"/></g>
<g><path style="opacity:0.916" fill="#dfebf6" d="M 716.5,83.5 C 715.127,83.6567 713.793,83.49 712.5,83C 709.899,79.7496 706.733,78.9163 703,80.5C 702.148,79.4293 701.315,78.4293 700.5,77.5C 708.153,72.6433 713.486,74.6433 716.5,83.5 Z"/></g>
<g><path style="opacity:1" fill="#d5e3f0" d="M 373.5,72.5 C 375.927,73.2789 375.927,74.4455 373.5,76C 360.846,82.8176 349.513,91.3176 339.5,101.5C 337.037,103.461 334.703,105.628 332.5,108C 331.552,108.483 330.552,108.649 329.5,108.5C 329.351,107.448 329.517,106.448 330,105.5C 342.316,91.4465 356.816,80.4465 373.5,72.5 Z"/></g>
<g><path style="opacity:1" fill="#557697" d="M 558.5,90.5 C 554.244,93.9853 552.577,98.3187 553.5,103.5C 552.935,119.761 560.602,125.928 576.5,122C 589.516,113.892 590.849,104.225 580.5,93C 578.512,92.0617 576.512,91.2283 574.5,90.5C 574.5,89.1667 574.5,87.8333 574.5,86.5C 585.204,89.0066 591.204,95.8399 592.5,107C 587.676,125.081 576.342,131.081 558.5,125C 547.817,116.435 545.984,106.268 553,94.5C 554.451,92.5359 556.284,91.2026 558.5,90.5 Z"/></g>
<g><path style="opacity:1" fill="#deeaf6" d="M 573.5,90.5 C 572.5,90.5 571.5,90.5 570.5,90.5C 570.649,91.552 570.483,92.552 570,93.5C 568.482,94.1634 567.315,95.1634 566.5,96.5C 564.847,96.6596 563.514,97.3263 562.5,98.5C 559.738,100.596 556.738,102.262 553.5,103.5C 552.577,98.3187 554.244,93.9853 558.5,90.5C 563.365,88.7001 568.365,87.3668 573.5,86.5C 573.5,87.8333 573.5,89.1667 573.5,90.5 Z"/></g>
<g><path style="opacity:1" fill="#6b8b97" d="M 573.5,90.5 C 573.833,90.5 574.167,90.5 574.5,90.5C 576.512,91.2283 578.512,92.0617 580.5,93C 590.849,104.225 589.516,113.892 576.5,122C 560.602,125.928 552.935,119.761 553.5,103.5C 556.738,102.262 559.738,100.596 562.5,98.5C 562.238,99.9778 562.571,101.311 563.5,102.5C 564.833,103.167 565.833,104.167 566.5,105.5C 565.167,107.167 563.833,108.833 562.5,110.5C 561.167,112.167 561.167,113.833 562.5,115.5C 563.451,116.326 564.451,116.492 565.5,116C 567.333,114.167 569.167,112.333 571,110.5C 572.684,112.351 574.517,114.018 576.5,115.5C 578.167,115.167 579.167,114.167 579.5,112.5C 578.386,110.215 577.053,108.048 575.5,106C 577.243,103.981 578.41,101.814 579,99.5C 578.261,98.4258 577.261,97.7591 576,97.5C 574.056,98.4394 572.389,99.7727 571,101.5C 569.483,99.7605 567.983,98.0938 566.5,96.5C 567.315,95.1634 568.482,94.1634 570,93.5C 570.483,92.552 570.649,91.552 570.5,90.5C 571.5,90.5 572.5,90.5 573.5,90.5 Z"/></g>
<g><path style="opacity:1" fill="#557697" d="M 566.5,96.5 C 567.983,98.0938 569.483,99.7605 571,101.5C 572.389,99.7727 574.056,98.4394 576,97.5C 577.261,97.7591 578.261,98.4258 579,99.5C 578.41,101.814 577.243,103.981 575.5,106C 577.053,108.048 578.386,110.215 579.5,112.5C 579.167,114.167 578.167,115.167 576.5,115.5C 574.517,114.018 572.684,112.351 571,110.5C 569.167,112.333 567.333,114.167 565.5,116C 564.451,116.492 563.451,116.326 562.5,115.5C 561.167,113.833 561.167,112.167 562.5,110.5C 563.833,108.833 565.167,107.167 566.5,105.5C 565.833,104.167 564.833,103.167 563.5,102.5C 562.571,101.311 562.238,99.9778 562.5,98.5C 563.514,97.3263 564.847,96.6596 566.5,96.5 Z"/></g>
<g><path style="opacity:1" fill="#6d8ba9" d="M 295.5,350.5 C 294.096,341.204 292.763,331.87 291.5,322.5C 312.881,336.35 336.381,344.35 362,346.5C 405.718,342.681 435.051,320.348 450,279.5C 453.328,264.677 454.328,249.677 453,234.5C 445.855,206.02 431.021,182.52 408.5,164C 400.607,158.886 392.274,154.553 383.5,151C 377.674,148.876 371.674,147.709 365.5,147.5C 366.438,151.313 367.771,154.979 369.5,158.5C 371.08,161.659 372.08,164.993 372.5,168.5C 371.167,168.5 369.833,168.5 368.5,168.5C 367.478,165.132 365.478,162.465 362.5,160.5C 362.167,159.833 361.833,159.167 361.5,158.5C 359.388,153.722 358.055,148.722 357.5,143.5C 356.696,141.811 355.696,140.145 354.5,138.5C 349.945,140.073 345.445,141.74 341,143.5C 340.536,142.906 340.369,142.239 340.5,141.5C 343.353,140.047 346.353,138.881 349.5,138C 350.337,136.989 350.67,135.822 350.5,134.5C 348.139,134.674 345.806,135.007 343.5,135.5C 335.122,137.625 326.788,139.959 318.5,142.5C 318.167,142 317.833,141.5 317.5,141C 319.099,136.683 320.765,132.516 322.5,128.5C 358.536,120.008 391.869,126.175 422.5,147C 455.678,174.874 472.011,210.708 471.5,254.5C 469.601,298.17 449.601,330.336 411.5,351C 372.62,368.568 333.954,368.401 295.5,350.5 Z"/></g>
<g><path style="opacity:0.009" fill="#fdfee8" d="M 313.5,128.5 C 311.547,132.856 309.88,137.356 308.5,142C 308.735,142.873 309.069,143.707 309.5,144.5C 306.098,146.18 302.765,147.846 299.5,149.5C 290.58,151.138 282.247,154.138 274.5,158.5C 269.347,159.519 264.347,160.852 259.5,162.5C 274.11,145.911 292.11,134.577 313.5,128.5 Z"/></g>
<g><path style="opacity:0.031" fill="#fdfee8" d="M 720.5,128.5 C 756.39,134.858 783.89,153.524 803,184.5C 827.003,231.782 823.003,276.448 791,318.5C 786.5,323 782,327.5 777.5,332C 767.804,338.843 758.138,345.676 748.5,352.5C 748.638,342.825 748.971,333.158 749.5,323.5C 746.5,323.5 743.5,323.5 740.5,323.5C 740.5,322.5 740.5,321.5 740.5,320.5C 760.397,304.035 770.73,282.702 771.5,256.5C 770.492,231.935 761.825,211.935 745.5,196.5C 744.094,196.027 743.427,195.027 743.5,193.5C 745.251,189.079 746.584,184.412 747.5,179.5C 749.056,172.994 750.723,166.494 752.5,160C 752.167,159.167 751.833,158.333 751.5,157.5C 741.491,152.108 730.825,148.608 719.5,147C 718.267,145.333 716.933,143.833 715.5,142.5C 717.947,138.164 719.613,133.497 720.5,128.5 Z"/></g>
<g><path style="opacity:1" fill="#dde9f5" d="M 656.5,135.5 C 672.826,138.833 689.159,142.166 705.5,145.5C 707.954,146.621 710.621,147.454 713.5,148C 714.337,149.011 714.67,150.178 714.5,151.5C 695.931,147.22 677.264,143.386 658.5,140C 655.304,139.195 652.304,139.362 649.5,140.5C 647.743,144.111 646.41,147.777 645.5,151.5C 644.731,153.667 643.731,155.834 642.5,158C 640.934,158.765 639.601,158.598 638.5,157.5C 641.239,150.283 643.573,142.949 645.5,135.5C 649.167,135.5 652.833,135.5 656.5,135.5 Z"/></g>
<g><path style="opacity:0.998" fill="#597999" d="M 607.5,49.5 C 608.777,51.1484 609.777,52.9817 610.5,55C 618.396,57.5929 626.062,59.7596 633.5,61.5C 633.158,62.3382 632.492,62.6716 631.5,62.5C 628.211,61.6261 624.877,60.9595 621.5,60.5C 621.33,61.8221 621.663,62.9887 622.5,64C 632.65,66.7688 642.317,70.6022 651.5,75.5C 653.672,76.8017 656.006,77.9683 658.5,79C 668.97,90.4708 679.803,101.637 691,112.5C 699.031,122.689 707.197,132.689 715.5,142.5C 716.933,143.833 718.267,145.333 719.5,147C 730.825,148.608 741.491,152.108 751.5,157.5C 751.833,158.333 752.167,159.167 752.5,160C 750.723,166.494 749.056,172.994 747.5,179.5C 744.907,178.246 742.573,176.58 740.5,174.5C 741.106,170.578 742.106,166.745 743.5,163C 739.111,159.529 734.111,157.195 728.5,156C 701.94,151.654 675.607,146.488 649.5,140.5C 652.304,139.362 655.304,139.195 658.5,140C 677.264,143.386 695.931,147.22 714.5,151.5C 714.67,150.178 714.337,149.011 713.5,148C 710.621,147.454 707.954,146.621 705.5,145.5C 706.497,145.53 707.164,145.03 707.5,144C 691.296,123.455 673.962,103.788 655.5,85C 647.659,79.9131 639.992,74.5798 632.5,69C 624.292,65.9852 615.958,63.4852 607.5,61.5C 607.81,64.7131 607.477,67.7131 606.5,70.5C 606.775,63.9535 606.442,57.4535 605.5,51C 605.836,49.9701 606.503,49.4701 607.5,49.5 Z"/></g>
<g><path style="opacity:1" fill="#acbfd2" d="M 357.5,143.5 C 357.5,142.5 357.5,141.5 357.5,140.5C 361.316,141.09 362.983,143.423 362.5,147.5C 361.325,147.719 360.325,147.386 359.5,146.5C 359.058,145.261 358.391,144.261 357.5,143.5 Z"/></g>
<g><path style="opacity:1" fill="#73909b" d="M 357.5,143.5 C 358.055,148.722 359.388,153.722 361.5,158.5C 356.957,155.609 351.957,154.776 346.5,156C 326.635,162.844 306.802,169.677 287,176.5C 283.392,178.442 280.058,180.775 277,183.5C 274.362,187.94 273.862,192.607 275.5,197.5C 274.883,197.611 274.383,197.944 274,198.5C 273.721,195.543 272.887,192.877 271.5,190.5C 269.759,183.703 268.093,176.87 266.5,170C 266.585,168.893 266.919,167.893 267.5,167C 279.23,161.089 291.563,156.756 304.5,154C 305.7,152.969 307.034,152.135 308.5,151.5C 318.181,149.397 327.848,147.23 337.5,145C 338.357,143.777 339.357,142.611 340.5,141.5C 340.369,142.239 340.536,142.906 341,143.5C 345.445,141.74 349.945,140.073 354.5,138.5C 355.696,140.145 356.696,141.811 357.5,143.5 Z"/></g>
<g><path style="opacity:1" fill="#7491ac" d="M 291.5,322.5 C 291.448,318.802 291.114,315.135 290.5,311.5C 302.704,320.775 316.038,328.275 330.5,334C 355.062,342.397 378.396,339.73 400.5,326C 432.777,304.614 447.943,274.447 446,235.5C 443.906,227.311 441.239,219.311 438,211.5C 429.415,196.506 418.582,183.339 405.5,172C 399.998,168.415 394.331,165.081 388.5,162C 382.275,160.23 375.941,159.063 369.5,158.5C 367.771,154.979 366.438,151.313 365.5,147.5C 371.674,147.709 377.674,148.876 383.5,151C 392.274,154.553 400.607,158.886 408.5,164C 431.021,182.52 445.855,206.02 453,234.5C 454.328,249.677 453.328,264.677 450,279.5C 435.051,320.348 405.718,342.681 362,346.5C 336.381,344.35 312.881,336.35 291.5,322.5 Z"/></g>
<g><path style="opacity:1" fill="#0b154f" d="M 649.5,140.5 C 675.607,146.488 701.94,151.654 728.5,156C 734.111,157.195 739.111,159.529 743.5,163C 742.106,166.745 741.106,170.578 740.5,174.5C 740.167,174.5 739.833,174.5 739.5,174.5C 737.704,173.207 736.037,171.707 734.5,170C 707.127,162.161 679.127,158.995 650.5,160.5C 648.351,162.409 646.018,164.076 643.5,165.5C 644.811,160.939 645.478,156.272 645.5,151.5C 646.41,147.777 647.743,144.111 649.5,140.5 Z"/></g>
<g><path style="opacity:0.975" fill="#5f7e9d" d="M 299.5,149.5 C 299.074,151.285 297.908,152.285 296,152.5C 288.788,154.405 281.622,156.405 274.5,158.5C 282.247,154.138 290.58,151.138 299.5,149.5 Z"/></g>
<g><path style="opacity:1" fill="#607f9c" d="M 645.5,151.5 C 645.478,156.272 644.811,160.939 643.5,165.5C 642.85,167.435 642.517,169.435 642.5,171.5C 642.934,176.93 645.934,179.596 651.5,179.5C 650.833,180.833 649.833,181.833 648.5,182.5C 646.73,181.236 645.063,179.736 643.5,178C 641.527,177.505 639.527,177.338 637.5,177.5C 635.466,176.452 634.133,174.786 633.5,172.5C 634.664,168.987 635.998,165.654 637.5,162.5C 637.5,163.5 637.5,164.5 637.5,165.5C 639.346,165.778 640.68,165.111 641.5,163.5C 640.68,161.889 639.346,161.222 637.5,161.5C 637.232,159.901 637.566,158.568 638.5,157.5C 639.601,158.598 640.934,158.765 642.5,158C 643.731,155.834 644.731,153.667 645.5,151.5 Z"/></g>
<g><path style="opacity:1" fill="#dde9f5" d="M 340.5,141.5 C 339.357,142.611 338.357,143.777 337.5,145C 327.848,147.23 318.181,149.397 308.5,151.5C 307.034,152.135 305.7,152.969 304.5,154C 291.563,156.756 279.23,161.089 267.5,167C 266.919,167.893 266.585,168.893 266.5,170C 268.093,176.87 269.759,183.703 271.5,190.5C 270.923,192.652 269.756,192.985 268,191.5C 264.869,183.008 263.369,174.341 263.5,165.5C 267.401,163.392 271.067,161.059 274.5,158.5C 281.622,156.405 288.788,154.405 296,152.5C 297.908,152.285 299.074,151.285 299.5,149.5C 307.805,147.605 316.138,145.772 324.5,144C 330.923,141.117 337.257,138.283 343.5,135.5C 345.806,135.007 348.139,134.674 350.5,134.5C 350.67,135.822 350.337,136.989 349.5,138C 346.353,138.881 343.353,140.047 340.5,141.5 Z"/></g>
<g><path style="opacity:0.026" fill="#fdfee8" d="M 259.5,162.5 C 259.106,163.967 258.773,165.467 258.5,167C 262.243,179.435 265.243,192.101 267.5,205C 267.905,205.945 268.572,206.612 269.5,207C 271.473,207.495 273.473,207.662 275.5,207.5C 266.299,230.113 264.966,253.113 271.5,276.5C 267.452,276.395 263.452,276.728 259.5,277.5C 259.927,281.824 260.261,286.158 260.5,290.5C 256.833,290.5 253.167,290.5 249.5,290.5C 249.5,291.5 249.5,292.5 249.5,293.5C 248.864,299.655 248.864,305.989 249.5,312.5C 222.065,269.499 220.565,225.499 245,180.5C 248.939,173.733 253.772,167.733 259.5,162.5 Z"/></g>
<g><path style="opacity:1" fill="#d5e2ef" d="M 637.5,161.5 C 639.346,161.222 640.68,161.889 641.5,163.5C 640.68,165.111 639.346,165.778 637.5,165.5C 637.5,164.5 637.5,163.5 637.5,162.5C 637.5,162.167 637.5,161.833 637.5,161.5 Z"/></g>
<g><path style="opacity:1" fill="#7995ae" d="M 369.5,158.5 C 375.941,159.063 382.275,160.23 388.5,162C 394.331,165.081 399.998,168.415 405.5,172C 418.582,183.339 429.415,196.506 438,211.5C 441.239,219.311 443.906,227.311 446,235.5C 447.943,274.447 432.777,304.614 400.5,326C 378.396,339.73 355.062,342.397 330.5,334C 316.038,328.275 302.704,320.775 290.5,311.5C 290.167,308.833 289.833,306.167 289.5,303.5C 316.5,330.783 348.167,337.95 384.5,325C 427.506,303.237 443.34,268.737 432,221.5C 423.123,203.95 410.623,189.45 394.5,178C 387.416,173.95 380.083,170.784 372.5,168.5C 372.08,164.993 371.08,161.659 369.5,158.5 Z"/></g>
<g><path style="opacity:1" fill="#414871" d="M 737.5,185.5 C 737.631,186.376 737.298,187.043 736.5,187.5C 735.264,186.754 733.93,186.421 732.5,186.5C 732.5,186.167 732.5,185.833 732.5,185.5C 735.475,179.783 733.808,175.283 727.5,172C 722.5,171.667 717.5,171.333 712.5,171C 693.713,167.356 674.713,166.023 655.5,167C 654.029,168.583 653.029,170.417 652.5,172.5C 650.283,171.631 647.95,171.298 645.5,171.5C 645.338,169.473 645.505,167.473 646,165.5C 647.918,164.458 649.751,163.292 651.5,162C 659.833,161.333 668.167,161.333 676.5,162C 692.171,163.889 707.837,165.889 723.5,168C 733.249,169.904 737.916,175.737 737.5,185.5 Z"/></g>
<g><path style="opacity:1" fill="#232c5e" d="M 739.5,174.5 C 740.094,178.307 739.427,181.973 737.5,185.5C 737.916,175.737 733.249,169.904 723.5,168C 707.837,165.889 692.171,163.889 676.5,162C 668.167,161.333 659.833,161.333 651.5,162C 649.751,163.292 647.918,164.458 646,165.5C 645.505,167.473 645.338,169.473 645.5,171.5C 644.5,171.5 643.5,171.5 642.5,171.5C 642.517,169.435 642.85,167.435 643.5,165.5C 646.018,164.076 648.351,162.409 650.5,160.5C 679.127,158.995 707.127,162.161 734.5,170C 736.037,171.707 737.704,173.207 739.5,174.5 Z"/></g>
<g><path style="opacity:1" fill="#89a2a9" d="M 361.5,158.5 C 361.833,159.167 362.167,159.833 362.5,160.5C 364.161,163.838 363.161,165.838 359.5,166.5C 358.814,165.152 357.814,163.985 356.5,163C 352.878,161.894 349.211,161.561 345.5,162C 338.902,163.879 332.235,165.545 325.5,167C 314.79,173.798 303.123,178.465 290.5,181C 284.088,183.651 281.922,188.151 284,194.5C 287.311,194.215 290.477,194.215 293.5,194.5C 309.35,188.902 325.35,183.902 341.5,179.5C 326.328,186.224 310.995,192.557 295.5,198.5C 293.214,198.595 291.214,199.262 289.5,200.5C 288.5,200.5 287.5,200.5 286.5,200.5C 285.127,200.657 283.793,200.49 282.5,200C 280.889,196.853 278.555,196.019 275.5,197.5C 273.862,192.607 274.362,187.94 277,183.5C 280.058,180.775 283.392,178.442 287,176.5C 306.802,169.677 326.635,162.844 346.5,156C 351.957,154.776 356.957,155.609 361.5,158.5 Z"/></g>
<g><path style="opacity:1" fill="#7f99b0" d="M 362.5,160.5 C 365.478,162.465 367.478,165.132 368.5,168.5C 369.833,168.5 371.167,168.5 372.5,168.5C 380.083,170.784 387.416,173.95 394.5,178C 410.623,189.45 423.123,203.95 432,221.5C 443.34,268.737 427.506,303.237 384.5,325C 348.167,337.95 316.5,330.783 289.5,303.5C 289.5,302.5 289.5,301.5 289.5,300.5C 295.531,305.517 302.198,309.517 309.5,312.5C 316.166,317.825 323.833,320.992 332.5,322C 345.209,322.874 357.876,322.54 370.5,321C 379.111,319.194 386.778,315.527 393.5,310C 404.15,300.162 412.983,288.995 420,276.5C 421.637,271.286 422.637,265.953 423,260.5C 430.609,216.182 413.443,186.682 371.5,172C 368.739,171.278 366.073,171.445 363.5,172.5C 362.833,172.833 362.167,173.167 361.5,173.5C 361.662,171.473 361.495,169.473 361,167.5C 360.617,166.944 360.117,166.611 359.5,166.5C 363.161,165.838 364.161,163.838 362.5,160.5 Z"/></g>
<g><path style="opacity:1" fill="#406080" d="M 656.5,135.5 C 652.833,135.5 649.167,135.5 645.5,135.5C 643.573,142.949 641.239,150.283 638.5,157.5C 637.566,158.568 637.232,159.901 637.5,161.5C 637.5,161.833 637.5,162.167 637.5,162.5C 635.998,165.654 634.664,168.987 633.5,172.5C 634.133,174.786 635.466,176.452 637.5,177.5C 638.303,178.423 638.47,179.423 638,180.5C 628.071,186.761 619.737,194.761 613,204.5C 602.43,231.177 601.764,258.177 611,285.5C 625.506,318.851 651.006,336.517 687.5,338.5C 698.151,338.036 708.485,336.036 718.5,332.5C 717.37,339.483 716.37,346.483 715.5,353.5C 692.39,356.179 670.39,352.345 649.5,342C 625.755,330.753 607.755,313.586 595.5,290.5C 596.687,258.798 598.354,227.132 600.5,195.5C 604.895,187.054 610.062,179.054 616,171.5C 621.873,164.119 629.04,158.452 637.5,154.5C 639.17,148.161 641.003,141.827 643,135.5C 644.126,134.056 645.626,133.39 647.5,133.5C 650.702,133.86 653.702,134.526 656.5,135.5 Z"/></g>
<g><path style="opacity:1" fill="#5c6382" d="M 732.5,185.5 C 728.521,184.503 724.521,183.503 720.5,182.5C 713.244,180.782 705.91,179.449 698.5,178.5C 683.627,174.052 668.294,172.052 652.5,172.5C 653.029,170.417 654.029,168.583 655.5,167C 674.713,166.023 693.713,167.356 712.5,171C 717.5,171.333 722.5,171.667 727.5,172C 733.808,175.283 735.475,179.783 732.5,185.5 Z"/></g>
<g><path style="opacity:1" fill="#ccd6db" d="M 346.5,177.5 C 345.22,178.931 343.553,179.598 341.5,179.5C 325.35,183.902 309.35,188.902 293.5,194.5C 291.621,194.607 291.288,194.107 292.5,193C 314.89,185.156 336.89,177.322 358.5,169.5C 358.5,170.5 358.5,171.5 358.5,172.5C 354.111,173.403 350.111,175.069 346.5,177.5 Z"/></g>
<g><path style="opacity:1" fill="#a0b4b5" d="M 359.5,166.5 C 360.117,166.611 360.617,166.944 361,167.5C 361.495,169.473 361.662,171.473 361.5,173.5C 361.167,173.5 360.833,173.5 360.5,173.5C 355.907,175.03 351.24,176.364 346.5,177.5C 350.111,175.069 354.111,173.403 358.5,172.5C 358.5,171.5 358.5,170.5 358.5,169.5C 336.89,177.322 314.89,185.156 292.5,193C 291.288,194.107 291.621,194.607 293.5,194.5C 290.477,194.215 287.311,194.215 284,194.5C 281.922,188.151 284.088,183.651 290.5,181C 303.123,178.465 314.79,173.798 325.5,167C 332.235,165.545 338.902,163.879 345.5,162C 349.211,161.561 352.878,161.894 356.5,163C 357.814,163.985 358.814,165.152 359.5,166.5 Z"/></g>
<g><path style="opacity:1" fill="#95aab6" d="M 642.5,171.5 C 643.5,171.5 644.5,171.5 645.5,171.5C 647.95,171.298 650.283,171.631 652.5,172.5C 668.294,172.052 683.627,174.052 698.5,178.5C 686.33,177.6 674.164,176.6 662,175.5C 659.5,175.833 657,176.167 654.5,176.5C 675.596,177.976 696.596,180.31 717.5,183.5C 718.726,183.48 719.726,183.147 720.5,182.5C 724.521,183.503 728.521,184.503 732.5,185.5C 732.5,185.833 732.5,186.167 732.5,186.5C 730.66,188.669 728.326,190.002 725.5,190.5C 709.808,187.528 694.141,184.362 678.5,181C 670.524,180.066 662.524,179.566 654.5,179.5C 653.5,179.5 652.5,179.5 651.5,179.5C 645.934,179.596 642.934,176.93 642.5,171.5 Z"/></g>
<g><path style="opacity:1" fill="#c5d0d6" d="M 698.5,178.5 C 705.91,179.449 713.244,180.782 720.5,182.5C 719.726,183.147 718.726,183.48 717.5,183.5C 696.596,180.31 675.596,177.976 654.5,176.5C 657,176.167 659.5,175.833 662,175.5C 674.164,176.6 686.33,177.6 698.5,178.5 Z"/></g>
<g><path style="opacity:1" fill="#708ca3" d="M 739.5,174.5 C 739.833,174.5 740.167,174.5 740.5,174.5C 742.573,176.58 744.907,178.246 747.5,179.5C 746.584,184.412 745.251,189.079 743.5,193.5C 739.432,194.716 735.432,194.382 731.5,192.5C 729.374,191.952 727.374,191.285 725.5,190.5C 728.326,190.002 730.66,188.669 732.5,186.5C 733.93,186.421 735.264,186.754 736.5,187.5C 737.298,187.043 737.631,186.376 737.5,185.5C 739.427,181.973 740.094,178.307 739.5,174.5 Z"/></g>
<g><path style="opacity:1" fill="#575e7c" d="M 380.5,297.5 C 375.748,299.868 370.748,301.868 365.5,303.5C 364.202,305.052 364.535,306.052 366.5,306.5C 363.781,307.913 360.781,308.58 357.5,308.5C 357.5,307.5 357.5,306.5 357.5,305.5C 355.5,305.5 353.5,305.5 351.5,305.5C 351.737,306.791 351.404,307.791 350.5,308.5C 350.854,305.506 349.854,304.506 347.5,305.5C 337.209,304.001 327.543,300.501 318.5,295C 317.748,294.329 317.414,293.496 317.5,292.5C 345.775,303.985 370.609,298.985 392,277.5C 393.791,273.964 395.291,270.297 396.5,266.5C 397.167,266.5 397.5,266.167 397.5,265.5C 398.167,261.833 398.833,258.167 399.5,254.5C 401.508,236.68 396.508,220.846 384.5,207C 365.388,197.924 345.388,196.091 324.5,201.5C 321.733,201.858 319.067,202.525 316.5,203.5C 317.254,200.909 318.921,199.076 321.5,198C 332.62,192.869 344.286,190.869 356.5,192C 362.053,193.794 367.719,195.127 373.5,196C 378.322,199.911 383.322,203.578 388.5,207C 403.371,221.291 408.871,238.791 405,259.5C 400.898,275.516 392.731,288.183 380.5,297.5 Z"/></g>
<g><path style="opacity:1" fill="#849fa3" d="M 651.5,179.5 C 652.5,179.5 653.5,179.5 654.5,179.5C 655.952,180.302 657.618,180.802 659.5,181C 660.833,181.667 660.833,182.333 659.5,183C 664.076,185.704 669.076,187.038 674.5,187C 667.915,190.735 660.582,194.402 652.5,198C 646.684,206.145 640.517,213.978 634,221.5C 622.194,242.852 622.861,263.852 636,284.5C 648.213,303.226 665.38,313.893 687.5,316.5C 704.089,314.165 719.422,308.665 733.5,300C 736.372,297.463 738.872,294.63 741,291.5C 745.333,283.833 749.667,276.167 754,268.5C 756.401,253.547 755.067,238.881 750,224.5C 743.655,212.82 735.155,202.987 724.5,195C 727.004,194.302 729.337,193.469 731.5,192.5C 735.432,194.382 739.432,194.716 743.5,193.5C 743.427,195.027 744.094,196.027 745.5,196.5C 752.911,207.993 758.744,220.326 763,233.5C 764.829,261.35 756.329,285.516 737.5,306C 733.779,307.854 730.446,310.187 727.5,313C 728.737,313.232 729.737,313.732 730.5,314.5C 726.429,314.12 722.762,315.12 719.5,317.5C 691.048,327.883 664.215,324.883 639,308.5C 629.942,297.057 622.942,284.39 618,270.5C 616.171,264.828 614.671,259.162 613.5,253.5C 614.158,254.398 614.824,255.398 615.5,256.5C 619.22,238.843 625.053,221.843 633,205.5C 636.936,199.727 641.436,194.394 646.5,189.5C 645.833,189.167 645.167,188.833 644.5,188.5C 642.823,189.187 641.156,189.854 639.5,190.5C 641.88,187.119 644.88,184.453 648.5,182.5C 649.833,181.833 650.833,180.833 651.5,179.5 Z"/></g>
<g><path style="opacity:0.994" fill="#617f9c" d="M 274.5,158.5 C 271.067,161.059 267.401,163.392 263.5,165.5C 263.369,174.341 264.869,183.008 268,191.5C 269.756,192.985 270.923,192.652 271.5,190.5C 272.887,192.877 273.721,195.543 274,198.5C 274.383,197.944 274.883,197.611 275.5,197.5C 278.555,196.019 280.889,196.853 282.5,200C 283.793,200.49 285.127,200.657 286.5,200.5C 286.158,201.338 285.492,201.672 284.5,201.5C 280.597,202.275 277.597,204.275 275.5,207.5C 273.473,207.662 271.473,207.495 269.5,207C 268.572,206.612 267.905,205.945 267.5,205C 265.243,192.101 262.243,179.435 258.5,167C 258.773,165.467 259.106,163.967 259.5,162.5C 264.347,160.852 269.347,159.519 274.5,158.5 Z"/></g>
<g><path style="opacity:0.115" fill="#fcfde1" d="M 745.5,196.5 C 761.825,211.935 770.492,231.935 771.5,256.5C 770.73,282.702 760.397,304.035 740.5,320.5C 740.739,318.533 740.406,316.699 739.5,315C 736.518,314.502 733.518,314.335 730.5,314.5C 729.737,313.732 728.737,313.232 727.5,313C 730.446,310.187 733.779,307.854 737.5,306C 756.329,285.516 764.829,261.35 763,233.5C 758.744,220.326 752.911,207.993 745.5,196.5 Z"/></g>
<g><path style="opacity:1" fill="#020d49" d="M 542.5,207.5 C 541.251,209.67 540.251,212.004 539.5,214.5C 539.543,215.416 539.876,216.083 540.5,216.5C 541.272,220.75 541.772,225.083 542,229.5C 542.707,231.081 543.54,232.581 544.5,234C 551.775,239.388 559.775,241.055 568.5,239C 571.381,237.749 573.214,235.583 574,232.5C 579.243,220.059 576.077,210.725 564.5,204.5C 565.234,203.292 565.567,201.959 565.5,200.5C 558.427,198.529 552.094,199.862 546.5,204.5C 545.227,203.923 545.227,203.257 546.5,202.5C 566.826,193.998 578.826,200.665 582.5,222.5C 581.306,227.584 579.806,232.584 578,237.5C 568.971,246.742 558.804,248.242 547.5,242C 537.843,237.061 534.343,229.228 537,218.5C 537.271,213.958 539.104,210.291 542.5,207.5 Z"/></g>
<g><path style="opacity:1" fill="#303865" d="M 309.5,312.5 C 302.66,307.647 296.493,301.98 291,295.5C 287.014,288.198 283.014,280.865 279,273.5C 272.867,256.073 273.2,238.739 280,221.5C 283.44,215.299 286.273,208.966 288.5,202.5C 286.901,202.768 285.568,202.434 284.5,201.5C 285.492,201.672 286.158,201.338 286.5,200.5C 287.5,200.5 288.5,200.5 289.5,200.5C 292.787,201.161 296.12,201.661 299.5,202C 280.815,223.999 277.148,248.165 288.5,274.5C 292.854,289.36 301.854,300.526 315.5,308C 338.955,320.313 362.622,320.646 386.5,309C 387.257,307.488 388.257,306.154 389.5,305C 392.941,303.521 396.274,301.855 399.5,300C 420.064,277.907 425.898,252.407 417,223.5C 407.805,203.647 392.972,189.814 372.5,182C 370.167,181.667 367.833,181.333 365.5,181C 364.733,179.53 364.067,178.03 363.5,176.5C 363.5,175.167 363.5,173.833 363.5,172.5C 366.073,171.445 368.739,171.278 371.5,172C 413.443,186.682 430.609,216.182 423,260.5C 422.637,265.953 421.637,271.286 420,276.5C 412.983,288.995 404.15,300.162 393.5,310C 386.778,315.527 379.111,319.194 370.5,321C 357.876,322.54 345.209,322.874 332.5,322C 323.833,320.992 316.166,317.825 309.5,312.5 Z"/></g>
<g><path style="opacity:1" fill="#dfeaf6" d="M 564.5,204.5 C 556.382,208.314 548.382,212.314 540.5,216.5C 539.876,216.083 539.543,215.416 539.5,214.5C 540.251,212.004 541.251,209.67 542.5,207.5C 544.23,206.974 545.564,205.974 546.5,204.5C 552.094,199.862 558.427,198.529 565.5,200.5C 565.567,201.959 565.234,203.292 564.5,204.5 Z"/></g>
<g><path style="opacity:1" fill="#242c5e" d="M 284.5,201.5 C 285.568,202.434 286.901,202.768 288.5,202.5C 286.273,208.966 283.44,215.299 280,221.5C 273.2,238.739 272.867,256.073 279,273.5C 283.014,280.865 287.014,288.198 291,295.5C 296.493,301.98 302.66,307.647 309.5,312.5C 302.198,309.517 295.531,305.517 289.5,300.5C 287.833,298.167 285.833,296.167 283.5,294.5C 280.403,290.746 277.737,286.746 275.5,282.5C 274.649,280.118 273.316,278.118 271.5,276.5C 264.966,253.113 266.299,230.113 275.5,207.5C 277.597,204.275 280.597,202.275 284.5,201.5 Z"/></g>
<g><path style="opacity:1" fill="#4a5174" d="M 360.5,173.5 C 360.854,176.421 359.854,178.754 357.5,180.5C 354.154,181.496 351.821,182.996 350.5,185C 354.505,187.204 358.671,187.704 363,186.5C 368.608,187.052 373.775,188.886 378.5,192C 414.939,216.254 422.939,247.754 402.5,286.5C 402.157,284.775 401.157,284.275 399.5,285C 393.794,290.182 387.461,294.348 380.5,297.5C 392.731,288.183 400.898,275.516 405,259.5C 408.871,238.791 403.371,221.291 388.5,207C 383.322,203.578 378.322,199.911 373.5,196C 367.719,195.127 362.053,193.794 356.5,192C 344.286,190.869 332.62,192.869 321.5,198C 318.921,199.076 317.254,200.909 316.5,203.5C 306.725,207.381 300.392,214.381 297.5,224.5C 295.251,228.456 293.751,232.789 293,237.5C 291.408,252.878 294.408,267.211 302,280.5C 306.745,285.113 311.912,289.113 317.5,292.5C 317.414,293.496 317.748,294.329 318.5,295C 327.543,300.501 337.209,304.001 347.5,305.5C 345.915,306.002 345.415,307.002 346,308.5C 347.49,309.728 348.99,309.728 350.5,308.5C 351.404,307.791 351.737,306.791 351.5,305.5C 353.5,305.5 355.5,305.5 357.5,305.5C 357.5,306.5 357.5,307.5 357.5,308.5C 360.781,308.58 363.781,307.913 366.5,306.5C 372.462,305.291 378.129,303.291 383.5,300.5C 383.423,301.75 382.756,302.583 381.5,303C 361.343,312.657 341.009,312.99 320.5,304C 313.978,298.806 307.478,293.639 301,288.5C 285.328,266.46 283.328,243.127 295,218.5C 299.438,210.73 305.271,204.23 312.5,199C 310.634,198.015 308.634,197.515 306.5,197.5C 302.855,198.116 299.188,198.45 295.5,198.5C 310.995,192.557 326.328,186.224 341.5,179.5C 343.553,179.598 345.22,178.931 346.5,177.5C 351.24,176.364 355.907,175.03 360.5,173.5 Z"/></g>
<g><path style="opacity:1" fill="#e0ebf2" d="M 613.5,253.5 C 613.5,252.5 613.5,251.5 613.5,250.5C 616.636,234.648 621.636,219.314 628.5,204.5C 630.746,202.351 632.246,199.684 633,196.5C 635.664,195.002 637.83,193.002 639.5,190.5C 641.156,189.854 642.823,189.187 644.5,188.5C 645.167,188.833 645.833,189.167 646.5,189.5C 641.436,194.394 636.936,199.727 633,205.5C 625.053,221.843 619.22,238.843 615.5,256.5C 614.824,255.398 614.158,254.398 613.5,253.5 Z"/></g>
<g><path style="opacity:1" fill="#294a6a" d="M 564.5,204.5 C 576.077,210.725 579.243,220.059 574,232.5C 573.214,235.583 571.381,237.749 568.5,239C 559.775,241.055 551.775,239.388 544.5,234C 543.54,232.581 542.707,231.081 542,229.5C 541.772,225.083 541.272,220.75 540.5,216.5C 548.382,212.314 556.382,208.314 564.5,204.5 Z"/></g>
<g><path style="opacity:1" fill="#8fa8a8" d="M 654.5,179.5 C 662.524,179.566 670.524,180.066 678.5,181C 694.141,184.362 709.808,187.528 725.5,190.5C 727.374,191.285 729.374,191.952 731.5,192.5C 729.337,193.469 727.004,194.302 724.5,195C 735.155,202.987 743.655,212.82 750,224.5C 755.067,238.881 756.401,253.547 754,268.5C 749.667,276.167 745.333,283.833 741,291.5C 738.872,294.63 736.372,297.463 733.5,300C 719.422,308.665 704.089,314.165 687.5,316.5C 665.38,313.893 648.213,303.226 636,284.5C 622.861,263.852 622.194,242.852 634,221.5C 640.517,213.978 646.684,206.145 652.5,198C 660.582,194.402 667.915,190.735 674.5,187C 669.076,187.038 664.076,185.704 659.5,183C 660.833,182.333 660.833,181.667 659.5,181C 657.618,180.802 655.952,180.302 654.5,179.5 Z"/></g>
<g><path style="opacity:0.996" fill="#c9d1d3" d="M 726.5,212.5 C 723.715,210.905 720.715,209.905 717.5,209.5C 717.719,208.325 717.386,207.325 716.5,206.5C 712.054,205.126 707.721,203.793 703.5,202.5C 703.586,201.504 703.252,200.671 702.5,200C 712.407,201.025 721.073,204.858 728.5,211.5C 728.043,212.298 727.376,212.631 726.5,212.5 Z"/></g>
<g><path style="opacity:1" fill="#81868d" d="M 699.5,199.5 C 700.833,200.5 702.167,201.5 703.5,202.5C 707.721,203.793 712.054,205.126 716.5,206.5C 717.386,207.325 717.719,208.325 717.5,209.5C 720.715,209.905 723.715,210.905 726.5,212.5C 739.176,223.222 744.009,236.889 741,253.5C 737.858,267.46 731.358,279.46 721.5,289.5C 721.631,288.624 721.298,287.957 720.5,287.5C 712.294,293.103 703.294,296.769 693.5,298.5C 681.629,297.726 670.296,294.893 659.5,290C 652.169,282.653 646.669,274.153 643,264.5C 642.903,260.234 642.737,256.068 642.5,252C 643.978,248.831 644.312,245.664 643.5,242.5C 644.181,237.927 645.181,233.427 646.5,229C 648.808,225.544 650.974,222.044 653,218.5C 660.884,213.805 668.718,208.972 676.5,204C 684.458,202.607 692.125,201.107 699.5,199.5 Z"/></g>
<g><path style="opacity:1" fill="#39426b" d="M 363.5,176.5 C 364.067,178.03 364.733,179.53 365.5,181C 367.833,181.333 370.167,181.667 372.5,182C 392.972,189.814 407.805,203.647 417,223.5C 425.898,252.407 420.064,277.907 399.5,300C 396.274,301.855 392.941,303.521 389.5,305C 388.257,306.154 387.257,307.488 386.5,309C 362.622,320.646 338.955,320.313 315.5,308C 301.854,300.526 292.854,289.36 288.5,274.5C 298.479,291.351 312.479,303.851 330.5,312C 337.167,312.833 343.833,313.667 350.5,314.5C 355.202,313.381 359.869,313.381 364.5,314.5C 373.602,311.905 381.935,307.738 389.5,302C 394.698,296.467 400.198,291.3 406,286.5C 413.103,273.756 416.936,260.089 417.5,245.5C 416.022,232.233 411.856,219.9 405,208.5C 396.441,199.806 386.608,192.973 375.5,188C 369.537,186.207 363.537,184.541 357.5,183C 359.385,180.77 360.885,178.27 362,175.5C 362.383,176.056 362.883,176.389 363.5,176.5 Z"/></g>
<g><path style="opacity:1" fill="#000b48" d="M 558.5,211.5 C 560.167,211.5 561.833,211.5 563.5,211.5C 563.5,214.167 563.5,216.833 563.5,219.5C 566.167,219.167 568.833,218.833 571.5,218.5C 571.739,220.467 571.406,222.301 570.5,224C 567.854,224.497 565.187,224.664 562.5,224.5C 562.167,227.833 561.833,231.167 561.5,234.5C 559.833,234.5 558.167,234.5 556.5,234.5C 556.508,231.455 556.841,228.455 557.5,225.5C 555.08,225.292 552.747,225.626 550.5,226.5C 546.968,225.842 545.968,224.008 547.5,221C 551.17,220.452 554.837,219.952 558.5,219.5C 558.5,216.833 558.5,214.167 558.5,211.5 Z"/></g>
<g><path style="opacity:1" fill="#496884" d="M 637.5,177.5 C 639.527,177.338 641.527,177.505 643.5,178C 645.063,179.736 646.73,181.236 648.5,182.5C 644.88,184.453 641.88,187.119 639.5,190.5C 637.83,193.002 635.664,195.002 633,196.5C 632.246,199.684 630.746,202.351 628.5,204.5C 625.611,207.256 623.444,210.589 622,214.5C 616.644,225.924 613.81,237.924 613.5,250.5C 613.5,251.5 613.5,252.5 613.5,253.5C 614.671,259.162 616.171,264.828 618,270.5C 622.942,284.39 629.942,297.057 639,308.5C 664.215,324.883 691.048,327.883 719.5,317.5C 719.587,322.537 719.254,327.537 718.5,332.5C 708.485,336.036 698.151,338.036 687.5,338.5C 651.006,336.517 625.506,318.851 611,285.5C 601.764,258.177 602.43,231.177 613,204.5C 619.737,194.761 628.071,186.761 638,180.5C 638.47,179.423 638.303,178.423 637.5,177.5 Z"/></g>
<g><path style="opacity:1" fill="#7f9ca1" d="M 628.5,204.5 C 621.636,219.314 616.636,234.648 613.5,250.5C 613.81,237.924 616.644,225.924 622,214.5C 623.444,210.589 625.611,207.256 628.5,204.5 Z"/></g>
<g><path style="opacity:1" fill="#7b7f89" d="M 699.5,199.5 C 692.125,201.107 684.458,202.607 676.5,204C 668.718,208.972 660.884,213.805 653,218.5C 650.974,222.044 648.808,225.544 646.5,229C 645.181,233.427 644.181,237.927 643.5,242.5C 644.312,245.664 643.978,248.831 642.5,252C 642.737,256.068 642.903,260.234 643,264.5C 646.669,274.153 652.169,282.653 659.5,290C 670.296,294.893 681.629,297.726 693.5,298.5C 703.294,296.769 712.294,293.103 720.5,287.5C 721.298,287.957 721.631,288.624 721.5,289.5C 717.999,293.153 713.999,296.32 709.5,299C 699.887,301.386 690.221,302.22 680.5,301.5C 671.183,300.677 662.85,297.343 655.5,291.5C 652.404,286.485 648.737,282.152 644.5,278.5C 631.712,251.172 636.045,227.005 657.5,206C 665.476,200.841 674.143,197.674 683.5,196.5C 689.093,196.431 694.426,197.431 699.5,199.5 Z"/></g>
<g><path style="opacity:1" fill="#8e9398" d="M 686.5,206.5 C 689.85,206.335 693.183,206.502 696.5,207C 699.957,208.743 703.623,209.743 707.5,210C 733.021,227.795 738.355,250.628 723.5,278.5C 718.107,286.041 710.773,290.541 701.5,292C 693.5,292.667 685.5,292.667 677.5,292C 672.38,289.223 667.047,286.89 661.5,285C 653.809,277.786 649.143,268.953 647.5,258.5C 649.397,250.06 650.564,241.727 651,233.5C 652.717,227.842 655.883,223.175 660.5,219.5C 668.479,213.51 677.146,209.177 686.5,206.5 Z"/></g>
<g><path style="opacity:1" fill="#9ba2a4" d="M 684.5,209.5 C 704.787,209.67 718.621,219.003 726,237.5C 731.151,280.513 712.651,296.846 670.5,286.5C 663.159,280.992 656.659,274.658 651,267.5C 649.532,254.573 650.865,241.906 655,229.5C 662.464,219.196 672.298,212.529 684.5,209.5 Z"/></g>
<g><path style="opacity:1" fill="#bcc3bd" d="M 713.5,227.5 C 716.274,230.713 718.274,234.38 719.5,238.5C 716.214,237.793 712.881,237.46 709.5,237.5C 709.833,234.5 708.5,233.167 705.5,233.5C 705.5,233.167 705.5,232.833 705.5,232.5C 707.254,229.443 709.921,227.776 713.5,227.5 Z"/></g>
<g><path style="opacity:1" fill="#d9ebe6" d="M 705.5,233.5 C 708.5,233.167 709.833,234.5 709.5,237.5C 712.881,237.46 716.214,237.793 719.5,238.5C 720.833,238.5 722.167,238.5 723.5,238.5C 723.5,239.833 723.5,241.167 723.5,242.5C 722.167,242.5 720.833,242.5 719.5,242.5C 715.574,242.232 711.907,243.065 708.5,245C 710.5,245.333 712.5,245.667 714.5,246C 715.337,247.011 715.67,248.178 715.5,249.5C 712.833,249.5 710.167,249.5 707.5,249.5C 708.109,243.767 706.776,238.6 703.5,234C 704.094,233.536 704.761,233.369 705.5,233.5 Z"/></g>
<g><path style="opacity:1" fill="#ecf5e1" d="M 705.5,232.5 C 705.5,232.833 705.5,233.167 705.5,233.5C 704.761,233.369 704.094,233.536 703.5,234C 706.776,238.6 708.109,243.767 707.5,249.5C 707.062,249.435 706.728,249.601 706.5,250C 707.833,250.667 709.167,251.333 710.5,252C 708.893,253.049 708.227,254.549 708.5,256.5C 706.901,256.232 705.568,256.566 704.5,257.5C 704.631,258.239 704.464,258.906 704,259.5C 699.507,262.993 695.341,266.827 691.5,271C 687.957,270.602 684.457,269.769 681,268.5C 679.657,264.49 677.491,260.99 674.5,258C 674.982,256.992 675.148,255.825 675,254.5C 676.074,253.382 677.24,252.382 678.5,251.5C 677.167,249.833 677.167,248.167 678.5,246.5C 676.902,244.119 674.568,242.952 671.5,243C 674.398,241.307 675.064,238.974 673.5,236C 674.811,232.688 677.145,230.521 680.5,229.5C 681.246,228.264 681.579,226.93 681.5,225.5C 687.822,226.014 694.155,226.347 700.5,226.5C 700.64,228.124 699.973,229.29 698.5,230C 700.65,231.411 702.984,232.245 705.5,232.5 Z"/></g>
<g><path style="opacity:1" fill="#f7fad8" d="M 690.5,229.5 C 692.857,229.337 695.19,229.503 697.5,230C 696.167,230.333 694.833,230.667 693.5,231C 695.592,231.953 695.925,233.286 694.5,235C 702.627,237.4 704.96,242.4 701.5,250C 702.451,250.718 702.617,251.551 702,252.5C 699.843,255.656 697.343,258.489 694.5,261C 695.517,262.049 695.684,263.216 695,264.5C 690.397,267.12 686.23,266.453 682.5,262.5C 682.709,261.914 683.043,261.414 683.5,261C 681.741,259.992 680.574,258.492 680,256.5C 679.219,251.446 679.386,246.446 680.5,241.5C 678.312,239.245 678.646,237.078 681.5,235C 684.898,233.643 687.898,231.81 690.5,229.5 Z"/></g>
<g><path style="opacity:1" fill="#b2bbbd" d="M 713.5,223.5 C 700.949,221.312 688.282,220.312 675.5,220.5C 675.833,223.5 674.5,224.833 671.5,224.5C 671.548,227.635 673.215,229.302 676.5,229.5C 671.155,230.836 665.821,232.17 660.5,233.5C 665.256,223.5 672.923,216.667 683.5,213C 695.652,210.66 705.652,214.16 713.5,223.5 Z"/></g>
<g><path style="opacity:1" fill="#c4cecb" d="M 660.5,236.5 C 661.901,236.971 663.234,237.638 664.5,238.5C 661.532,242.216 662.532,243.883 667.5,243.5C 667.261,245.467 667.594,247.301 668.5,249C 666.866,249.494 665.199,249.66 663.5,249.5C 663.5,250.833 663.5,252.167 663.5,253.5C 665.857,253.337 668.19,253.503 670.5,254C 667.937,255.079 665.271,255.579 662.5,255.5C 662.5,256.833 662.5,258.167 662.5,259.5C 664.527,259.338 666.527,259.505 668.5,260C 667.978,260.561 667.645,261.228 667.5,262C 669.429,263.694 670.429,265.861 670.5,268.5C 667.246,268.207 664.246,268.874 661.5,270.5C 657.88,259.282 657.547,247.949 660.5,236.5 Z"/></g>
<g><path style="opacity:1" fill="#daece8" d="M 713.5,223.5 C 713.5,224.833 713.5,226.167 713.5,227.5C 709.921,227.776 707.254,229.443 705.5,232.5C 702.984,232.245 700.65,231.411 698.5,230C 699.973,229.29 700.64,228.124 700.5,226.5C 694.155,226.347 687.822,226.014 681.5,225.5C 681.579,226.93 681.246,228.264 680.5,229.5C 677.145,230.521 674.811,232.688 673.5,236C 675.064,238.974 674.398,241.307 671.5,243C 674.568,242.952 676.902,244.119 678.5,246.5C 677.167,248.167 677.167,249.833 678.5,251.5C 677.24,252.382 676.074,253.382 675,254.5C 675.148,255.825 674.982,256.992 674.5,258C 677.491,260.99 679.657,264.49 681,268.5C 684.457,269.769 687.957,270.602 691.5,271C 695.341,266.827 699.507,262.993 704,259.5C 704.464,258.906 704.631,258.239 704.5,257.5C 708.241,256.599 710.241,257.932 710.5,261.5C 708.833,261.5 707.167,261.5 705.5,261.5C 704.651,264.036 703.651,266.536 702.5,269C 700.167,269.333 697.833,269.667 695.5,270C 699.5,270.333 703.5,270.667 707.5,271C 709.845,271.236 711.845,272.07 713.5,273.5C 714.234,274.708 714.567,276.041 714.5,277.5C 699.167,277.5 683.833,277.5 668.5,277.5C 668.5,276.167 668.5,274.833 668.5,273.5C 666.473,273.662 664.473,273.495 662.5,273C 661.748,272.329 661.414,271.496 661.5,270.5C 664.246,268.874 667.246,268.207 670.5,268.5C 670.429,265.861 669.429,263.694 667.5,262C 667.645,261.228 667.978,260.561 668.5,260C 666.527,259.505 664.527,259.338 662.5,259.5C 662.5,258.167 662.5,256.833 662.5,255.5C 665.271,255.579 667.937,255.079 670.5,254C 668.19,253.503 665.857,253.337 663.5,253.5C 663.5,252.167 663.5,250.833 663.5,249.5C 665.199,249.66 666.866,249.494 668.5,249C 667.594,247.301 667.261,245.467 667.5,243.5C 662.532,243.883 661.532,242.216 664.5,238.5C 663.234,237.638 661.901,236.971 660.5,236.5C 660.5,235.5 660.5,234.5 660.5,233.5C 665.821,232.17 671.155,230.836 676.5,229.5C 673.215,229.302 671.548,227.635 671.5,224.5C 674.5,224.833 675.833,223.5 675.5,220.5C 688.282,220.312 700.949,221.312 713.5,223.5 Z"/></g>
<g><path style="opacity:1" fill="#3f476d" d="M 363.5,172.5 C 363.5,173.833 363.5,175.167 363.5,176.5C 362.883,176.389 362.383,176.056 362,175.5C 360.885,178.27 359.385,180.77 357.5,183C 363.537,184.541 369.537,186.207 375.5,188C 386.608,192.973 396.441,199.806 405,208.5C 411.856,219.9 416.022,232.233 417.5,245.5C 416.936,260.089 413.103,273.756 406,286.5C 400.198,291.3 394.698,296.467 389.5,302C 381.935,307.738 373.602,311.905 364.5,314.5C 359.869,313.381 355.202,313.381 350.5,314.5C 343.833,313.667 337.167,312.833 330.5,312C 312.479,303.851 298.479,291.351 288.5,274.5C 277.148,248.165 280.815,223.999 299.5,202C 296.12,201.661 292.787,201.161 289.5,200.5C 291.214,199.262 293.214,198.595 295.5,198.5C 299.188,198.45 302.855,198.116 306.5,197.5C 308.634,197.515 310.634,198.015 312.5,199C 305.271,204.23 299.438,210.73 295,218.5C 283.328,243.127 285.328,266.46 301,288.5C 307.478,293.639 313.978,298.806 320.5,304C 341.009,312.99 361.343,312.657 381.5,303C 382.756,302.583 383.423,301.75 383.5,300.5C 390.42,296.573 396.753,291.907 402.5,286.5C 422.939,247.754 414.939,216.254 378.5,192C 373.775,188.886 368.608,187.052 363,186.5C 358.671,187.704 354.505,187.204 350.5,185C 351.821,182.996 354.154,181.496 357.5,180.5C 359.854,178.754 360.854,176.421 360.5,173.5C 360.833,173.5 361.167,173.5 361.5,173.5C 362.167,173.167 362.833,172.833 363.5,172.5 Z"/></g>
<g><path style="opacity:1" fill="#bec0c5" d="M 399.5,254.5 C 398.833,258.167 398.167,261.833 397.5,265.5C 396.5,265.5 395.5,265.5 394.5,265.5C 395.016,262.101 395.85,258.768 397,255.5C 397.753,250.625 397.586,245.792 396.5,241C 397.01,239.174 397.844,239.007 399,240.5C 399.499,245.155 399.666,249.821 399.5,254.5 Z"/></g>
<g><path style="opacity:1" fill="#8b9096" d="M 399.5,254.5 C 399.666,249.821 399.499,245.155 399,240.5C 397.844,239.007 397.01,239.174 396.5,241C 397.586,245.792 397.753,250.625 397,255.5C 395.85,258.768 395.016,262.101 394.5,265.5C 395.5,265.5 396.5,265.5 397.5,265.5C 397.5,266.167 397.167,266.5 396.5,266.5C 391.996,267.11 389.496,269.777 389,274.5C 376.143,292.671 358.977,299.171 337.5,294C 331.933,293.361 326.933,291.361 322.5,288C 316.69,282.521 311.19,276.688 306,270.5C 301.197,258.197 300.864,245.864 305,233.5C 309.445,224.259 313.945,215.592 318.5,207.5C 321.248,205.399 324.248,203.566 327.5,202C 326.552,201.517 325.552,201.351 324.5,201.5C 345.388,196.091 365.388,197.924 384.5,207C 396.508,220.846 401.508,236.68 399.5,254.5 Z"/></g>
<g><path style="opacity:1" fill="#848890" d="M 318.5,207.5 C 313.945,215.592 309.445,224.259 305,233.5C 300.864,245.864 301.197,258.197 306,270.5C 311.19,276.688 316.69,282.521 322.5,288C 326.933,291.361 331.933,293.361 337.5,294C 358.977,299.171 376.143,292.671 389,274.5C 389.496,269.777 391.996,267.11 396.5,266.5C 395.291,270.297 393.791,273.964 392,277.5C 370.609,298.985 345.775,303.985 317.5,292.5C 311.912,289.113 306.745,285.113 302,280.5C 294.408,267.211 291.408,252.878 293,237.5C 293.751,232.789 295.251,228.456 297.5,224.5C 297.393,226.379 297.893,226.712 299,225.5C 302.509,216.154 309.009,210.154 318.5,207.5 Z"/></g>
<g><path style="opacity:1" fill="#979c9f" d="M 336.5,202.5 C 349.578,201.473 361.578,204.473 372.5,211.5C 374.027,213.193 375.36,215.027 376.5,217C 378.329,217.273 379.829,218.107 381,219.5C 382.944,223.11 385.277,226.443 388,229.5C 389.298,236.733 390.798,243.899 392.5,251C 391.698,260.665 388.531,269.499 383,277.5C 377.89,284.286 371.39,289.12 363.5,292C 338.224,297.367 319.391,288.867 307,266.5C 302.383,245.006 307.216,225.839 321.5,209C 326.29,206.133 331.29,203.967 336.5,202.5 Z"/></g>
<g><path style="opacity:1" fill="#a1a8a9" d="M 336.5,206.5 C 359.592,204.106 375.092,213.773 383,235.5C 388.83,256.34 383.33,273.173 366.5,286C 345.447,293.779 327.613,289.279 313,272.5C 305.561,249.942 309.395,229.608 324.5,211.5C 328.27,209.028 332.27,207.362 336.5,206.5 Z"/></g>
<g><path style="opacity:1" fill="#b2b9b8" d="M 322.5,216.5 C 322.5,218.5 323.5,219.5 325.5,219.5C 324.011,221.805 322.511,224.138 321,226.5C 320.688,230.914 319.522,235.08 317.5,239C 312.868,255.435 317.201,268.768 330.5,279C 338.125,282.315 346.125,283.315 354.5,282C 376.069,265.546 379.735,245.713 365.5,222.5C 366.126,218.625 364.459,216.791 360.5,217C 348.214,215.63 335.88,215.13 323.5,215.5C 323.953,214.542 324.619,213.708 325.5,213C 347.752,203.862 364.918,209.695 377,230.5C 384.795,249.355 381.628,266.021 367.5,280.5C 361.667,285.077 355.001,287.41 347.5,287.5C 333.208,285.123 322.042,278.123 314,266.5C 311.462,252.577 312.462,238.91 317,225.5C 318.872,222.404 320.705,219.404 322.5,216.5 Z"/></g>
<g><path style="opacity:1" fill="#c6cdc8" d="M 325.5,219.5 C 330.145,218.669 331.145,219.836 328.5,223C 325.553,223.112 324.22,224.612 324.5,227.5C 325.978,227.238 327.311,227.571 328.5,228.5C 327.333,230.833 326.167,233.167 325,235.5C 323.333,236.167 321.667,236.833 320,237.5C 319.517,238.448 319.351,239.448 319.5,240.5C 320.833,240.5 322.167,240.5 323.5,240.5C 323.76,246.172 324.093,251.839 324.5,257.5C 317.163,258.751 316.83,260.417 323.5,262.5C 325.127,266.688 327.96,270.022 332,272.5C 331.49,274.38 331.657,276.213 332.5,278C 340.852,278.622 349.186,278.455 357.5,277.5C 359.575,274.983 360.909,271.983 361.5,268.5C 361.182,267.353 360.516,266.519 359.5,266C 361.394,264.921 361.727,263.587 360.5,262C 365.437,261.941 366.437,260.108 363.5,256.5C 365.766,255.686 368.1,255.186 370.5,255C 371.833,253.667 371.833,252.333 370.5,251C 367.471,250.461 364.471,249.794 361.5,249C 362.12,246.527 362.786,244.027 363.5,241.5C 364.736,240.754 366.07,240.421 367.5,240.5C 367.396,234.022 365.396,228.189 361.5,223C 362.793,222.51 364.127,222.343 365.5,222.5C 379.735,245.713 376.069,265.546 354.5,282C 346.125,283.315 338.125,282.315 330.5,279C 317.201,268.768 312.868,255.435 317.5,239C 319.522,235.08 320.688,230.914 321,226.5C 322.511,224.138 324.011,221.805 325.5,219.5 Z"/></g>
<g><path style="opacity:1" fill="#e0ece4" d="M 323.5,215.5 C 335.88,215.13 348.214,215.63 360.5,217C 364.459,216.791 366.126,218.625 365.5,222.5C 364.127,222.343 362.793,222.51 361.5,223C 365.396,228.189 367.396,234.022 367.5,240.5C 366.07,240.421 364.736,240.754 363.5,241.5C 362.786,244.027 362.12,246.527 361.5,249C 364.471,249.794 367.471,250.461 370.5,251C 371.833,252.333 371.833,253.667 370.5,255C 368.1,255.186 365.766,255.686 363.5,256.5C 366.437,260.108 365.437,261.941 360.5,262C 361.727,263.587 361.394,264.921 359.5,266C 360.516,266.519 361.182,267.353 361.5,268.5C 360.909,271.983 359.575,274.983 357.5,277.5C 349.186,278.455 340.852,278.622 332.5,278C 331.657,276.213 331.49,274.38 332,272.5C 327.96,270.022 325.127,266.688 323.5,262.5C 316.83,260.417 317.163,258.751 324.5,257.5C 324.093,251.839 323.76,246.172 323.5,240.5C 322.167,240.5 320.833,240.5 319.5,240.5C 319.351,239.448 319.517,238.448 320,237.5C 321.667,236.833 323.333,236.167 325,235.5C 326.167,233.167 327.333,230.833 328.5,228.5C 327.311,227.571 325.978,227.238 324.5,227.5C 324.22,224.612 325.553,223.112 328.5,223C 331.145,219.836 330.145,218.669 325.5,219.5C 323.5,219.5 322.5,218.5 322.5,216.5C 322.5,215.833 322.833,215.5 323.5,215.5 Z"/></g>
<g><path style="opacity:1" fill="#f8fbdf" d="M 360.5,250.5 C 361.954,252.263 361.62,253.597 359.5,254.5C 358.5,254.5 357.5,254.5 356.5,254.5C 356.66,256.199 356.494,257.866 356,259.5C 354.214,262.08 352.714,264.747 351.5,267.5C 346.396,268.227 343.396,266.061 342.5,261C 340.167,260.667 337.833,260.333 335.5,260C 334.253,258.542 334.253,257.042 335.5,255.5C 334.829,253.493 333.829,251.66 332.5,250C 332.905,249.055 333.572,248.388 334.5,248C 333.803,245.291 333.47,242.624 333.5,240C 335.424,235.48 338.09,231.48 341.5,228C 340.643,227.311 339.977,226.478 339.5,225.5C 342.398,223.716 345.398,223.382 348.5,224.5C 353.513,232.017 356.346,240.351 357,249.5C 358.011,250.337 359.178,250.67 360.5,250.5 Z"/></g>
<g><path style="opacity:1" fill="#eff7e3" d="M 360.5,250.5 C 359.178,250.67 358.011,250.337 357,249.5C 356.346,240.351 353.513,232.017 348.5,224.5C 345.398,223.382 342.398,223.716 339.5,225.5C 339.977,226.478 340.643,227.311 341.5,228C 338.09,231.48 335.424,235.48 333.5,240C 333.47,242.624 333.803,245.291 334.5,248C 333.572,248.388 332.905,249.055 332.5,250C 333.829,251.66 334.829,253.493 335.5,255.5C 334.253,257.042 334.253,258.542 335.5,260C 337.833,260.333 340.167,260.667 342.5,261C 343.396,266.061 346.396,268.227 351.5,267.5C 352.714,264.747 354.214,262.08 356,259.5C 356.494,257.866 356.66,256.199 356.5,254.5C 357.5,254.5 358.5,254.5 359.5,254.5C 359.84,258.131 359.006,261.464 357,264.5C 354.318,266.903 351.818,269.403 349.5,272C 339.173,271.675 332.173,266.675 328.5,257C 329.296,255.908 329.963,254.741 330.5,253.5C 330.105,249.982 329.105,246.649 327.5,243.5C 327.818,242.353 328.484,241.519 329.5,241C 327.213,239.573 326.88,237.739 328.5,235.5C 329.325,234.614 330.325,234.281 331.5,234.5C 331.298,232.011 331.798,229.677 333,227.5C 338.339,220.873 344.839,219.373 352.5,223C 355.967,230.398 358.634,237.565 360.5,244.5C 359.647,246.403 359.647,248.403 360.5,250.5 Z"/></g>
<g><path style="opacity:1" fill="#cfd0d5" d="M 324.5,201.5 C 325.552,201.351 326.552,201.517 327.5,202C 324.248,203.566 321.248,205.399 318.5,207.5C 309.009,210.154 302.509,216.154 299,225.5C 297.893,226.712 297.393,226.379 297.5,224.5C 300.392,214.381 306.725,207.381 316.5,203.5C 319.067,202.525 321.733,201.858 324.5,201.5 Z"/></g>
<g><path style="opacity:1" fill="#e2eef8" d="M 267.5,285.5 C 267.5,286.5 267.5,287.5 267.5,288.5C 267.666,292.514 267.499,296.514 267,300.5C 265.989,301.337 264.822,301.67 263.5,301.5C 263.971,294.528 263.305,287.694 261.5,281C 262.781,277.956 265.115,276.79 268.5,277.5C 268.045,279.367 267.378,281.2 266.5,283C 266.528,284.07 266.861,284.903 267.5,285.5 Z"/></g>
<g><path style="opacity:1" fill="#aab1b1" d="M 660.5,233.5 C 660.5,234.5 660.5,235.5 660.5,236.5C 657.547,247.949 657.88,259.282 661.5,270.5C 661.414,271.496 661.748,272.329 662.5,273C 664.473,273.495 666.473,273.662 668.5,273.5C 668.5,274.833 668.5,276.167 668.5,277.5C 683.833,277.5 699.167,277.5 714.5,277.5C 714.567,276.041 714.234,274.708 713.5,273.5C 717.788,263.679 719.788,253.345 719.5,242.5C 720.833,242.5 722.167,242.5 723.5,242.5C 724.431,251.607 723.597,260.607 721,269.5C 717.168,279.184 710.001,284.684 699.5,286C 688.446,288.177 677.779,287.177 667.5,283C 664.667,279.5 661.833,276 659,272.5C 655.681,263.846 654.681,254.846 656,245.5C 656.905,241.163 658.405,237.163 660.5,233.5 Z"/></g>
<g><path style="opacity:1" fill="#c0cac6" d="M 719.5,242.5 C 719.788,253.345 717.788,263.679 713.5,273.5C 711.845,272.07 709.845,271.236 707.5,271C 703.5,270.667 699.5,270.333 695.5,270C 697.833,269.667 700.167,269.333 702.5,269C 703.651,266.536 704.651,264.036 705.5,261.5C 707.167,261.5 708.833,261.5 710.5,261.5C 710.241,257.932 708.241,256.599 704.5,257.5C 705.568,256.566 706.901,256.232 708.5,256.5C 708.227,254.549 708.893,253.049 710.5,252C 709.167,251.333 707.833,250.667 706.5,250C 706.728,249.601 707.062,249.435 707.5,249.5C 710.167,249.5 712.833,249.5 715.5,249.5C 715.67,248.178 715.337,247.011 714.5,246C 712.5,245.667 710.5,245.333 708.5,245C 711.907,243.065 715.574,242.232 719.5,242.5 Z"/></g>
<g><path style="opacity:0.908" fill="#e3eef9" d="M 251.5,316.5 C 249.824,315.817 249.157,314.483 249.5,312.5C 248.864,305.989 248.864,299.655 249.5,293.5C 251.993,292.226 254.659,291.56 257.5,291.5C 257.5,292.833 257.5,294.167 257.5,295.5C 255.856,295.286 254.356,295.62 253,296.5C 252.86,299.981 253.027,303.481 253.5,307C 253.003,310.241 252.336,313.408 251.5,316.5 Z"/></g>
<g><path style="opacity:1" fill="#d5dde2" d="M 402.5,286.5 C 396.753,291.907 390.42,296.573 383.5,300.5C 378.129,303.291 372.462,305.291 366.5,306.5C 364.535,306.052 364.202,305.052 365.5,303.5C 370.748,301.868 375.748,299.868 380.5,297.5C 387.461,294.348 393.794,290.182 399.5,285C 401.157,284.275 402.157,284.775 402.5,286.5 Z"/></g>
<g><path style="opacity:1" fill="#dbe6e6" d="M 734.5,287.5 C 735.978,287.238 737.311,287.571 738.5,288.5C 730.82,297.865 721.487,304.865 710.5,309.5C 710.33,308.178 710.663,307.011 711.5,306C 720.222,301.108 727.889,294.941 734.5,287.5 Z"/></g>
<g><path style="opacity:0.995" fill="#cfd8d8" d="M 644.5,278.5 C 648.737,282.152 652.404,286.485 655.5,291.5C 662.85,297.343 671.183,300.677 680.5,301.5C 681.718,302.161 683.051,302.828 684.5,303.5C 679.832,304.503 675.165,304.337 670.5,303C 664.954,300.06 659.287,297.394 653.5,295C 649.559,290.901 646.226,286.401 643.5,281.5C 644.127,280.583 644.461,279.583 644.5,278.5 Z"/></g>
<g><path style="opacity:1" fill="#e2eaeb" d="M 350.5,308.5 C 348.99,309.728 347.49,309.728 346,308.5C 345.415,307.002 345.915,306.002 347.5,305.5C 349.854,304.506 350.854,305.506 350.5,308.5 Z"/></g>
<g><path style="opacity:1" fill="#30506e" d="M 275.5,282.5 C 277.737,286.746 280.403,290.746 283.5,294.5C 282.903,294.735 282.57,295.235 282.5,296C 284.715,318.551 287.381,341.051 290.5,363.5C 286.176,363.927 281.842,364.261 277.5,364.5C 274.479,338.99 271.145,313.656 267.5,288.5C 267.5,287.5 267.5,286.5 267.5,285.5C 269.857,283.902 272.523,282.902 275.5,282.5 Z"/></g>
<g><path style="opacity:0.963" fill="#577798" d="M 271.5,276.5 C 273.316,278.118 274.649,280.118 275.5,282.5C 272.523,282.902 269.857,283.902 267.5,285.5C 266.861,284.903 266.528,284.07 266.5,283C 267.378,281.2 268.045,279.367 268.5,277.5C 265.115,276.79 262.781,277.956 261.5,281C 263.305,287.694 263.971,294.528 263.5,301.5C 264.822,301.67 265.989,301.337 267,300.5C 267.499,296.514 267.666,292.514 267.5,288.5C 271.145,313.656 274.479,338.99 277.5,364.5C 281.842,364.261 286.176,363.927 290.5,363.5C 287.381,341.051 284.715,318.551 282.5,296C 282.57,295.235 282.903,294.735 283.5,294.5C 285.833,296.167 287.833,298.167 289.5,300.5C 289.5,301.5 289.5,302.5 289.5,303.5C 289.833,306.167 290.167,308.833 290.5,311.5C 291.114,315.135 291.448,318.802 291.5,322.5C 292.763,331.87 294.096,341.204 295.5,350.5C 294.975,355.413 296.142,359.747 299,363.5C 300.09,371.48 300.924,379.48 301.5,387.5C 307.795,387.312 313.961,386.312 320,384.5C 322.309,387.481 324.642,390.481 327,393.5C 328.009,391.975 328.509,390.308 328.5,388.5C 331.769,388.116 334.603,386.782 337,384.5C 336.577,386.903 336.744,389.237 337.5,391.5C 331.358,389.773 328.025,392.273 327.5,399C 328.054,400.551 328.72,402.051 329.5,403.5C 328.731,406.115 328.397,408.781 328.5,411.5C 329.5,411.5 330.5,411.5 331.5,411.5C 331.043,413.747 330.043,415.747 328.5,417.5C 323.365,420.123 318.032,421.123 312.5,420.5C 311.248,416.322 309.248,412.655 306.5,409.5C 307.5,409.5 308.5,409.5 309.5,409.5C 308.628,403.029 306.128,397.362 302,392.5C 301.5,392.833 301,393.167 300.5,393.5C 300.379,404.751 300.379,416.084 300.5,427.5C 297.774,408.687 295.44,389.687 293.5,370.5C 286.142,370.418 278.809,370.752 271.5,371.5C 270.514,367.557 269.848,363.557 269.5,359.5C 264.333,359.227 259.333,359.227 254.5,359.5C 253.496,347.298 252.163,335.132 250.5,323C 251.287,320.901 251.62,318.734 251.5,316.5C 252.336,313.408 253.003,310.241 253.5,307C 253.027,303.481 252.86,299.981 253,296.5C 254.356,295.62 255.856,295.286 257.5,295.5C 257.5,294.167 257.5,292.833 257.5,291.5C 254.659,291.56 251.993,292.226 249.5,293.5C 249.5,292.5 249.5,291.5 249.5,290.5C 253.167,290.5 256.833,290.5 260.5,290.5C 260.261,286.158 259.927,281.824 259.5,277.5C 263.452,276.728 267.452,276.395 271.5,276.5 Z"/></g>
<g><path style="opacity:1" fill="#567797" d="M 582.5,43.5 C 583.404,44.209 583.737,45.209 583.5,46.5C 589.8,47.9918 596.134,49.3251 602.5,50.5C 602.5,59.5 602.5,68.5 602.5,77.5C 603.959,77.5674 605.292,77.2341 606.5,76.5C 604.43,116.163 602.43,155.83 600.5,195.5C 598.354,227.132 596.687,258.798 595.5,290.5C 592.742,327.745 590.908,365.078 590,402.5C 592.655,398.177 595.488,394.011 598.5,390C 599.5,389.5 600.5,389 601.5,388.5C 604.421,389.407 607.421,389.74 610.5,389.5C 609.468,392.405 607.468,394.238 604.5,395C 606.439,395.908 607.439,397.408 607.5,399.5C 606.596,400.209 606.263,401.209 606.5,402.5C 604.837,400.507 603.67,398.174 603,395.5C 601.989,394.663 600.822,394.33 599.5,394.5C 599.674,396.861 600.007,399.194 600.5,401.5C 601.665,402.496 602.332,403.829 602.5,405.5C 601.307,408.719 599.974,411.886 598.5,415C 598.639,416.301 599.305,417.134 600.5,417.5C 600.753,419.827 600.086,421.827 598.5,423.5C 583.615,421.254 568.615,420.087 553.5,420C 552.584,419.626 551.75,419.126 551,418.5C 546.21,409.75 541.043,401.25 535.5,393C 531.541,393.158 527.541,393.325 523.5,393.5C 525.265,392.539 527.265,392.205 529.5,392.5C 529.5,391.167 529.5,389.833 529.5,388.5C 522.763,389.514 516.096,390.014 509.5,390C 505.288,396.253 502.622,403.086 501.5,410.5C 502.5,410.5 503.5,410.5 504.5,410.5C 503.223,412.148 502.223,413.982 501.5,416C 486.458,416.734 471.458,417.901 456.5,419.5C 453.859,417.196 451.192,414.862 448.5,412.5C 443.687,406.519 438.687,400.686 433.5,395C 426.508,394.5 419.508,394.334 412.5,394.5C 412.611,393.883 412.944,393.383 413.5,393C 419.853,392.513 426.186,391.847 432.5,391C 433.337,389.989 433.67,388.822 433.5,387.5C 435.017,387.511 436.184,388.177 437,389.5C 443.639,397.973 450.806,405.973 458.5,413.5C 471.002,412.305 483.502,410.972 496,409.5C 500.834,402.83 504.334,395.497 506.5,387.5C 517.893,387.323 529.227,387.323 540.5,387.5C 544.913,395.995 549.58,404.328 554.5,412.5C 563.734,414.274 573.067,414.94 582.5,414.5C 589.35,295.189 595.516,175.855 601,56.5C 595.709,54.1332 590.209,52.2999 584.5,51C 552.109,44.8807 519.442,42.8807 486.5,45C 476.509,46.7779 466.509,48.1112 456.5,49C 457.416,48.7216 458.082,48.2216 458.5,47.5C 473.451,45.3406 488.451,43.5073 503.5,42C 503.957,41.586 504.291,41.086 504.5,40.5C 498.528,39.3364 492.528,39.1697 486.5,40C 473.461,42.1791 460.461,43.6791 447.5,44.5C 453.222,42.4028 459.222,40.9028 465.5,40C 492.002,36.4089 518.669,35.7422 545.5,38C 558.06,38.6535 570.393,40.4869 582.5,43.5 Z"/></g>
<g><path style="opacity:1" fill="#557697" d="M 552.5,320.5 C 563.626,318.388 571.459,322.721 576,333.5C 581.965,350.298 576.298,360.631 559,364.5C 539.894,362.664 532.894,352.331 538,333.5C 538.837,331.156 540.171,329.156 542,327.5C 542.399,327.728 542.565,328.062 542.5,328.5C 540.647,331.208 539.647,334.208 539.5,337.5C 541.175,341.529 542.009,345.863 542,350.5C 542.707,352.081 543.54,353.581 544.5,355C 549.403,356.373 554.236,357.873 559,359.5C 569.75,357.09 574.75,350.423 574,339.5C 572.486,334.971 570.319,330.805 567.5,327C 563.414,324.947 559.08,324.113 554.5,324.5C 554.843,322.517 554.176,321.183 552.5,320.5 Z"/></g>
<g><path style="opacity:1" fill="#dbe8f4" d="M 552.5,320.5 C 554.176,321.183 554.843,322.517 554.5,324.5C 550.549,324.718 549.882,326.051 552.5,328.5C 551.174,329.642 550.174,330.976 549.5,332.5C 548.508,332.328 547.842,332.662 547.5,333.5C 546.167,333.5 544.833,333.5 543.5,333.5C 543.833,336.5 542.5,337.833 539.5,337.5C 539.647,334.208 540.647,331.208 542.5,328.5C 544.918,324.755 548.251,322.088 552.5,320.5 Z"/></g>
<g><path style="opacity:1" fill="#2a4b6a" d="M 257.5,296.5 C 259.144,296.286 260.644,296.62 262,297.5C 262.628,308.502 263.294,319.502 264,330.5C 264.867,337.835 266.367,345.001 268.5,352C 265.901,352.769 263.401,352.602 261,351.5C 259.133,333.088 257.967,314.755 257.5,296.5 Z"/></g>
<g><path style="opacity:1" fill="#6b8a97" d="M 554.5,324.5 C 559.08,324.113 563.414,324.947 567.5,327C 570.319,330.805 572.486,334.971 574,339.5C 574.75,350.423 569.75,357.09 559,359.5C 554.236,357.873 549.403,356.373 544.5,355C 543.54,353.581 542.707,352.081 542,350.5C 542.009,345.863 541.175,341.529 539.5,337.5C 542.5,337.833 543.833,336.5 543.5,333.5C 544.833,333.5 546.167,333.5 547.5,333.5C 548.319,337.853 550.652,341.353 554.5,344C 551.588,345.858 550.088,348.358 550,351.5C 551.133,353.211 552.633,353.711 554.5,353C 556.564,346.282 559.231,345.949 562.5,352C 566.088,352.611 567.254,351.111 566,347.5C 560.732,344.189 560.732,340.522 566,336.5C 567.254,332.889 566.088,331.389 562.5,332C 560.998,334.544 559.164,336.71 557,338.5C 554.454,337.548 552.954,335.715 552.5,333C 551.552,332.517 550.552,332.351 549.5,332.5C 550.174,330.976 551.174,329.642 552.5,328.5C 549.882,326.051 550.549,324.718 554.5,324.5 Z"/></g>
<g><path style="opacity:1" fill="#385a7c" d="M 595.5,290.5 C 607.755,313.586 625.755,330.753 649.5,342C 670.39,352.345 692.39,356.179 715.5,353.5C 714.225,364.14 713.059,374.807 712,385.5C 711.471,390.688 710.304,395.688 708.5,400.5C 703.025,401.76 697.525,401.76 692,400.5C 690.077,401.492 688.244,402.659 686.5,404C 677.83,404.095 669.163,404.095 660.5,404C 657.047,409.121 653.214,413.954 649,418.5C 645.139,411.438 641.305,404.438 637.5,397.5C 634.742,395.299 632.076,392.299 629.5,388.5C 623.227,389.46 616.893,389.793 610.5,389.5C 607.421,389.74 604.421,389.407 601.5,388.5C 600.5,389 599.5,389.5 598.5,390C 595.488,394.011 592.655,398.177 590,402.5C 590.908,365.078 592.742,327.745 595.5,290.5 Z"/></g>
<g><path style="opacity:1" fill="#557697" d="M 547.5,333.5 C 547.842,332.662 548.508,332.328 549.5,332.5C 550.552,332.351 551.552,332.517 552.5,333C 552.954,335.715 554.454,337.548 557,338.5C 559.164,336.71 560.998,334.544 562.5,332C 566.088,331.389 567.254,332.889 566,336.5C 560.732,340.522 560.732,344.189 566,347.5C 567.254,351.111 566.088,352.611 562.5,352C 559.231,345.949 556.564,346.282 554.5,353C 552.633,353.711 551.133,353.211 550,351.5C 550.088,348.358 551.588,345.858 554.5,344C 550.652,341.353 548.319,337.853 547.5,333.5 Z"/></g>
<g><path style="opacity:0.961" fill="#557697" d="M 730.5,314.5 C 733.518,314.335 736.518,314.502 739.5,315C 740.406,316.699 740.739,318.533 740.5,320.5C 740.5,321.5 740.5,322.5 740.5,323.5C 743.5,323.5 746.5,323.5 749.5,323.5C 748.971,333.158 748.638,342.825 748.5,352.5C 747.447,360.062 747.447,367.562 748.5,375C 743.202,376.995 737.868,378.995 732.5,381C 731.663,382.011 731.33,383.178 731.5,384.5C 726.168,385.5 720.835,386.5 715.5,387.5C 713.92,393.925 713.587,400.092 714.5,406C 706.298,470.446 698.632,534.946 691.5,599.5C 668.815,602.002 646.148,604.669 623.5,607.5C 605.591,651.821 587.257,695.988 568.5,740C 568.957,740.414 569.291,740.914 569.5,741.5C 549.18,751.66 529.18,761.66 509.5,771.5C 484.279,763.595 458.779,756.595 433,750.5C 416.736,703.708 400.069,657.042 383,610.5C 381.951,608.616 380.451,607.282 378.5,606.5C 368.893,605.72 359.393,604.387 350,602.5C 348.893,602.585 347.893,602.919 347,603.5C 343.621,601.462 340.121,601.129 336.5,602.5C 334.852,601.073 332.852,600.24 330.5,600C 327.776,599.73 325.109,599.23 322.5,598.5C 321.833,598.833 321.167,599.167 320.5,599.5C 318.986,588.039 316.986,576.705 314.5,565.5C 313.5,552.161 312.5,538.828 311.5,525.5C 307.753,494.524 304.086,463.524 300.5,432.5C 301.833,432.5 303.167,432.5 304.5,432.5C 304.5,426.833 304.5,421.167 304.5,415.5C 311.855,474.356 318.855,533.356 325.5,592.5C 340.188,593.963 354.855,595.63 369.5,597.5C 367.932,542.518 367.099,487.518 367,432.5C 366.825,428.789 366.325,425.122 365.5,421.5C 364.28,422.711 363.113,422.711 362,421.5C 359.928,414.452 357.761,407.452 355.5,400.5C 357.903,400.448 360.236,400.781 362.5,401.5C 364.279,405.595 365.612,409.928 366.5,414.5C 370.5,414.833 374.5,415.167 378.5,415.5C 376.42,409.68 374.087,404.014 371.5,398.5C 371.33,397.178 371.663,396.011 372.5,395C 369.244,388.683 364.244,384.183 357.5,381.5C 357.833,381.167 358.167,380.833 358.5,380.5C 362.644,381.732 366.81,382.732 371,383.5C 374.97,393.438 379.47,403.104 384.5,412.5C 388.833,413.833 393.167,413.833 397.5,412.5C 399.53,408.439 401.53,404.439 403.5,400.5C 404.043,400.56 404.376,400.893 404.5,401.5C 402.945,403.943 402.278,406.61 402.5,409.5C 404.199,409.473 405.533,408.806 406.5,407.5C 405.268,411.695 403.935,415.862 402.5,420C 392.877,419.872 383.211,420.039 373.5,420.5C 373.505,480.074 374.171,539.574 375.5,599C 416.795,605.399 458.128,611.566 499.5,617.5C 561.165,609.417 622.832,601.417 684.5,593.5C 691.66,539.552 698.16,485.552 704,431.5C 702.56,434.335 700.727,434.835 698.5,433C 695.854,432.503 693.187,432.336 690.5,432.5C 690.71,425.778 690.21,419.112 689,412.5C 688,411.5 687,410.5 686,409.5C 682.525,413.104 679.525,417.104 677,421.5C 675.991,423.025 675.491,424.692 675.5,426.5C 665.84,427.259 656.174,427.426 646.5,427C 645.667,426.167 644.833,425.333 644,424.5C 641.803,417.773 638.803,411.439 635,405.5C 630.961,407.796 626.627,409.13 622,409.5C 616.946,409.124 611.779,408.124 606.5,406.5C 606.5,405.167 606.5,403.833 606.5,402.5C 612.167,402.5 617.833,402.5 623.5,402.5C 627.437,402.207 631.27,402.54 635,403.5C 636.559,401.783 637.392,399.783 637.5,397.5C 641.305,404.438 645.139,411.438 649,418.5C 653.214,413.954 657.047,409.121 660.5,404C 669.163,404.095 677.83,404.095 686.5,404C 688.244,402.659 690.077,401.492 692,400.5C 697.525,401.76 703.025,401.76 708.5,400.5C 710.304,395.688 711.471,390.688 712,385.5C 713.059,374.807 714.225,364.14 715.5,353.5C 716.37,346.483 717.37,339.483 718.5,332.5C 719.254,327.537 719.587,322.537 719.5,317.5C 722.762,315.12 726.429,314.12 730.5,314.5 Z"/></g>
<g><path style="opacity:1" fill="#2e4e6d" d="M 726.5,320.5 C 728.833,320.5 731.167,320.5 733.5,320.5C 732.028,339.891 730.028,359.224 727.5,378.5C 724.873,379.092 722.206,379.425 719.5,379.5C 721.185,359.714 723.518,340.047 726.5,320.5 Z"/></g>
<g><path style="opacity:1" fill="#2a4b6a" d="M 738.5,330.5 C 739.833,330.5 741.167,330.5 742.5,330.5C 742.311,344.171 741.978,357.838 741.5,371.5C 739.194,371.993 736.861,372.326 734.5,372.5C 735.439,358.444 736.772,344.444 738.5,330.5 Z"/></g>
<g><path style="opacity:1" fill="#849ea5" d="M 348.5,384.5 C 352.622,384.697 356.622,385.53 360.5,387C 359.672,387.915 358.672,388.581 357.5,389C 352.833,389.667 348.167,389.667 343.5,389C 343.167,388.667 342.833,388.333 342.5,388C 344.727,387.059 346.727,385.892 348.5,384.5 Z"/></g>
<g><path style="opacity:1" fill="#dde9f5" d="M 433.5,387.5 C 433.67,388.822 433.337,389.989 432.5,391C 426.186,391.847 419.853,392.513 413.5,393C 412.944,393.383 412.611,393.883 412.5,394.5C 409.727,398.385 407.727,402.718 406.5,407.5C 405.533,408.806 404.199,409.473 402.5,409.5C 402.278,406.61 402.945,403.943 404.5,401.5C 404.376,400.893 404.043,400.56 403.5,400.5C 403.351,399.448 403.517,398.448 404,397.5C 406.176,395.125 408.343,392.792 410.5,390.5C 418.036,388.646 425.702,387.646 433.5,387.5 Z"/></g>
<g><path style="opacity:1" fill="#ddeaf6" d="M 523.5,393.5 C 519.418,393.344 515.418,393.844 511.5,395C 508.679,399.969 506.346,405.136 504.5,410.5C 503.5,410.5 502.5,410.5 501.5,410.5C 502.622,403.086 505.288,396.253 509.5,390C 516.096,390.014 522.763,389.514 529.5,388.5C 529.5,389.833 529.5,391.167 529.5,392.5C 527.265,392.205 525.265,392.539 523.5,393.5 Z"/></g>
<g><path style="opacity:1" fill="#6c89a1" d="M 637.5,397.5 C 637.392,399.783 636.559,401.783 635,403.5C 631.27,402.54 627.437,402.207 623.5,402.5C 623.5,401.167 623.5,399.833 623.5,398.5C 618.073,398.218 612.74,398.551 607.5,399.5C 607.439,397.408 606.439,395.908 604.5,395C 607.468,394.238 609.468,392.405 610.5,389.5C 616.893,389.793 623.227,389.46 629.5,388.5C 632.076,392.299 634.742,395.299 637.5,397.5 Z"/></g>
<g><path style="opacity:1" fill="#294a6a" d="M 316.5,390.5 C 321.004,394.336 324.337,399.003 326.5,404.5C 325.936,406.819 325.436,409.153 325,411.5C 322.557,412.593 320.057,413.593 317.5,414.5C 313.369,407.503 309.369,400.336 305.5,393C 309.347,392.367 313.014,391.533 316.5,390.5 Z"/></g>
<g><path style="opacity:1" fill="#e1ecf5" d="M 337.5,391.5 C 343.599,391.376 349.599,392.043 355.5,393.5C 355.768,395.099 355.434,396.432 354.5,397.5C 348.277,395.566 341.944,395.232 335.5,396.5C 333.755,401.4 332.422,406.4 331.5,411.5C 330.5,411.5 329.5,411.5 328.5,411.5C 328.397,408.781 328.731,406.115 329.5,403.5C 328.72,402.051 328.054,400.551 327.5,399C 328.025,392.273 331.358,389.773 337.5,391.5 Z"/></g>
<g><path style="opacity:1" fill="#406283" d="M 600.5,417.5 C 602.738,414.028 604.738,410.362 606.5,406.5C 611.779,408.124 616.946,409.124 622,409.5C 626.627,409.13 630.961,407.796 635,405.5C 638.803,411.439 641.803,417.773 644,424.5C 644.833,425.333 645.667,426.167 646.5,427C 656.174,427.426 665.84,427.259 675.5,426.5C 675.491,424.692 675.991,423.025 677,421.5C 679.525,417.104 682.525,413.104 686,409.5C 687,410.5 688,411.5 689,412.5C 690.21,419.112 690.71,425.778 690.5,432.5C 693.187,432.336 695.854,432.503 698.5,433C 700.727,434.835 702.56,434.335 704,431.5C 698.16,485.552 691.66,539.552 684.5,593.5C 622.832,601.417 561.165,609.417 499.5,617.5C 458.128,611.566 416.795,605.399 375.5,599C 374.171,539.574 373.505,480.074 373.5,420.5C 383.211,420.039 392.877,419.872 402.5,420C 403.935,415.862 405.268,411.695 406.5,407.5C 407.727,402.718 409.727,398.385 412.5,394.5C 419.508,394.334 426.508,394.5 433.5,395C 438.687,400.686 443.687,406.519 448.5,412.5C 451.192,414.862 453.859,417.196 456.5,419.5C 471.458,417.901 486.458,416.734 501.5,416C 502.223,413.982 503.223,412.148 504.5,410.5C 506.346,405.136 508.679,399.969 511.5,395C 515.418,393.844 519.418,393.344 523.5,393.5C 527.541,393.325 531.541,393.158 535.5,393C 541.043,401.25 546.21,409.75 551,418.5C 551.75,419.126 552.584,419.626 553.5,420C 568.615,420.087 583.615,421.254 598.5,423.5C 600.086,421.827 600.753,419.827 600.5,417.5 Z"/></g>
<g><path style="opacity:1" fill="#d5e2f0" d="M 306.5,409.5 C 306.013,408.527 305.513,407.527 305,406.5C 304.502,409.482 304.335,412.482 304.5,415.5C 304.5,421.167 304.5,426.833 304.5,432.5C 303.167,432.5 301.833,432.5 300.5,432.5C 300.5,430.833 300.5,429.167 300.5,427.5C 300.379,416.084 300.379,404.751 300.5,393.5C 301,393.167 301.5,392.833 302,392.5C 306.128,397.362 308.628,403.029 309.5,409.5C 308.5,409.5 307.5,409.5 306.5,409.5 Z"/></g>
<g><path style="opacity:1" fill="#dde9f5" d="M 606.5,402.5 C 606.5,403.833 606.5,405.167 606.5,406.5C 604.738,410.362 602.738,414.028 600.5,417.5C 599.305,417.134 598.639,416.301 598.5,415C 599.974,411.886 601.307,408.719 602.5,405.5C 602.332,403.829 601.665,402.496 600.5,401.5C 600.007,399.194 599.674,396.861 599.5,394.5C 600.822,394.33 601.989,394.663 603,395.5C 603.67,398.174 604.837,400.507 606.5,402.5 Z"/></g>
<g><path style="opacity:1" fill="#294a6a" d="M 354.5,397.5 C 354.557,398.609 354.89,399.609 355.5,400.5C 357.761,407.452 359.928,414.452 362,421.5C 363.113,422.711 364.28,422.711 365.5,421.5C 366.325,425.122 366.825,428.789 367,432.5C 367.099,487.518 367.932,542.518 369.5,597.5C 354.855,595.63 340.188,593.963 325.5,592.5C 318.855,533.356 311.855,474.356 304.5,415.5C 304.335,412.482 304.502,409.482 305,406.5C 305.513,407.527 306.013,408.527 306.5,409.5C 309.248,412.655 311.248,416.322 312.5,420.5C 318.032,421.123 323.365,420.123 328.5,417.5C 330.043,415.747 331.043,413.747 331.5,411.5C 332.422,406.4 333.755,401.4 335.5,396.5C 341.944,395.232 348.277,395.566 354.5,397.5 Z"/></g>
<g><path style="opacity:1" fill="#e0ebf3" d="M 623.5,402.5 C 617.833,402.5 612.167,402.5 606.5,402.5C 606.263,401.209 606.596,400.209 607.5,399.5C 612.74,398.551 618.073,398.218 623.5,398.5C 623.5,399.833 623.5,401.167 623.5,402.5 Z"/></g>
<g><path style="opacity:1" fill="#294a6a" d="M 600.5,401.5 C 599.459,406.58 598.126,411.58 596.5,416.5C 593.753,416.813 591.086,416.48 588.5,415.5C 591.532,410.965 594.365,406.298 597,401.5C 598.145,400.316 599.312,400.316 600.5,401.5 Z"/></g>
<g><path style="opacity:1" fill="#2d4d6c" d="M 371.5,398.5 C 374.087,404.014 376.42,409.68 378.5,415.5C 374.5,415.167 370.5,414.833 366.5,414.5C 365.612,409.928 364.279,405.595 362.5,401.5C 360.277,396.676 361.777,393.676 367,392.5C 368.755,394.358 370.255,396.358 371.5,398.5 Z"/></g>
<g><path style="opacity:1" fill="#294a6a" d="M 692.5,406.5 C 696.833,406.5 701.167,406.5 705.5,406.5C 704.202,413.225 702.202,419.725 699.5,426C 698.207,426.49 696.873,426.657 695.5,426.5C 696.035,419.509 695.035,412.842 692.5,406.5 Z"/></g>
<g><path style="opacity:1" fill="#294a6a" d="M 664.5,408.5 C 668.851,408.969 673.184,409.636 677.5,410.5C 676.093,414.067 674.093,417.234 671.5,420C 665.833,420.667 660.167,420.667 654.5,420C 657.698,415.974 661.032,412.141 664.5,408.5 Z"/></g>
<g><path style="opacity:1" fill="#000b48" d="M 389.5,444.5 C 399.436,443.27 402.103,447.103 397.5,456C 392.097,458.88 388.43,457.38 386.5,451.5C 387.054,448.913 388.054,446.58 389.5,444.5 Z"/></g>
<g><path style="opacity:1" fill="#6a8a96" d="M 392.5,484.5 C 398.665,483.829 401.165,486.496 400,492.5C 396.433,497.796 392.766,497.796 389,492.5C 387.78,488.707 388.947,486.04 392.5,484.5 Z"/></g>
<g><path style="opacity:1" fill="#010b48" d="M 311.5,525.5 C 312.5,538.828 313.5,552.161 314.5,565.5C 308.027,568.372 303.86,573.372 302,580.5C 299.135,598.136 306.469,608.136 324,610.5C 329.973,610.442 334.14,607.775 336.5,602.5C 340.121,601.129 343.621,601.462 347,603.5C 347.893,602.919 348.893,602.585 350,602.5C 359.393,604.387 368.893,605.72 378.5,606.5C 377.159,614.354 374.159,621.521 369.5,628C 371.778,633.868 374.611,639.368 378,644.5C 378.667,646.167 378.667,647.833 378,649.5C 367.791,656.294 357.291,662.628 346.5,668.5C 345.328,668.081 344.328,667.415 343.5,666.5C 342.229,660.51 339.895,655.01 336.5,650C 329.833,649.333 323.167,649.333 316.5,650C 312.993,655.181 310.16,660.681 308,666.5C 307.044,667.894 305.711,668.561 304,668.5C 293.961,664.277 283.795,660.111 273.5,656C 271.653,653.421 271.153,650.588 272,647.5C 275.055,642.058 277.555,636.392 279.5,630.5C 274.883,625.901 271.55,620.568 269.5,614.5C 262.174,615.669 254.841,616.502 247.5,617C 245.879,614.834 245.045,612.334 245,609.5C 244.894,600.476 243.727,591.643 241.5,583C 242.376,581.415 243.709,580.415 245.5,580C 251.494,579.056 257.494,578.223 263.5,577.5C 264.534,569.899 266.867,562.732 270.5,556C 266.378,550.209 261.878,544.709 257,539.5C 256.333,537.833 256.333,536.167 257,534.5C 265.127,527.766 273.794,521.766 283,516.5C 284.473,516.903 285.806,517.57 287,518.5C 288.938,524.103 292.604,528.103 298,530.5C 302.04,527.635 306.54,525.968 311.5,525.5 Z"/></g>
<g><path style="opacity:1" fill="#000b48" d="M 393.5,526.5 C 400.529,527.353 402.696,531.02 400,537.5C 394.442,541.673 390.275,540.34 387.5,533.5C 388.379,529.999 390.379,527.666 393.5,526.5 Z"/></g>
<g><path style="opacity:1" fill="#6a8a96" d="M 393.5,576.5 C 400.931,575.76 403.098,578.76 400,585.5C 395.381,589.62 392.215,588.62 390.5,582.5C 390.984,580.199 391.984,578.199 393.5,576.5 Z"/></g>
<g><path style="opacity:1" fill="#294a6a" d="M 389.5,609.5 C 426.103,614.492 462.77,619.159 499.5,623.5C 509.182,622.572 518.848,621.572 528.5,620.5C 525.975,666.878 522.808,713.211 519,759.5C 515.99,761.673 512.657,763.006 509,763.5C 485.288,757.864 461.788,751.531 438.5,744.5C 421.963,699.553 405.629,654.553 389.5,609.5 Z"/></g>
<g><path style="opacity:1" fill="#000948" d="M 609.5,610.5 C 611.604,610.201 613.604,610.534 615.5,611.5C 597.724,653.385 580.224,695.385 563,737.5C 550.702,743.827 538.369,750.16 526,756.5C 528.737,710.851 531.57,665.184 534.5,619.5C 559.682,616.851 584.682,613.851 609.5,610.5 Z"/></g>
</svg>
