<?xml version="1.0" encoding="UTF-8"?>
<!DOCTYPE svg PUBLIC "-//W3C//DTD SVG 1.1//EN" "http://www.w3.org/Graphics/SVG/1.1/DTD/svg11.dtd">
<svg xmlns="http://www.w3.org/2000/svg" version="1.1" width="1000px" height="800px" style="shape-rendering:geometricPrecision; text-rendering:geometricPrecision; image-rendering:optimizeQuality; fill-rule:evenodd; clip-rule:evenodd" xmlns:xlink="http://www.w3.org/1999/xlink">
<g><path style="opacity:1" fill="#6a89a7" d="M 433.5,387.5 C 425.702,387.646 418.036,388.646 410.5,390.5C 408.343,392.792 406.176,395.125 404,397.5C 403.517,398.448 403.351,399.448 403.5,400.5C 401.53,404.439 399.53,408.439 397.5,412.5C 393.167,413.833 388.833,413.833 384.5,412.5C 379.47,403.104 374.97,393.438 371,383.5C 366.81,382.732 362.644,381.732 358.5,380.5C 358.167,380.833 357.833,381.167 357.5,381.5C 364.244,384.183 369.244,388.683 372.5,395C 371.663,396.011 371.33,397.178 371.5,398.5C 370.255,396.358 368.755,394.358 367,392.5C 361.777,393.676 360.277,396.676 362.5,401.5C 360.236,400.781 357.903,400.448 355.5,400.5C 354.89,399.609 354.557,398.609 354.5,397.5C 355.434,396.432 355.768,395.099 355.5,393.5C 349.599,392.043 343.599,391.376 337.5,391.5C 336.744,389.237 336.577,386.903 337,384.5C 334.603,386.782 331.769,388.116 328.5,388.5C 328.509,390.308 328.009,391.975 327,393.5C 324.642,390.481 322.309,387.481 320,384.5C 313.961,386.312 307.795,387.312 301.5,387.5C 300.924,379.48 300.09,371.48 299,363.5C 296.142,359.747 294.975,355.413 295.5,350.5C 333.954,368.401 372.62,368.568 411.5,351C 449.601,330.336 469.601,298.17 471.5,254.5C 472.011,210.708 455.678,174.874 422.5,147C 391.869,126.175 358.536,120.008 322.5,128.5C 326.648,118.5 332.648,109.666 340.5,102C 340.272,101.601 339.938,101.435 339.5,101.5C 349.513,91.3176 360.846,82.8176 373.5,76C 375.927,74.4455 375.927,73.2789 373.5,72.5C 375.505,69.7546 377.171,70.0879 378.5,73.5C 390.007,67.7194 402.007,63.2194 414.5,60C 412.505,59.0764 412.172,57.9097 413.5,56.5C 413.97,57.6935 414.97,58.3601 416.5,58.5C 430.05,55.4916 443.217,51.4916 456,46.5C 456.902,46.7432 457.735,47.0766 458.5,47.5C 458.082,48.2216 457.416,48.7216 456.5,49C 466.509,48.1112 476.509,46.7779 486.5,45C 519.442,42.8807 552.109,44.8807 584.5,51C 590.209,52.2999 595.709,54.1332 601,56.5C 595.516,175.855 589.35,295.189 582.5,414.5C 573.067,414.94 563.734,414.274 554.5,412.5C 549.58,404.328 544.913,395.995 540.5,387.5C 529.227,387.323 517.893,387.323 506.5,387.5C 504.334,395.497 500.834,402.83 496,409.5C 483.502,410.972 471.002,412.305 458.5,413.5C 450.806,405.973 443.639,397.973 437,389.5C 436.184,388.177 435.017,387.511 433.5,387.5 Z"/></g>
<g><path style="opacity:1" fill="#d8e5f2" d="M 458.5,47.5 C 457.735,47.0766 456.902,46.7432 456,46.5C 443.217,51.4916 430.05,55.4916 416.5,58.5C 414.97,58.3601 413.97,57.6935 413.5,56.5C 417.697,54.7679 422.031,53.4345 426.5,52.5C 426.5,51.5 426.5,50.5 426.5,49.5C 428.553,49.5979 430.22,48.9313 431.5,47.5C 436.729,45.9876 442.062,44.9876 447.5,44.5C 460.461,43.6791 473.461,42.1791 486.5,40C 492.528,39.1697 498.528,39.3364 504.5,40.5C 504.291,41.086 503.957,41.586 503.5,42C 488.451,43.5073 473.451,45.3406 458.5,47.5 Z"/></g>
<g><path style="opacity:0.95" fill="#587898" d="M 431.5,47.5 C 430.22,48.9313 428.553,49.5979 426.5,49.5C 426.5,50.5 426.5,51.5 426.5,52.5C 422.031,53.4345 417.697,54.7679 413.5,56.5C 412.172,57.9097 412.505,59.0764 414.5,60C 402.007,63.2194 390.007,67.7194 378.5,73.5C 377.171,70.0879 375.505,69.7546 373.5,72.5C 356.816,80.4465 342.316,91.4465 330,105.5C 329.517,106.448 329.351,107.448 329.5,108.5C 330.552,108.649 331.552,108.483 332.5,108C 334.703,105.628 337.037,103.461 339.5,101.5C 339.938,101.435 340.272,101.601 340.5,102C 332.648,109.666 326.648,118.5 322.5,128.5C 320.765,132.516 319.099,136.683 317.5,141C 317.833,141.5 318.167,142 318.5,142.5C 326.788,139.959 335.122,137.625 343.5,135.5C 337.257,138.283 330.923,141.117 324.5,144C 316.138,145.772 307.805,147.605 299.5,149.5C 302.765,147.846 306.098,146.18 309.5,144.5C 309.069,143.707 308.735,142.873 308.5,142C 309.88,137.356 311.547,132.856 313.5,128.5C 314.207,125.357 315.373,122.357 317,119.5C 322.245,112.676 327.245,105.676 332,98.5C 339.167,92 346.333,85.5 353.5,79C 364.167,73 374.833,67 385.5,61C 400.645,55.7844 415.978,51.2844 431.5,47.5 Z"/></g>
<g><path style="opacity:1" fill="#d6e3f0" d="M 582.5,43.5 C 582.917,42.8761 583.584,42.5427 584.5,42.5C 591.529,44.0393 598.529,45.7059 605.5,47.5C 606.713,47.7472 607.38,48.4138 607.5,49.5C 606.503,49.4701 605.836,49.9701 605.5,51C 606.442,57.4535 606.775,63.9535 606.5,70.5C 606.5,72.5 606.5,74.5 606.5,76.5C 605.292,77.2341 603.959,77.5674 602.5,77.5C 602.5,68.5 602.5,59.5 602.5,50.5C 596.134,49.3251 589.8,47.9918 583.5,46.5C 583.737,45.209 583.404,44.209 582.5,43.5 Z"/></g>
<g><path style="opacity:0.921" fill="#e0ecf7" d="M 689.5,58.5 C 689.5,59.5 689.5,60.5 689.5,61.5C 683.505,60.2607 677.505,58.9274 671.5,57.5C 668.931,60.961 666.597,64.6277 664.5,68.5C 661.167,69.5 657.834,70.5 654.5,71.5C 650.533,67.5203 646.199,64.0203 641.5,61C 639.613,60.8374 638.113,61.6707 637,63.5C 635.955,62.6266 635.122,61.6266 634.5,60.5C 636.146,58.2486 638.313,56.582 641,55.5C 646.079,59.2895 651.245,62.9562 656.5,66.5C 658.459,66.1252 660.293,65.4585 662,64.5C 663.528,61.5833 664.861,58.5833 666,55.5C 666.75,54.8742 667.584,54.3742 668.5,54C 674.168,54.2632 679.835,54.9298 685.5,56C 687.066,56.6082 688.4,57.4415 689.5,58.5 Z"/></g>
<g><path style="opacity:0.988" fill="#6b8b97" d="M 689.5,58.5 C 690.124,58.9169 690.457,59.5836 690.5,60.5C 689.421,64.6484 688.421,68.815 687.5,73C 689.323,76.3204 691.989,78.8204 695.5,80.5C 697.396,79.7255 699.063,78.7255 700.5,77.5C 701.315,78.4293 702.148,79.4293 703,80.5C 706.733,78.9163 709.899,79.7496 712.5,83C 713.793,83.49 715.127,83.6567 716.5,83.5C 718.455,87.8607 720.121,92.3607 721.5,97C 721.355,97.772 721.022,98.4387 720.5,99C 716.24,99.8089 712.24,101.309 708.5,103.5C 707.696,109.215 706.696,114.881 705.5,120.5C 710.476,123.485 715.476,126.151 720.5,128.5C 719.613,133.497 717.947,138.164 715.5,142.5C 707.197,132.689 699.031,122.689 691,112.5C 679.803,101.637 668.97,90.4708 658.5,79C 656.006,77.9683 653.672,76.8017 651.5,75.5C 653.942,75.6463 654.609,74.813 653.5,73C 646.471,68.6501 639.137,65.1501 631.5,62.5C 632.492,62.6716 633.158,62.3382 633.5,61.5C 633.5,60.8333 633.833,60.5 634.5,60.5C 635.122,61.6266 635.955,62.6266 637,63.5C 638.113,61.6707 639.613,60.8374 641.5,61C 646.199,64.0203 650.533,67.5203 654.5,71.5C 657.834,70.5 661.167,69.5 664.5,68.5C 666.597,64.6277 668.931,60.961 671.5,57.5C 677.505,58.9274 683.505,60.2607 689.5,61.5C 689.5,60.5 689.5,59.5 689.5,58.5 Z"/></g>
<g><path style="opacity:1" fill="#e3eefa" d="M 512.5,58.5 C 513.833,58.5 515.167,58.5 516.5,58.5C 516.762,59.9778 516.429,61.3112 515.5,62.5C 513.45,61.9234 512.45,60.5901 512.5,58.5 Z"/></g>
<g><path style="opacity:1" fill="#385a7c" d="M 705.5,145.5 C 689.159,142.166 672.826,138.833 656.5,135.5C 653.702,134.526 650.702,133.86 647.5,133.5C 645.626,133.39 644.126,134.056 643,135.5C 641.003,141.827 639.17,148.161 637.5,154.5C 629.04,158.452 621.873,164.119 616,171.5C 610.062,179.054 604.895,187.054 600.5,195.5C 602.43,155.83 604.43,116.163 606.5,76.5C 606.5,74.5 606.5,72.5 606.5,70.5C 607.477,67.7131 607.81,64.7131 607.5,61.5C 615.958,63.4852 624.292,65.9852 632.5,69C 639.992,74.5798 647.659,79.9131 655.5,85C 673.962,103.788 691.296,123.455 707.5,144C 707.164,145.03 706.497,145.53 705.5,145.5 Z"/></g>
<g><path style="opacity:1" fill="#d3e1ee" d="M 631.5,62.5 C 639.137,65.1501 646.471,68.6501 653.5,73C 654.609,74.813 653.942,75.6463 651.5,75.5C 642.317,70.6022 632.65,66.7688 622.5,64C 621.663,62.9887 621.33,61.8221 621.5,60.5C 624.877,60.9595 628.211,61.6261 631.5,62.5 Z"/></g>
<g><path style="opacity:1" fill="#e0ebf7" d="M 485.5,65.5 C 487.665,65.1159 489.332,65.7826 490.5,67.5C 489.332,69.2174 487.665,69.8841 485.5,69.5C 485.5,68.1667 485.5,66.8333 485.5,65.5 Z"/></g>
<g><path style="opacity:1" fill="#d6e3f1" d="M 445.5,71.5 C 448.167,71.5 450.833,71.5 453.5,71.5C 453.5,72.5 453.5,73.5 453.5,74.5C 433.624,76.969 414.291,81.6357 395.5,88.5C 395.33,87.1779 395.663,86.0113 396.5,85C 412.497,78.7541 428.83,74.2541 445.5,71.5 Z"/></g>
<g><path style="opacity:0.916" fill="#dfebf6" d="M 716.5,83.5 C 715.127,83.6567 713.793,83.49 712.5,83C 709.899,79.7496 706.733,78.9163 703,80.5C 702.148,79.4293 701.315,78.4293 700.5,77.5C 708.153,72.6433 713.486,74.6433 716.5,83.5 Z"/></g>
<g><path style="opacity:1" fill="#d5e3f0" d="M 373.5,72.5 C 375.927,73.2789 375.927,74.4455 373.5,76C 360.846,82.8176 349.513,91.3176 339.5,101.5C 337.037,103.461 334.703,105.628 332.5,108C 331.552,108.483 330.552,108.649 329.5,108.5C 329.351,107.448 329.517,106.448 330,105.5C 342.316,91.4465 356.816,80.4465 373.5,72.5 Z"/></g>
<g><path style="opacity:1" fill="#557697" d="M 558.5,90.5 C 554.244,93.9853 552.577,98.3187 553.5,103.5C 552.935,119.761 560.602,125.928 576.5,122C 589.516,113.892 590.849,104.225 580.5,93C 578.512,92.0617 576.512,91.2283 574.5,90.5C 574.5,89.1667 574.5,87.8333 574.5,86.5C 585.204,89.0066 591.204,95.8399 592.5,107C 587.676,125.081 576.342,131.081 558.5,125C 547.817,116.435 545.984,106.268 553,94.5C 554.451,92.5359 556.284,91.2026 558.5,90.5 Z"/></g>
<g><path style="opacity:1" fill="#deeaf6" d="M 573.5,90.5 C 572.5,90.5 571.5,90.5 570.5,90.5C 570.649,91.552 570.483,92.552 570,93.5C 568.482,94.1634 567.315,95.1634 566.5,96.5C 564.847,96.6596 563.514,97.3263 562.5,98.5C 559.738,100.596 556.738,102.262 553.5,103.5C 552.577,98.3187 554.244,93.9853 558.5,90.5C 563.365,88.7001 568.365,87.3668 573.5,86.5C 573.5,87.8333 573.5,89.1667 573.5,90.5 Z"/></g>
<g><path style="opacity:1" fill="#6b8b97" d="M 573.5,90.5 C 573.833,90.5 574.167,90.5 574.5,90.5C 576.512,91.2283 578.512,92.0617 580.5,93C 590.849,104.225 589.516,113.892 576.5,122C 560.602,125.928 552.935,119.761 553.5,103.5C 556.738,102.262 559.738,100.596 562.5,98.5C 562.238,99.9778 562.571,101.311 563.5,102.5C 564.833,103.167 565.833,104.167 566.5,105.5C 565.167,107.167 563.833,108.833 562.5,110.5C 561.167,112.167 561.167,113.833 562.5,115.5C 563.451,116.326 564.451,116.492 565.5,116C 567.333,114.167 569.167,112.333 571,110.5C 572.684,112.351 574.517,114.018 576.5,115.5C 578.167,115.167 579.167,114.167 579.5,112.5C 578.386,110.215 577.053,108.048 575.5,106C 577.243,103.981 578.41,101.814 579,99.5C 578.261,98.4258 577.261,97.7591 576,97.5C 574.056,98.4394 572.389,99.7727 571,101.5C 569.483,99.7605 567.983,98.0938 566.5,96.5C 567.315,95.1634 568.482,94.1634 570,93.5C 570.483,92.552 570.649,91.552 570.5,90.5C 571.5,90.5 572.5,90.5 573.5,90.5 Z"/></g>
<g><path style="opacity:1" fill="#557697" d="M 566.5,96.5 C 567.983,98.0938 569.483,99.7605 571,101.5C 572.389,99.7727 574.056,98.4394 576,97.5C 577.261,97.7591 578.261,98.4258 579,99.5C 578.41,101.814 577.243,103.981 575.5,106C 577.053,108.048 578.386,110.215 579.5,112.5C 579.167,114.167 578.167,115.167 576.5,115.5C 574.517,114.018 572.684,112.351 571,110.5C 569.167,112.333 567.333,114.167 565.5,116C 564.451,116.492 563.451,116.326 562.5,115.5C 561.167,113.833 561.167,112.167 562.5,110.5C 563.833,108.833 565.167,107.167 566.5,105.5C 565.833,104.167 564.833,103.167 563.5,102.5C 562.571,101.311 562.238,99.9778 562.5,98.5C 563.514,97.3263 564.847,96.6596 566.5,96.5 Z"/></g>
<g><path style="opacity:1" fill="#6e8ca9" d="M 295.5,350.5 C 294.096,341.204 292.763,331.87 291.5,322.5C 303.449,332.331 317.115,338.831 332.5,342C 372.72,351.659 406.554,341.159 434,310.5C 454.835,281.486 459.168,250.153 447,216.5C 435.926,186.76 415.926,165.427 387,152.5C 386.5,152.667 386,152.833 385.5,153C 389.759,154.934 393.759,157.268 397.5,160C 398.696,160.654 398.696,161.154 397.5,161.5C 387.787,156.04 377.453,152.374 366.5,150.5C 364.556,143.909 362.223,137.409 359.5,131C 356.053,130.808 352.72,131.475 349.5,133C 351.578,134.27 351.912,135.77 350.5,137.5C 350.5,136.5 350.5,135.5 350.5,134.5C 348.139,134.674 345.806,135.007 343.5,135.5C 335.122,137.625 326.788,139.959 318.5,142.5C 318.167,142 317.833,141.5 317.5,141C 319.099,136.683 320.765,132.516 322.5,128.5C 358.536,120.008 391.869,126.175 422.5,147C 455.678,174.874 472.011,210.708 471.5,254.5C 469.601,298.17 449.601,330.336 411.5,351C 372.62,368.568 333.954,368.401 295.5,350.5 Z"/></g>
<g><path style="opacity:0.009" fill="#fdfee8" d="M 313.5,128.5 C 311.547,132.856 309.88,137.356 308.5,142C 308.735,142.873 309.069,143.707 309.5,144.5C 306.098,146.18 302.765,147.846 299.5,149.5C 290.58,151.138 282.247,154.138 274.5,158.5C 269.347,159.519 264.347,160.852 259.5,162.5C 274.11,145.911 292.11,134.577 313.5,128.5 Z"/></g>
<g><path style="opacity:0.019" fill="#fdfee8" d="M 720.5,128.5 C 756.39,134.858 783.89,153.524 803,184.5C 827.003,231.782 823.003,276.448 791,318.5C 786.5,323 782,327.5 777.5,332C 767.804,338.843 758.138,345.676 748.5,352.5C 748.638,342.825 748.971,333.158 749.5,323.5C 746.5,323.5 743.5,323.5 740.5,323.5C 740.5,320.833 740.5,318.167 740.5,315.5C 758.569,304.91 771.069,289.576 778,269.5C 789.371,230.298 780.204,196.965 750.5,169.5C 751.084,166.33 751.75,163.163 752.5,160C 752.167,159.167 751.833,158.333 751.5,157.5C 741.491,152.108 730.825,148.608 719.5,147C 718.267,145.333 716.933,143.833 715.5,142.5C 717.947,138.164 719.613,133.497 720.5,128.5 Z"/></g>
<g><path style="opacity:1" fill="#5f7d9a" d="M 366.5,150.5 C 368.303,155.911 370.303,161.244 372.5,166.5C 372.25,168.674 371.25,170.341 369.5,171.5C 368.167,171.5 366.833,171.5 365.5,171.5C 364.331,167.168 362.998,162.835 361.5,158.5C 359.388,153.722 358.055,148.722 357.5,143.5C 356.696,141.811 355.696,140.145 354.5,138.5C 349.945,140.073 345.445,141.74 341,143.5C 340.536,142.906 340.369,142.239 340.5,141.5C 343.754,139.971 347.087,138.638 350.5,137.5C 351.912,135.77 351.578,134.27 349.5,133C 352.72,131.475 356.053,130.808 359.5,131C 362.223,137.409 364.556,143.909 366.5,150.5 Z"/></g>
<g><path style="opacity:1" fill="#dde9f5" d="M 656.5,135.5 C 672.826,138.833 689.159,142.166 705.5,145.5C 707.954,146.621 710.621,147.454 713.5,148C 714.337,149.011 714.67,150.178 714.5,151.5C 695.931,147.22 677.264,143.386 658.5,140C 655.304,139.195 652.304,139.362 649.5,140.5C 647.743,144.111 646.41,147.777 645.5,151.5C 644.731,153.667 643.731,155.834 642.5,158C 640.934,158.765 639.601,158.598 638.5,157.5C 641.239,150.283 643.573,142.949 645.5,135.5C 649.167,135.5 652.833,135.5 656.5,135.5 Z"/></g>
<g><path style="opacity:0.998" fill="#5b7a99" d="M 607.5,49.5 C 608.777,51.1484 609.777,52.9817 610.5,55C 618.396,57.5929 626.062,59.7596 633.5,61.5C 633.158,62.3382 632.492,62.6716 631.5,62.5C 628.211,61.6261 624.877,60.9595 621.5,60.5C 621.33,61.8221 621.663,62.9887 622.5,64C 632.65,66.7688 642.317,70.6022 651.5,75.5C 653.672,76.8017 656.006,77.9683 658.5,79C 668.97,90.4708 679.803,101.637 691,112.5C 699.031,122.689 707.197,132.689 715.5,142.5C 716.933,143.833 718.267,145.333 719.5,147C 730.825,148.608 741.491,152.108 751.5,157.5C 751.833,158.333 752.167,159.167 752.5,160C 751.75,163.163 751.084,166.33 750.5,169.5C 749.596,170.209 749.263,171.209 749.5,172.5C 748.262,174.214 747.595,176.214 747.5,178.5C 746.531,183.691 745.198,188.691 743.5,193.5C 740.219,194.628 736.885,194.628 733.5,193.5C 733.158,192.662 732.492,192.328 731.5,192.5C 731.833,190.5 732.167,188.5 732.5,186.5C 733.959,186.433 735.292,186.766 736.5,187.5C 738.41,183.893 739.41,180.226 739.5,176.5C 739.557,175.391 739.89,174.391 740.5,173.5C 741.263,169.951 742.263,166.451 743.5,163C 739.111,159.529 734.111,157.195 728.5,156C 701.94,151.654 675.607,146.488 649.5,140.5C 652.304,139.362 655.304,139.195 658.5,140C 677.264,143.386 695.931,147.22 714.5,151.5C 714.67,150.178 714.337,149.011 713.5,148C 710.621,147.454 707.954,146.621 705.5,145.5C 706.497,145.53 707.164,145.03 707.5,144C 691.296,123.455 673.962,103.788 655.5,85C 647.659,79.9131 639.992,74.5798 632.5,69C 624.292,65.9852 615.958,63.4852 607.5,61.5C 607.81,64.7131 607.477,67.7131 606.5,70.5C 606.775,63.9535 606.442,57.4535 605.5,51C 605.836,49.9701 606.503,49.4701 607.5,49.5 Z"/></g>
<g><path style="opacity:1" fill="#aabed0" d="M 357.5,143.5 C 357.5,142.5 357.5,141.5 357.5,140.5C 361.316,141.09 362.983,143.423 362.5,147.5C 361.325,147.719 360.325,147.386 359.5,146.5C 359.058,145.261 358.391,144.261 357.5,143.5 Z"/></g>
<g><path style="opacity:1" fill="#728f9a" d="M 357.5,143.5 C 358.055,148.722 359.388,153.722 361.5,158.5C 358.592,157.308 355.592,156.308 352.5,155.5C 336.75,159.437 321.416,164.604 306.5,171C 303.15,171.25 299.983,172.083 297,173.5C 287.781,173.143 280.447,176.81 275,184.5C 273.711,187.351 273.211,190.351 273.5,193.5C 272.833,192.5 272.167,191.5 271.5,190.5C 269.759,183.703 268.093,176.87 266.5,170C 266.585,168.893 266.919,167.893 267.5,167C 279.23,161.089 291.563,156.756 304.5,154C 305.7,152.969 307.034,152.135 308.5,151.5C 318.181,149.397 327.848,147.23 337.5,145C 338.357,143.777 339.357,142.611 340.5,141.5C 340.369,142.239 340.536,142.906 341,143.5C 345.445,141.74 349.945,140.073 354.5,138.5C 355.696,140.145 356.696,141.811 357.5,143.5 Z"/></g>
<g><path style="opacity:1" fill="#0a144e" d="M 649.5,140.5 C 675.607,146.488 701.94,151.654 728.5,156C 734.111,157.195 739.111,159.529 743.5,163C 742.263,166.451 741.263,169.951 740.5,173.5C 738.188,172.522 736.522,170.855 735.5,168.5C 731.494,166.833 727.828,164.667 724.5,162C 721.899,161.08 719.232,160.413 716.5,160C 697.438,159.185 678.271,158.351 659,157.5C 653.941,157.295 649.108,157.962 644.5,159.5C 645.388,156.946 645.721,154.279 645.5,151.5C 646.41,147.777 647.743,144.111 649.5,140.5 Z"/></g>
<g><path style="opacity:0.975" fill="#5f7e9d" d="M 299.5,149.5 C 299.074,151.285 297.908,152.285 296,152.5C 288.788,154.405 281.622,156.405 274.5,158.5C 282.247,154.138 290.58,151.138 299.5,149.5 Z"/></g>
<g><path style="opacity:1" fill="#7491ac" d="M 366.5,150.5 C 377.453,152.374 387.787,156.04 397.5,161.5C 398.696,161.154 398.696,160.654 397.5,160C 393.759,157.268 389.759,154.934 385.5,153C 386,152.833 386.5,152.667 387,152.5C 415.926,165.427 435.926,186.76 447,216.5C 459.168,250.153 454.835,281.486 434,310.5C 406.554,341.159 372.72,351.659 332.5,342C 317.115,338.831 303.449,332.331 291.5,322.5C 291.5,320.833 291.5,319.167 291.5,317.5C 316.746,337.591 345.412,344.425 377.5,338C 384.247,336.307 390.58,333.64 396.5,330C 420.467,313.605 435.633,291.105 442,262.5C 443.057,254.536 443.723,246.536 444,238.5C 444.333,246.167 444.667,253.833 445,261.5C 446.419,252.875 446.752,244.208 446,235.5C 443.906,227.311 441.239,219.311 438,211.5C 432.42,204.008 427.087,196.341 422,188.5C 421.383,189.449 421.549,190.282 422.5,191C 421.833,191.667 421.167,191.667 420.5,191C 409.835,177.64 396.502,168.306 380.5,163C 383.951,164.463 386.785,166.629 389,169.5C 393.223,171.355 397.723,173.521 402.5,176C 403.696,176.654 403.696,177.154 402.5,177.5C 392.757,173.031 382.757,169.364 372.5,166.5C 370.303,161.244 368.303,155.911 366.5,150.5 Z"/></g>
<g><path style="opacity:1" fill="#dde9f5" d="M 350.5,137.5 C 347.087,138.638 343.754,139.971 340.5,141.5C 339.357,142.611 338.357,143.777 337.5,145C 327.848,147.23 318.181,149.397 308.5,151.5C 307.034,152.135 305.7,152.969 304.5,154C 291.563,156.756 279.23,161.089 267.5,167C 266.919,167.893 266.585,168.893 266.5,170C 268.093,176.87 269.759,183.703 271.5,190.5C 270.923,192.652 269.756,192.985 268,191.5C 264.869,183.008 263.369,174.341 263.5,165.5C 267.401,163.392 271.067,161.059 274.5,158.5C 281.622,156.405 288.788,154.405 296,152.5C 297.908,152.285 299.074,151.285 299.5,149.5C 307.805,147.605 316.138,145.772 324.5,144C 330.923,141.117 337.257,138.283 343.5,135.5C 345.806,135.007 348.139,134.674 350.5,134.5C 350.5,135.5 350.5,136.5 350.5,137.5 Z"/></g>
<g><path style="opacity:1" fill="#839aa2" d="M 361.5,158.5 C 362.998,162.835 364.331,167.168 365.5,171.5C 364.833,171.833 364.167,172.167 363.5,172.5C 362.833,172.5 362.5,172.833 362.5,173.5C 361.833,173.5 361.167,173.5 360.5,173.5C 359.292,174.234 357.959,174.567 356.5,174.5C 353.301,175.899 349.968,176.899 346.5,177.5C 330.327,184.558 313.994,191.224 297.5,197.5C 296.508,197.328 295.842,197.662 295.5,198.5C 294.209,198.263 293.209,198.596 292.5,199.5C 290.5,199.833 288.5,200.167 286.5,200.5C 284.795,199.465 283.128,199.465 281.5,200.5C 280.042,196.071 277.542,195.404 274,198.5C 273.506,196.866 273.34,195.199 273.5,193.5C 273.211,190.351 273.711,187.351 275,184.5C 280.447,176.81 287.781,173.143 297,173.5C 299.983,172.083 303.15,171.25 306.5,171C 321.416,164.604 336.75,159.437 352.5,155.5C 355.592,156.308 358.592,157.308 361.5,158.5 Z"/></g>
<g><path style="opacity:0.019" fill="#fdfee8" d="M 259.5,162.5 C 259.106,163.967 258.773,165.467 258.5,167C 261.684,176.237 264.017,185.737 265.5,195.5C 255.347,218.203 254.347,241.37 262.5,265C 264.85,268.534 266.517,272.368 267.5,276.5C 264.794,276.575 262.127,276.908 259.5,277.5C 259.927,281.824 260.261,286.158 260.5,290.5C 256.833,290.5 253.167,290.5 249.5,290.5C 249.5,291.5 249.5,292.5 249.5,293.5C 248.864,299.655 248.864,305.989 249.5,312.5C 222.065,269.499 220.565,225.499 245,180.5C 248.939,173.733 253.772,167.733 259.5,162.5 Z"/></g>
<g><path style="opacity:1" fill="#d1deeb" d="M 637.5,161.5 C 639.346,161.222 640.68,161.889 641.5,163.5C 640.68,165.111 639.346,165.778 637.5,165.5C 637.5,164.5 637.5,163.5 637.5,162.5C 637.5,162.167 637.5,161.833 637.5,161.5 Z"/></g>
<g><path style="opacity:1" fill="#1a2356" d="M 740.5,173.5 C 739.89,174.391 739.557,175.391 739.5,176.5C 734.638,172.901 729.305,170.067 723.5,168C 699.769,163.067 675.769,161.067 651.5,162C 648.133,164.219 646.133,167.386 645.5,171.5C 644.833,171.5 644.167,171.5 643.5,171.5C 642.876,171.083 642.543,170.416 642.5,169.5C 643.488,166.218 644.154,162.885 644.5,159.5C 649.108,157.962 653.941,157.295 659,157.5C 678.271,158.351 697.438,159.185 716.5,160C 719.232,160.413 721.899,161.08 724.5,162C 727.828,164.667 731.494,166.833 735.5,168.5C 736.522,170.855 738.188,172.522 740.5,173.5 Z"/></g>
<g><path style="opacity:1" fill="#97a9aa" d="M 346.5,159.5 C 351.688,158.703 356.188,160.036 360,163.5C 360.617,164.449 360.451,165.282 359.5,166C 333.306,175.841 307.139,185.675 281,195.5C 277.606,190.669 278.106,186.169 282.5,182C 285.417,180.472 288.417,179.139 291.5,178C 302.032,177.555 311.699,174.555 320.5,169C 329.161,165.505 337.828,162.338 346.5,159.5 Z"/></g>
<g><path style="opacity:1" fill="#5f7c9a" d="M 645.5,151.5 C 645.721,154.279 645.388,156.946 644.5,159.5C 644.154,162.885 643.488,166.218 642.5,169.5C 642.543,170.416 642.876,171.083 643.5,171.5C 643.394,174.079 644.061,176.412 645.5,178.5C 644.391,178.443 643.391,178.11 642.5,177.5C 637.907,178.582 634.907,176.915 633.5,172.5C 634.664,168.987 635.998,165.654 637.5,162.5C 637.5,163.5 637.5,164.5 637.5,165.5C 639.346,165.778 640.68,165.111 641.5,163.5C 640.68,161.889 639.346,161.222 637.5,161.5C 637.232,159.901 637.566,158.568 638.5,157.5C 639.601,158.598 640.934,158.765 642.5,158C 643.731,155.834 644.731,153.667 645.5,151.5 Z"/></g>
<g><path style="opacity:1" fill="#333b66" d="M 739.5,176.5 C 739.41,180.226 738.41,183.893 736.5,187.5C 737.435,180.204 734.768,174.704 728.5,171C 703.921,165.19 678.921,162.856 653.5,164C 649.469,164.903 647.469,167.403 647.5,171.5C 646.833,171.5 646.167,171.5 645.5,171.5C 646.133,167.386 648.133,164.219 651.5,162C 675.769,161.067 699.769,163.067 723.5,168C 729.305,170.067 734.638,172.901 739.5,176.5 Z"/></g>
<g><path style="opacity:1" fill="#495073" d="M 736.5,187.5 C 735.292,186.766 733.959,186.433 732.5,186.5C 732.027,185.094 731.027,184.427 729.5,184.5C 729.5,184.167 729.5,183.833 729.5,183.5C 730.391,182.739 731.058,181.739 731.5,180.5C 729.976,178.142 727.976,176.309 725.5,175C 702.802,167.701 679.469,165.034 655.5,167C 654.029,168.583 653.029,170.417 652.5,172.5C 650.958,171.699 649.292,171.366 647.5,171.5C 647.469,167.403 649.469,164.903 653.5,164C 678.921,162.856 703.921,165.19 728.5,171C 734.768,174.704 737.435,180.204 736.5,187.5 Z"/></g>
<g><path style="opacity:1" fill="#406080" d="M 656.5,135.5 C 652.833,135.5 649.167,135.5 645.5,135.5C 643.573,142.949 641.239,150.283 638.5,157.5C 637.566,158.568 637.232,159.901 637.5,161.5C 637.5,161.833 637.5,162.167 637.5,162.5C 635.998,165.654 634.664,168.987 633.5,172.5C 634.907,176.915 637.907,178.582 642.5,177.5C 641.933,179.03 641.267,180.53 640.5,182C 640.833,182.333 641.167,182.667 641.5,183C 637.385,185.448 633.552,188.281 630,191.5C 625.142,199.231 620.309,206.898 615.5,214.5C 617.215,210.069 619.215,205.735 621.5,201.5C 607.662,215.879 602.162,233.546 605,254.5C 605.654,262.247 606.821,269.914 608.5,277.5C 607.772,279.155 607.605,280.821 608,282.5C 630.985,329.745 667.819,346.745 718.5,333.5C 717.241,340.127 716.241,346.793 715.5,353.5C 692.39,356.179 670.39,352.345 649.5,342C 625.755,330.753 607.755,313.586 595.5,290.5C 596.687,258.798 598.354,227.132 600.5,195.5C 604.895,187.054 610.062,179.054 616,171.5C 621.873,164.119 629.04,158.452 637.5,154.5C 639.17,148.161 641.003,141.827 643,135.5C 644.126,134.056 645.626,133.39 647.5,133.5C 650.702,133.86 653.702,134.526 656.5,135.5 Z"/></g>
<g><path style="opacity:1" fill="#585e7c" d="M 729.5,183.5 C 727.235,183.559 726.902,182.726 728.5,181C 727.899,179.395 726.899,178.062 725.5,177C 722.56,175.848 719.56,174.848 716.5,174C 704.01,172.089 691.677,170.589 679.5,169.5C 675.725,170.183 672.059,171.183 668.5,172.5C 663.167,172.5 657.833,172.5 652.5,172.5C 653.029,170.417 654.029,168.583 655.5,167C 679.469,165.034 702.802,167.701 725.5,175C 727.976,176.309 729.976,178.142 731.5,180.5C 731.058,181.739 730.391,182.739 729.5,183.5 Z"/></g>
<g><path style="opacity:1" fill="#7993ab" d="M 291.5,317.5 C 290.833,313.5 290.167,309.5 289.5,305.5C 297.221,310.374 304.554,315.874 311.5,322C 343.372,337.707 373.706,335.207 402.5,314.5C 408.19,308.975 414.024,303.642 420,298.5C 424.257,291.316 427.423,283.649 429.5,275.5C 429.392,274.558 429.059,273.725 428.5,273C 430.574,268.65 432.24,264.15 433.5,259.5C 432.38,254.266 431.547,254.266 431,259.5C 430.887,250.107 430.22,240.774 429,231.5C 428.535,230.069 427.701,228.903 426.5,228C 426.5,226.667 426.5,225.333 426.5,224C 424.053,220.04 421.719,216.207 419.5,212.5C 408.934,191.619 392.268,177.952 369.5,171.5C 371.25,170.341 372.25,168.674 372.5,166.5C 382.757,169.364 392.757,173.031 402.5,177.5C 403.696,177.154 403.696,176.654 402.5,176C 397.723,173.521 393.223,171.355 389,169.5C 386.785,166.629 383.951,164.463 380.5,163C 396.502,168.306 409.835,177.64 420.5,191C 421.167,191.667 421.833,191.667 422.5,191C 421.549,190.282 421.383,189.449 422,188.5C 427.087,196.341 432.42,204.008 438,211.5C 441.239,219.311 443.906,227.311 446,235.5C 446.752,244.208 446.419,252.875 445,261.5C 444.667,253.833 444.333,246.167 444,238.5C 443.723,246.536 443.057,254.536 442,262.5C 435.633,291.105 420.467,313.605 396.5,330C 390.58,333.64 384.247,336.307 377.5,338C 345.412,344.425 316.746,337.591 291.5,317.5 Z"/></g>
<g><path style="opacity:0.999" fill="#383f67" d="M 365.5,171.5 C 366.833,171.5 368.167,171.5 369.5,171.5C 392.268,177.952 408.934,191.619 419.5,212.5C 422.31,220.934 423.644,229.601 423.5,238.5C 419.994,226.168 414.827,214.501 408,203.5C 396.627,191.06 382.794,182.56 366.5,178C 364.393,176.736 363.393,174.903 363.5,172.5C 364.167,172.167 364.833,171.833 365.5,171.5 Z"/></g>
<g><path style="opacity:1" fill="#474e6d" d="M 360.5,173.5 C 361.167,173.5 361.833,173.5 362.5,173.5C 362.079,175.747 362.079,177.913 362.5,180C 372.365,182.538 382.032,186.538 391.5,192C 397.373,196.575 402.206,202.075 406,208.5C 408.185,209.928 410.185,211.595 412,213.5C 427.841,247.281 422.675,277.447 396.5,304C 367.988,324.964 338.655,325.964 308.5,307C 297.194,297.237 288.694,285.404 283,271.5C 278.143,251.304 280.477,231.971 290,213.5C 293.866,209.747 296.7,205.414 298.5,200.5C 296.379,200.675 294.379,200.341 292.5,199.5C 293.209,198.596 294.209,198.263 295.5,198.5C 297.833,198.5 300.167,198.5 302.5,198.5C 302.66,200.199 302.494,201.866 302,203.5C 285.965,219.946 279.965,239.613 284,262.5C 293.032,296.697 315.198,315.03 350.5,317.5C 374.905,316.717 394.071,306.383 408,286.5C 423.067,257.839 420.567,230.839 400.5,205.5C 388.712,193.106 374.378,185.773 357.5,183.5C 357.069,182.707 356.735,181.873 356.5,181C 358.627,178.97 359.96,176.47 360.5,173.5 Z"/></g>
<g><path style="opacity:1" fill="#646a82" d="M 729.5,183.5 C 729.5,183.833 729.5,184.167 729.5,184.5C 709.129,179.959 688.796,175.959 668.5,172.5C 672.059,171.183 675.725,170.183 679.5,169.5C 691.677,170.589 704.01,172.089 716.5,174C 719.56,174.848 722.56,175.848 725.5,177C 726.899,178.062 727.899,179.395 728.5,181C 726.902,182.726 727.235,183.559 729.5,183.5 Z"/></g>
<g><path style="opacity:1" fill="#b2bac0" d="M 346.5,177.5 C 328.456,182.435 310.623,188.102 293,194.5C 291.278,194.389 291.112,193.889 292.5,193C 314.895,185.154 336.895,177.321 358.5,169.5C 358.5,170.5 358.5,171.5 358.5,172.5C 354.213,173.648 350.213,175.315 346.5,177.5 Z"/></g>
<g><path style="opacity:1" fill="#8c9ba5" d="M 643.5,171.5 C 644.167,171.5 644.833,171.5 645.5,171.5C 646.167,171.5 646.833,171.5 647.5,171.5C 649.292,171.366 650.958,171.699 652.5,172.5C 657.833,172.5 663.167,172.5 668.5,172.5C 688.796,175.959 709.129,179.959 729.5,184.5C 731.027,184.427 732.027,185.094 732.5,186.5C 732.167,188.5 731.833,190.5 731.5,192.5C 708.816,186.837 686.149,182.503 663.5,179.5C 659.5,179.5 655.5,179.5 651.5,179.5C 649.621,178.659 647.621,178.325 645.5,178.5C 644.061,176.412 643.394,174.079 643.5,171.5 Z"/></g>
<g><path style="opacity:1" fill="#7e8f92" d="M 651.5,179.5 C 655.5,179.5 659.5,179.5 663.5,179.5C 663.586,180.496 663.252,181.329 662.5,182C 668.029,184.581 673.862,186.081 680,186.5C 680.333,186.167 680.667,185.833 681,185.5C 684.833,187.655 689,189.155 693.5,190C 686.445,191.483 679.445,193.15 672.5,195C 666.441,199.664 659.775,203.664 652.5,207C 649.426,212.246 645.426,216.746 640.5,220.5C 635.962,228.243 631.962,236.243 628.5,244.5C 627.234,247.301 626.401,250.301 626,253.5C 625.201,249.576 624.701,249.576 624.5,253.5C 624.761,257.436 625.761,261.103 627.5,264.5C 627.167,264.833 626.833,265.167 626.5,265.5C 625.667,264.5 624.833,263.5 624,262.5C 623.667,263.167 623.333,263.833 623,264.5C 622,262.5 621,260.5 620,258.5C 619.814,262.516 619.814,266.516 620,270.5C 619.148,269.429 618.315,268.429 617.5,267.5C 615.801,263.046 614.467,258.38 613.5,253.5C 614.708,254.234 616.041,254.567 617.5,254.5C 619.98,235.228 626.146,217.228 636,200.5C 639.682,196.985 643.182,193.318 646.5,189.5C 645.833,189.167 645.167,188.833 644.5,188.5C 642.823,189.187 641.156,189.854 639.5,190.5C 642.901,186.096 646.901,182.429 651.5,179.5 Z"/></g>
<g><path style="opacity:1" fill="#879798" d="M 663.5,179.5 C 686.149,182.503 708.816,186.837 731.5,192.5C 732.492,192.328 733.158,192.662 733.5,193.5C 733.511,195.017 734.177,196.184 735.5,197C 740.66,201.722 745.66,205.888 750.5,209.5C 752.108,212.382 753.441,215.382 754.5,218.5C 753.833,219.833 753.167,219.833 752.5,218.5C 751.586,216.336 750.419,214.336 749,212.5C 749.584,216.105 749.917,219.772 750,223.5C 748.725,221.283 747.725,218.949 747,216.5C 746.333,217.167 745.667,217.833 745,218.5C 743.748,216.999 742.748,215.332 742,213.5C 741.667,213.833 741.333,214.167 741,214.5C 740.044,213.421 739.211,212.255 738.5,211C 736.671,210.727 735.171,209.893 734,208.5C 733.768,209.737 733.268,210.737 732.5,211.5C 731.671,210.668 730.838,211.001 730,212.5C 729.626,211.584 729.126,210.75 728.5,210C 725.193,209.347 722.527,207.681 720.5,205C 714.701,202.443 708.701,200.777 702.5,200C 703.252,200.671 703.586,201.504 703.5,202.5C 702.1,201.9 701.1,200.9 700.5,199.5C 678.135,193.418 659.968,199.752 646,218.5C 642.099,225.767 639.266,233.433 637.5,241.5C 635.665,242.122 634.498,243.456 634,245.5C 632.893,244.288 632.393,244.621 632.5,246.5C 632.884,248.665 632.217,250.332 630.5,251.5C 629.832,249.031 629.165,246.698 628.5,244.5C 631.962,236.243 635.962,228.243 640.5,220.5C 645.426,216.746 649.426,212.246 652.5,207C 659.775,203.664 666.441,199.664 672.5,195C 679.445,193.15 686.445,191.483 693.5,190C 689,189.155 684.833,187.655 681,185.5C 680.667,185.833 680.333,186.167 680,186.5C 673.862,186.081 668.029,184.581 662.5,182C 663.252,181.329 663.586,180.496 663.5,179.5 Z"/></g>
<g><path style="opacity:1" fill="#575d74" d="M 356.5,174.5 C 358.077,176.802 357.411,178.302 354.5,179C 354.833,179.333 355.167,179.667 355.5,180C 353.579,180.36 351.912,181.194 350.5,182.5C 351.641,183.425 351.641,184.259 350.5,185C 359.816,185.745 368.816,187.912 377.5,191.5C 409.024,210.189 420.191,237.523 411,273.5C 409.226,278.07 406.726,282.07 403.5,285.5C 403.119,284.069 402.119,283.236 400.5,283C 407.139,271.007 409.639,258.173 408,244.5C 406.663,238.493 405.33,232.493 404,226.5C 401.542,221.747 398.708,217.247 395.5,213C 389.161,207.959 382.827,202.959 376.5,198C 369.041,196.303 361.708,194.303 354.5,192C 340.791,190.928 328.124,193.928 316.5,201C 315.177,201.816 314.511,202.983 314.5,204.5C 305.974,208.696 300.307,215.363 297.5,224.5C 295.776,227.345 294.442,230.345 293.5,233.5C 285.555,265.122 295.888,288.955 324.5,305C 341.828,312.283 359.162,312.283 376.5,305C 377.056,304.617 377.389,304.117 377.5,303.5C 386.37,298.956 394.703,293.622 402.5,287.5C 393.321,301.155 380.655,309.988 364.5,314C 333.405,318.696 309.571,307.863 293,281.5C 282.004,258.091 283.337,235.425 297,213.5C 300.833,208.333 305.333,203.833 310.5,200C 308.984,197.71 306.817,196.544 304,196.5C 301.863,197.077 299.696,197.41 297.5,197.5C 313.994,191.224 330.327,184.558 346.5,177.5C 349.968,176.899 353.301,175.899 356.5,174.5 Z"/></g>
<g><path style="opacity:0.996" fill="#627f9c" d="M 274.5,158.5 C 271.067,161.059 267.401,163.392 263.5,165.5C 263.369,174.341 264.869,183.008 268,191.5C 269.756,192.985 270.923,192.652 271.5,190.5C 272.167,191.5 272.833,192.5 273.5,193.5C 273.34,195.199 273.506,196.866 274,198.5C 277.542,195.404 280.042,196.071 281.5,200.5C 283.128,199.465 284.795,199.465 286.5,200.5C 286.158,201.338 285.492,201.672 284.5,201.5C 280.597,202.275 277.597,204.275 275.5,207.5C 271.321,208.343 268.321,207.01 266.5,203.5C 266.806,200.615 266.473,197.948 265.5,195.5C 264.017,185.737 261.684,176.237 258.5,167C 258.773,165.467 259.106,163.967 259.5,162.5C 264.347,160.852 269.347,159.519 274.5,158.5 Z"/></g>
<g><path style="opacity:1" fill="#020d49" d="M 542.5,207.5 C 541.251,209.67 540.251,212.004 539.5,214.5C 539.543,215.416 539.876,216.083 540.5,216.5C 541.272,220.75 541.772,225.083 542,229.5C 542.707,231.081 543.54,232.581 544.5,234C 551.775,239.388 559.775,241.055 568.5,239C 571.381,237.749 573.214,235.583 574,232.5C 579.243,220.059 576.077,210.725 564.5,204.5C 565.234,203.292 565.567,201.959 565.5,200.5C 558.427,198.529 552.094,199.862 546.5,204.5C 545.227,203.923 545.227,203.257 546.5,202.5C 566.826,193.998 578.826,200.665 582.5,222.5C 581.306,227.584 579.806,232.584 578,237.5C 568.971,246.742 558.804,248.242 547.5,242C 537.843,237.061 534.343,229.228 537,218.5C 537.271,213.958 539.104,210.291 542.5,207.5 Z"/></g>
<g><path style="opacity:1" fill="#dfeaf6" d="M 564.5,204.5 C 556.382,208.314 548.382,212.314 540.5,216.5C 539.876,216.083 539.543,215.416 539.5,214.5C 540.251,212.004 541.251,209.67 542.5,207.5C 544.23,206.974 545.564,205.974 546.5,204.5C 552.094,199.862 558.427,198.529 565.5,200.5C 565.567,201.959 565.234,203.292 564.5,204.5 Z"/></g>
<g><path style="opacity:1" fill="#486782" d="M 615.5,214.5 C 603.038,245.564 606.538,274.897 626,302.5C 651.862,328.73 682.695,337.397 718.5,328.5C 718.5,330.167 718.5,331.833 718.5,333.5C 667.819,346.745 630.985,329.745 608,282.5C 607.605,280.821 607.772,279.155 608.5,277.5C 606.821,269.914 605.654,262.247 605,254.5C 602.162,233.546 607.662,215.879 621.5,201.5C 619.215,205.735 617.215,210.069 615.5,214.5 Z"/></g>
<g><path style="opacity:1" fill="#294a6a" d="M 564.5,204.5 C 576.077,210.725 579.243,220.059 574,232.5C 573.214,235.583 571.381,237.749 568.5,239C 559.775,241.055 551.775,239.388 544.5,234C 543.54,232.581 542.707,231.081 542,229.5C 541.772,225.083 541.272,220.75 540.5,216.5C 548.382,212.314 556.382,208.314 564.5,204.5 Z"/></g>
<g><path style="opacity:1" fill="#878a89" d="M 700.5,199.5 C 701.1,200.9 702.1,201.9 703.5,202.5C 707.353,203.724 711.353,204.891 715.5,206C 732.389,213.269 741.055,226.269 741.5,245C 741.653,251.877 740.319,258.377 737.5,264.5C 736.522,264.189 735.855,263.522 735.5,262.5C 737.969,251.933 736.469,241.6 731,231.5C 724.992,222.827 717.158,216.327 707.5,212C 685.488,205.758 668.321,212.258 656,231.5C 651.712,242.449 649.712,254.116 650,266.5C 655.009,281.509 665.176,291.009 680.5,295C 697.496,300.235 712.329,296.401 725,283.5C 725.399,283.728 725.565,284.062 725.5,284.5C 724.883,286.229 723.883,287.729 722.5,289C 718.377,292.536 714.044,295.87 709.5,299C 699.887,301.386 690.221,302.22 680.5,301.5C 668.355,299.984 658.355,294.651 650.5,285.5C 648.246,284.135 646.58,282.135 645.5,279.5C 646.289,279.217 646.956,278.717 647.5,278C 646.939,276.324 645.939,274.991 644.5,274C 644.833,273.667 645.167,273.333 645.5,273C 644.45,269.564 643.116,266.231 641.5,263C 641.282,249.692 644.449,236.859 651,224.5C 654.005,221.359 656.671,218.026 659,214.5C 659.333,214.833 659.667,215.167 660,215.5C 671.104,205.48 684.604,201.147 700.5,202.5C 700.5,201.5 700.5,200.5 700.5,199.5 Z"/></g>
<g><path style="opacity:1" fill="#626778" d="M 403.5,285.5 C 403.5,286.167 403.167,286.5 402.5,286.5C 402.157,284.775 401.157,284.275 399.5,285C 397.578,287.43 395.245,289.263 392.5,290.5C 392.062,290.565 391.728,290.399 391.5,290C 400.96,278.274 405.626,264.774 405.5,249.5C 405.435,246.293 405.102,243.126 404.5,240C 402.148,233.736 399.148,227.903 395.5,222.5C 392.862,216.681 389.195,211.514 384.5,207C 373.285,200.801 361.451,197.968 349,198.5C 340.268,198.738 331.768,199.738 323.5,201.5C 320.285,201.905 317.285,202.905 314.5,204.5C 314.511,202.983 315.177,201.816 316.5,201C 328.124,193.928 340.791,190.928 354.5,192C 361.708,194.303 369.041,196.303 376.5,198C 382.827,202.959 389.161,207.959 395.5,213C 398.708,217.247 401.542,221.747 404,226.5C 405.33,232.493 406.663,238.493 408,244.5C 409.639,258.173 407.139,271.007 400.5,283C 402.119,283.236 403.119,284.069 403.5,285.5 Z"/></g>
<g><path style="opacity:0.123" fill="#dcddc9" d="M 749.5,172.5 C 760.102,181.117 768.102,191.784 773.5,204.5C 772.833,204.833 772.167,205.167 771.5,205.5C 779.375,224.744 780.542,244.411 775,264.5C 774.667,263.167 774.333,261.833 774,260.5C 773.755,262.663 772.755,264.33 771,265.5C 770.667,264.5 770.333,263.5 770,262.5C 768.086,269.661 765.086,276.328 761,282.5C 760.667,281.5 760.333,280.5 760,279.5C 757.752,282.328 755.752,285.328 754,288.5C 753.23,289.598 752.397,289.598 751.5,288.5C 756.9,276.966 760.9,264.966 763.5,252.5C 764.931,252.119 765.764,251.119 766,249.5C 766.521,244.148 767.187,238.815 768,233.5C 768.763,236.063 769.263,236.063 769.5,233.5C 769.148,232.214 768.482,231.381 767.5,231C 767.888,226.109 767.888,221.276 767.5,216.5C 764.13,208.231 760.463,200.064 756.5,192C 756.833,191.667 757.167,191.333 757.5,191C 753.895,186.912 750.562,182.745 747.5,178.5C 747.595,176.214 748.262,174.214 749.5,172.5 Z"/></g>
<g><path style="opacity:0.999" fill="#7a9197" d="M 628.5,204.5 C 621.636,219.314 616.636,234.648 613.5,250.5C 613.81,237.924 616.644,225.924 622,214.5C 623.444,210.589 625.611,207.256 628.5,204.5 Z"/></g>
<g><path style="opacity:1" fill="#000b48" d="M 558.5,211.5 C 560.167,211.5 561.833,211.5 563.5,211.5C 563.5,214.167 563.5,216.833 563.5,219.5C 566.167,219.167 568.833,218.833 571.5,218.5C 571.739,220.467 571.406,222.301 570.5,224C 567.854,224.497 565.187,224.664 562.5,224.5C 562.167,227.833 561.833,231.167 561.5,234.5C 559.833,234.5 558.167,234.5 556.5,234.5C 556.508,231.455 556.841,228.455 557.5,225.5C 555.08,225.292 552.747,225.626 550.5,226.5C 546.968,225.842 545.968,224.008 547.5,221C 551.17,220.452 554.837,219.952 558.5,219.5C 558.5,216.833 558.5,214.167 558.5,211.5 Z"/></g>
<g><path style="opacity:1" fill="#c3ccd3" d="M 613.5,253.5 C 613.5,252.5 613.5,251.5 613.5,250.5C 616.636,234.648 621.636,219.314 628.5,204.5C 630.746,202.351 632.246,199.684 633,196.5C 635.664,195.002 637.83,193.002 639.5,190.5C 641.156,189.854 642.823,189.187 644.5,188.5C 645.167,188.833 645.833,189.167 646.5,189.5C 643.182,193.318 639.682,196.985 636,200.5C 626.146,217.228 619.98,235.228 617.5,254.5C 616.041,254.567 614.708,254.234 613.5,253.5 Z"/></g>
<g><path style="opacity:1" fill="#7c8082" d="M 700.5,199.5 C 700.5,200.5 700.5,201.5 700.5,202.5C 684.604,201.147 671.104,205.48 660,215.5C 659.667,215.167 659.333,214.833 659,214.5C 656.671,218.026 654.005,221.359 651,224.5C 644.449,236.859 641.282,249.692 641.5,263C 643.116,266.231 644.45,269.564 645.5,273C 645.167,273.333 644.833,273.667 644.5,274C 645.939,274.991 646.939,276.324 647.5,278C 646.956,278.717 646.289,279.217 645.5,279.5C 638.507,267.827 635.84,255.161 637.5,241.5C 639.266,233.433 642.099,225.767 646,218.5C 659.968,199.752 678.135,193.418 700.5,199.5 Z"/></g>
<g><path style="opacity:0.201" fill="#c9cbba" d="M 747.5,178.5 C 750.562,182.745 753.895,186.912 757.5,191C 757.167,191.333 756.833,191.667 756.5,192C 760.463,200.064 764.13,208.231 767.5,216.5C 767.888,221.276 767.888,226.109 767.5,231C 768.482,231.381 769.148,232.214 769.5,233.5C 769.263,236.063 768.763,236.063 768,233.5C 767.187,238.815 766.521,244.148 766,249.5C 765.764,251.119 764.931,252.119 763.5,252.5C 764.561,241.753 763.061,231.42 759,221.5C 754.57,211.629 749.403,202.296 743.5,193.5C 745.198,188.691 746.531,183.691 747.5,178.5 Z"/></g>
<g><path style="opacity:0.08" fill="#e3e4d2" d="M 265.5,195.5 C 266.473,197.948 266.806,200.615 266.5,203.5C 261.642,216.148 260.142,229.148 262,242.5C 262.333,241.5 262.667,240.5 263,239.5C 263.333,244.833 263.667,250.167 264,255.5C 264.333,254.5 264.667,253.5 265,252.5C 265.871,260.829 267.705,268.829 270.5,276.5C 269.5,276.5 268.5,276.5 267.5,276.5C 266.517,272.368 264.85,268.534 262.5,265C 254.347,241.37 255.347,218.203 265.5,195.5 Z"/></g>
<g><path style="opacity:1" fill="#4e5470" d="M 360.5,173.5 C 359.96,176.47 358.627,178.97 356.5,181C 356.735,181.873 357.069,182.707 357.5,183.5C 374.378,185.773 388.712,193.106 400.5,205.5C 420.567,230.839 423.067,257.839 408,286.5C 394.071,306.383 374.905,316.717 350.5,317.5C 315.198,315.03 293.032,296.697 284,262.5C 279.965,239.613 285.965,219.946 302,203.5C 302.494,201.866 302.66,200.199 302.5,198.5C 300.167,198.5 297.833,198.5 295.5,198.5C 295.842,197.662 296.508,197.328 297.5,197.5C 299.696,197.41 301.863,197.077 304,196.5C 306.817,196.544 308.984,197.71 310.5,200C 305.333,203.833 300.833,208.333 297,213.5C 283.337,235.425 282.004,258.091 293,281.5C 309.571,307.863 333.405,318.696 364.5,314C 380.655,309.988 393.321,301.155 402.5,287.5C 402.5,287.167 402.5,286.833 402.5,286.5C 403.167,286.5 403.5,286.167 403.5,285.5C 406.726,282.07 409.226,278.07 411,273.5C 420.191,237.523 409.024,210.189 377.5,191.5C 368.816,187.912 359.816,185.745 350.5,185C 351.641,184.259 351.641,183.425 350.5,182.5C 351.912,181.194 353.579,180.36 355.5,180C 355.167,179.667 354.833,179.333 354.5,179C 357.411,178.302 358.077,176.802 356.5,174.5C 357.959,174.567 359.292,174.234 360.5,173.5 Z"/></g>
<g><path style="opacity:1" fill="#919490" d="M 737.5,264.5 C 735.152,272.278 731.152,278.945 725.5,284.5C 725.565,284.062 725.399,283.728 725,283.5C 712.329,296.401 697.496,300.235 680.5,295C 665.176,291.009 655.009,281.509 650,266.5C 649.712,254.116 651.712,242.449 656,231.5C 668.321,212.258 685.488,205.758 707.5,212C 717.158,216.327 724.992,222.827 731,231.5C 736.469,241.6 737.969,251.933 735.5,262.5C 735.855,263.522 736.522,264.189 737.5,264.5 Z"/></g>
<g><path style="opacity:1" fill="#8097aa" d="M 419.5,212.5 C 421.719,216.207 424.053,220.04 426.5,224C 426.5,225.333 426.5,226.667 426.5,228C 427.701,228.903 428.535,230.069 429,231.5C 430.22,240.774 430.887,250.107 431,259.5C 431.547,254.266 432.38,254.266 433.5,259.5C 432.24,264.15 430.574,268.65 428.5,273C 429.059,273.725 429.392,274.558 429.5,275.5C 427.423,283.649 424.257,291.316 420,298.5C 414.024,303.642 408.19,308.975 402.5,314.5C 373.706,335.207 343.372,337.707 311.5,322C 304.554,315.874 297.221,310.374 289.5,305.5C 289.5,303.833 289.5,302.167 289.5,300.5C 291.228,302.226 293.228,303.559 295.5,304.5C 315.655,320.773 338.655,326.607 364.5,322C 380.346,320.162 393.179,312.995 403,300.5C 406.333,296.5 409.667,292.5 413,288.5C 414.815,284.204 417.148,280.204 420,276.5C 423.007,264.019 424.174,251.353 423.5,238.5C 423.644,229.601 422.31,220.934 419.5,212.5 Z"/></g>
<g><path style="opacity:1" fill="#7d8083" d="M 395.5,222.5 C 397.124,227.374 398.124,232.374 398.5,237.5C 396.305,238.608 394.305,238.441 392.5,237C 393.354,235.119 393.021,233.286 391.5,231.5C 390.203,228.369 388.036,226.036 385,224.5C 384.667,223.5 384.333,222.5 384,221.5C 377.857,217.352 372.024,212.852 366.5,208C 358.689,205.563 350.855,204.063 343,203.5C 340.667,204.833 338.333,204.833 336,203.5C 333.957,205.521 331.957,205.854 330,204.5C 324.548,206.286 319.882,209.286 316,213.5C 310.981,221.167 305.648,228.5 300,235.5C 296.491,245.839 295.324,256.173 296.5,266.5C 294.905,263.443 293.738,260.11 293,256.5C 292.309,248.805 292.475,241.139 293.5,233.5C 294.442,230.345 295.776,227.345 297.5,224.5C 297.393,226.379 297.893,226.712 299,225.5C 301.389,220.446 304.555,215.946 308.5,212C 314.899,208.814 321.232,205.481 327.5,202C 326.207,201.51 324.873,201.343 323.5,201.5C 331.768,199.738 340.268,198.738 349,198.5C 361.451,197.968 373.285,200.801 384.5,207C 389.195,211.514 392.862,216.681 395.5,222.5 Z"/></g>
<g><path style="opacity:1" fill="#eeeec9" d="M 680.5,239.5 C 675.877,240.592 674.044,238.925 675,234.5C 676.039,233.29 677.206,232.29 678.5,231.5C 679.667,230.185 681.167,229.519 683,229.5C 686.739,230.007 690.406,230.673 694,231.5C 694.667,232.5 694.667,233.5 694,234.5C 693.186,236.282 692.019,237.782 690.5,239C 694.765,240.2 695.431,242.367 692.5,245.5C 694.131,250.357 693.797,255.023 691.5,259.5C 692.5,260.833 693.5,262.167 694.5,263.5C 694,264.881 693,265.547 691.5,265.5C 688.54,264.176 685.54,262.843 682.5,261.5C 681.012,257.79 682.345,255.623 686.5,255C 684.059,254.964 682.059,254.131 680.5,252.5C 681.421,250.244 683.088,249.244 685.5,249.5C 685.5,247.5 685.5,245.5 685.5,243.5C 682.6,243.592 680.933,242.259 680.5,239.5 Z"/></g>
<g><path style="opacity:0.148" fill="#d0d1c1" d="M 266.5,203.5 C 268.321,207.01 271.321,208.343 275.5,207.5C 266.299,230.113 264.966,253.113 271.5,276.5C 271.167,276.5 270.833,276.5 270.5,276.5C 267.705,268.829 265.871,260.829 265,252.5C 264.667,253.5 264.333,254.5 264,255.5C 263.667,250.167 263.333,244.833 263,239.5C 262.667,240.5 262.333,241.5 262,242.5C 260.142,229.148 261.642,216.148 266.5,203.5 Z"/></g>
<g><path style="opacity:0.999" fill="#2a315f" d="M 284.5,201.5 C 285.29,202.794 286.29,203.961 287.5,205C 275.369,222.366 271.202,241.532 275,262.5C 275.929,268.26 277.262,273.927 279,279.5C 284.024,288.233 289.524,296.567 295.5,304.5C 293.228,303.559 291.228,302.226 289.5,300.5C 287.833,298.167 285.833,296.167 283.5,294.5C 280.403,290.746 277.737,286.746 275.5,282.5C 274.649,280.118 273.316,278.118 271.5,276.5C 264.966,253.113 266.299,230.113 275.5,207.5C 277.597,204.275 280.597,202.275 284.5,201.5 Z"/></g>
<g><path style="opacity:1" fill="#beccc7" d="M 704.5,231.5 C 704.423,230.25 703.756,229.417 702.5,229C 695.131,228.516 687.798,228.183 680.5,228C 679.177,228.816 678.511,229.983 678.5,231.5C 677.206,232.29 676.039,233.29 675,234.5C 674.044,238.925 675.877,240.592 680.5,239.5C 679.223,241.148 678.223,242.982 677.5,245C 675.527,245.495 673.527,245.662 671.5,245.5C 674.22,249.688 676.387,254.354 678,259.5C 679.167,260.667 680.333,261.833 681.5,263C 678.124,263.307 676.79,265.14 677.5,268.5C 679.716,268.275 681.383,269.108 682.5,271C 686.755,271.796 690.921,271.629 695,270.5C 695.202,268.744 695.702,267.078 696.5,265.5C 707.206,256.347 709.872,245.347 704.5,232.5C 706.833,232.5 709.167,232.5 711.5,232.5C 711.428,238.258 714.094,240.425 719.5,239C 721.658,240.312 721.991,241.978 720.5,244C 718.833,244.333 717.167,244.667 715.5,245C 716.603,246.68 716.27,248.18 714.5,249.5C 716.743,250.474 719.076,250.808 721.5,250.5C 721.714,252.144 721.38,253.644 720.5,255C 717.529,255.794 714.529,256.461 711.5,257C 712.793,257.49 714.127,257.657 715.5,257.5C 715.5,259.167 715.5,260.833 715.5,262.5C 713.801,262.34 712.134,262.506 710.5,263C 709.87,264.892 708.87,266.559 707.5,268C 705.22,268.233 703.22,269.066 701.5,270.5C 707.128,271.495 712.794,271.829 718.5,271.5C 719.176,275.49 717.51,277.157 713.5,276.5C 698.523,276.332 683.523,276.165 668.5,276C 664.911,276.29 663.411,274.79 664,271.5C 666.362,269.947 667.862,267.78 668.5,265C 669.793,264.51 671.127,264.343 672.5,264.5C 671.82,260.678 669.487,259.011 665.5,259.5C 665.277,257.658 664.943,255.825 664.5,254C 664.755,252.674 665.422,251.674 666.5,251C 666.043,250.586 665.709,250.086 665.5,249.5C 666.751,248.369 667.751,247.036 668.5,245.5C 667.175,243.306 665.508,241.306 663.5,239.5C 663.977,238.522 664.643,237.689 665.5,237C 663.676,236.34 662.343,235.173 661.5,233.5C 661.738,231.596 662.738,230.262 664.5,229.5C 667.167,229.833 669.833,230.167 672.5,230.5C 672.167,227.5 673.5,226.167 676.5,226.5C 676.34,224.801 676.506,223.134 677,221.5C 677.893,220.919 678.893,220.585 680,220.5C 684.013,221.753 688.013,221.753 692,220.5C 693.434,220.93 694.601,221.764 695.5,223C 701.825,223.5 708.158,223.666 714.5,223.5C 715.244,226.95 713.91,228.616 710.5,228.5C 710.5,229.5 710.5,230.5 710.5,231.5C 708.5,231.5 706.5,231.5 704.5,231.5 Z"/></g>
<g><path style="opacity:1" fill="#e0e4d0" d="M 704.5,231.5 C 704.5,231.833 704.5,232.167 704.5,232.5C 709.872,245.347 707.206,256.347 696.5,265.5C 695.702,267.078 695.202,268.744 695,270.5C 690.921,271.629 686.755,271.796 682.5,271C 681.383,269.108 679.716,268.275 677.5,268.5C 676.79,265.14 678.124,263.307 681.5,263C 680.333,261.833 679.167,260.667 678,259.5C 676.387,254.354 674.22,249.688 671.5,245.5C 673.527,245.662 675.527,245.495 677.5,245C 678.223,242.982 679.223,241.148 680.5,239.5C 680.933,242.259 682.6,243.592 685.5,243.5C 685.5,245.5 685.5,247.5 685.5,249.5C 683.088,249.244 681.421,250.244 680.5,252.5C 682.059,254.131 684.059,254.964 686.5,255C 682.345,255.623 681.012,257.79 682.5,261.5C 685.54,262.843 688.54,264.176 691.5,265.5C 693,265.547 694,264.881 694.5,263.5C 693.5,262.167 692.5,260.833 691.5,259.5C 693.797,255.023 694.131,250.357 692.5,245.5C 695.431,242.367 694.765,240.2 690.5,239C 692.019,237.782 693.186,236.282 694,234.5C 694.667,233.5 694.667,232.5 694,231.5C 690.406,230.673 686.739,230.007 683,229.5C 681.167,229.519 679.667,230.185 678.5,231.5C 678.511,229.983 679.177,228.816 680.5,228C 687.798,228.183 695.131,228.516 702.5,229C 703.756,229.417 704.423,230.25 704.5,231.5 Z"/></g>
<g><path style="opacity:0.095" fill="#eaebd3" d="M 750.5,169.5 C 780.204,196.965 789.371,230.298 778,269.5C 771.069,289.576 758.569,304.91 740.5,315.5C 737.272,314.586 733.939,314.253 730.5,314.5C 729.602,313.842 728.602,313.176 727.5,312.5C 730.783,309.518 734.449,307.018 738.5,305C 742.697,299.313 747.03,293.813 751.5,288.5C 752.397,289.598 753.23,289.598 754,288.5C 755.752,285.328 757.752,282.328 760,279.5C 760.333,280.5 760.667,281.5 761,282.5C 765.086,276.328 768.086,269.661 770,262.5C 770.333,263.5 770.667,264.5 771,265.5C 772.755,264.33 773.755,262.663 774,260.5C 774.333,261.833 774.667,263.167 775,264.5C 780.542,244.411 779.375,224.744 771.5,205.5C 772.167,205.167 772.833,204.833 773.5,204.5C 768.102,191.784 760.102,181.117 749.5,172.5C 749.263,171.209 749.596,170.209 750.5,169.5 Z"/></g>
<g><path style="opacity:1" fill="#a1a59c" d="M 661.5,233.5 C 662.343,235.173 663.676,236.34 665.5,237C 664.643,237.689 663.977,238.522 663.5,239.5C 665.508,241.306 667.175,243.306 668.5,245.5C 667.751,247.036 666.751,248.369 665.5,249.5C 665.709,250.086 666.043,250.586 666.5,251C 665.422,251.674 664.755,252.674 664.5,254C 664.943,255.825 665.277,257.658 665.5,259.5C 669.487,259.011 671.82,260.678 672.5,264.5C 671.127,264.343 669.793,264.51 668.5,265C 667.862,267.78 666.362,269.947 664,271.5C 663.411,274.79 664.911,276.29 668.5,276C 683.523,276.165 698.523,276.332 713.5,276.5C 717.51,277.157 719.176,275.49 718.5,271.5C 712.794,271.829 707.128,271.495 701.5,270.5C 703.22,269.066 705.22,268.233 707.5,268C 708.87,266.559 709.87,264.892 710.5,263C 712.134,262.506 713.801,262.34 715.5,262.5C 715.5,260.833 715.5,259.167 715.5,257.5C 714.127,257.657 712.793,257.49 711.5,257C 714.529,256.461 717.529,255.794 720.5,255C 721.38,253.644 721.714,252.144 721.5,250.5C 719.076,250.808 716.743,250.474 714.5,249.5C 716.27,248.18 716.603,246.68 715.5,245C 717.167,244.667 718.833,244.333 720.5,244C 721.991,241.978 721.658,240.312 719.5,239C 714.094,240.425 711.428,238.258 711.5,232.5C 709.167,232.5 706.833,232.5 704.5,232.5C 704.5,232.167 704.5,231.833 704.5,231.5C 706.5,231.5 708.5,231.5 710.5,231.5C 710.5,230.5 710.5,229.5 710.5,228.5C 713.91,228.616 715.244,226.95 714.5,223.5C 708.158,223.666 701.825,223.5 695.5,223C 694.601,221.764 693.434,220.93 692,220.5C 688.013,221.753 684.013,221.753 680,220.5C 678.893,220.585 677.893,220.919 677,221.5C 676.506,223.134 676.34,224.801 676.5,226.5C 673.5,226.167 672.167,227.5 672.5,230.5C 669.833,230.167 667.167,229.833 664.5,229.5C 669.031,223.196 674.697,218.362 681.5,215C 694.069,212.15 705.736,214.15 716.5,221C 732.04,239.418 734.207,258.585 723,278.5C 721.167,281.667 718.667,284.167 715.5,286C 699.358,294.222 683.358,293.889 667.5,285C 662.42,278.845 658.086,272.178 654.5,265C 656.486,261.305 656.486,257.472 654.5,253.5C 656.266,247.367 657.933,241.201 659.5,235C 659.836,233.97 660.503,233.47 661.5,233.5 Z"/></g>
<g><path style="opacity:1" fill="#e2eef7" d="M 267.5,285.5 C 267.5,286.5 267.5,287.5 267.5,288.5C 267.666,292.514 267.499,296.514 267,300.5C 265.989,301.337 264.822,301.67 263.5,301.5C 263.971,294.528 263.305,287.694 261.5,281C 262.781,277.956 265.115,276.79 268.5,277.5C 268.045,279.367 267.378,281.2 266.5,283C 266.528,284.07 266.861,284.903 267.5,285.5 Z"/></g>
<g><path style="opacity:0.999" fill="#879e9f" d="M 733.5,193.5 C 736.885,194.628 740.219,194.628 743.5,193.5C 749.403,202.296 754.57,211.629 759,221.5C 763.061,231.42 764.561,241.753 763.5,252.5C 760.9,264.966 756.9,276.966 751.5,288.5C 747.03,293.813 742.697,299.313 738.5,305C 734.449,307.018 730.783,309.518 727.5,312.5C 728.602,313.176 729.602,313.842 730.5,314.5C 728.856,314.714 727.356,314.38 726,313.5C 723.948,315.058 721.781,316.392 719.5,317.5C 691.338,327.744 664.671,324.911 639.5,309C 629.418,296.671 622.084,282.837 617.5,267.5C 618.315,268.429 619.148,269.429 620,270.5C 619.814,266.516 619.814,262.516 620,258.5C 621,260.5 622,262.5 623,264.5C 623.333,263.833 623.667,263.167 624,262.5C 624.833,263.5 625.667,264.5 626.5,265.5C 626.833,265.167 627.167,264.833 627.5,264.5C 625.761,261.103 624.761,257.436 624.5,253.5C 624.701,249.576 625.201,249.576 626,253.5C 626.401,250.301 627.234,247.301 628.5,244.5C 629.165,246.698 629.832,249.031 630.5,251.5C 632.217,250.332 632.884,248.665 632.5,246.5C 633.718,248.828 634.718,251.328 635.5,254C 634.407,258.65 633.407,263.316 632.5,268C 634.103,270.68 634.937,273.513 635,276.5C 633.935,274.604 633.102,274.437 632.5,276C 637.042,289.289 645.709,299.956 658.5,308C 664.767,310.866 671.101,313.532 677.5,316C 684.5,316.667 691.5,316.667 698.5,316C 709.575,312.658 720.575,308.325 731.5,303C 741.143,295.179 748.477,285.679 753.5,274.5C 753.167,273.833 752.833,273.167 752.5,272.5C 753.802,269.428 754.802,266.262 755.5,263C 754.548,258.01 754.382,252.844 755,247.5C 754.667,248.833 754.333,250.167 754,251.5C 751.256,241.766 747.256,231.766 742,221.5C 739.304,217.639 736.137,214.306 732.5,211.5C 733.268,210.737 733.768,209.737 734,208.5C 735.171,209.893 736.671,210.727 738.5,211C 739.211,212.255 740.044,213.421 741,214.5C 741.333,214.167 741.667,213.833 742,213.5C 742.748,215.332 743.748,216.999 745,218.5C 745.667,217.833 746.333,217.167 747,216.5C 747.725,218.949 748.725,221.283 750,223.5C 749.917,219.772 749.584,216.105 749,212.5C 750.419,214.336 751.586,216.336 752.5,218.5C 753.167,219.833 753.833,219.833 754.5,218.5C 753.441,215.382 752.108,212.382 750.5,209.5C 745.66,205.888 740.66,201.722 735.5,197C 734.177,196.184 733.511,195.017 733.5,193.5 Z"/></g>
<g><path style="opacity:0.996" fill="#3e456a" d="M 363.5,172.5 C 363.393,174.903 364.393,176.736 366.5,178C 382.794,182.56 396.627,191.06 408,203.5C 414.827,214.501 419.994,226.168 423.5,238.5C 424.174,251.353 423.007,264.019 420,276.5C 417.148,280.204 414.815,284.204 413,288.5C 409.667,292.5 406.333,296.5 403,300.5C 393.179,312.995 380.346,320.162 364.5,322C 338.655,326.607 315.655,320.773 295.5,304.5C 289.524,296.567 284.024,288.233 279,279.5C 277.262,273.927 275.929,268.26 275,262.5C 271.202,241.532 275.369,222.366 287.5,205C 286.29,203.961 285.29,202.794 284.5,201.5C 285.492,201.672 286.158,201.338 286.5,200.5C 288.5,200.167 290.5,199.833 292.5,199.5C 294.379,200.341 296.379,200.675 298.5,200.5C 296.7,205.414 293.866,209.747 290,213.5C 280.477,231.971 278.143,251.304 283,271.5C 288.694,285.404 297.194,297.237 308.5,307C 338.655,325.964 367.988,324.964 396.5,304C 422.675,277.447 427.841,247.281 412,213.5C 410.185,211.595 408.185,209.928 406,208.5C 402.206,202.075 397.373,196.575 391.5,192C 382.032,186.538 372.365,182.538 362.5,180C 362.079,177.913 362.079,175.747 362.5,173.5C 362.5,172.833 362.833,172.5 363.5,172.5 Z"/></g>
<g><path style="opacity:1" fill="#6e727e" d="M 395.5,222.5 C 399.148,227.903 402.148,233.736 404.5,240C 405.102,243.126 405.435,246.293 405.5,249.5C 405.626,264.774 400.96,278.274 391.5,290C 391.728,290.399 392.062,290.565 392.5,290.5C 384.151,296.738 374.818,301.071 364.5,303.5C 364.285,305.179 364.952,306.179 366.5,306.5C 361.302,307.259 355.969,307.925 350.5,308.5C 350.337,303.999 348.67,303.332 345.5,306.5C 329.72,305.611 317.053,298.945 307.5,286.5C 317.476,293.993 328.809,297.826 341.5,298C 363.75,299.621 381.25,291.454 394,273.5C 399.451,262.797 401.451,251.463 400,239.5C 399.283,238.956 398.783,238.289 398.5,237.5C 398.124,232.374 397.124,227.374 395.5,222.5 Z"/></g>
<g><path style="opacity:1" fill="#626779" d="M 293.5,233.5 C 292.475,241.139 292.309,248.805 293,256.5C 293.738,260.11 294.905,263.443 296.5,266.5C 297.604,274.597 301.271,281.264 307.5,286.5C 317.053,298.945 329.72,305.611 345.5,306.5C 346.17,309.503 347.837,310.17 350.5,308.5C 355.969,307.925 361.302,307.259 366.5,306.5C 370.223,305.703 373.89,304.703 377.5,303.5C 377.389,304.117 377.056,304.617 376.5,305C 359.162,312.283 341.828,312.283 324.5,305C 295.888,288.955 285.555,265.122 293.5,233.5 Z"/></g>
<g><path style="opacity:1" fill="#888b89" d="M 398.5,237.5 C 398.783,238.289 399.283,238.956 400,239.5C 401.451,251.463 399.451,262.797 394,273.5C 381.25,291.454 363.75,299.621 341.5,298C 328.809,297.826 317.476,293.993 307.5,286.5C 301.271,281.264 297.604,274.597 296.5,266.5C 295.324,256.173 296.491,245.839 300,235.5C 305.648,228.5 310.981,221.167 316,213.5C 319.882,209.286 324.548,206.286 330,204.5C 331.957,205.854 333.957,205.521 336,203.5C 338.333,204.833 340.667,204.833 343,203.5C 350.855,204.063 358.689,205.563 366.5,208C 372.024,212.852 377.857,217.352 384,221.5C 384.333,222.5 384.667,223.5 385,224.5C 388.036,226.036 390.203,228.369 391.5,231.5C 393.021,233.286 393.354,235.119 392.5,237C 394.305,238.441 396.305,238.608 398.5,237.5 Z"/></g>
<g><path style="opacity:1" fill="#cfd7c9" d="M 328.5,213.5 C 332.718,216.606 337.385,217.272 342.5,215.5C 349.167,216.196 355.834,217.196 362.5,218.5C 362.67,219.822 362.337,220.989 361.5,222C 358.595,223.286 355.595,224.286 352.5,225C 356.982,227.446 361.815,228.946 367,229.5C 367.617,230.449 367.451,231.282 366.5,232C 364.19,232.497 361.857,232.663 359.5,232.5C 359.5,234.167 359.5,235.833 359.5,237.5C 361.167,237.5 362.833,237.5 364.5,237.5C 364.477,239.927 363.977,242.26 363,244.5C 361.155,245.05 359.655,246.05 358.5,247.5C 358.709,248.086 359.043,248.586 359.5,249C 363.152,249.499 366.818,249.665 370.5,249.5C 371.524,252.473 371.357,255.473 370,258.5C 360.2,259.383 360.2,260.717 370,262.5C 370.91,264.945 370.076,266.278 367.5,266.5C 363.013,266.216 359.346,267.716 356.5,271C 358.134,271.494 359.801,271.66 361.5,271.5C 361.753,273.827 361.086,275.827 359.5,277.5C 352.197,278.497 344.863,278.831 337.5,278.5C 336.821,276.332 335.821,274.332 334.5,272.5C 334.818,271.353 335.484,270.519 336.5,270C 333.499,270.094 331.499,268.761 330.5,266C 327.518,265.903 324.851,265.07 322.5,263.5C 322.574,259.774 324.074,256.774 327,254.5C 327.993,250.558 328.66,246.558 329,242.5C 329.5,242 330,241.5 330.5,241C 327.189,241.215 323.856,241.215 320.5,241C 319.446,239.612 319.28,238.112 320,236.5C 323.977,235.393 327.977,234.393 332,233.5C 332.595,232.101 332.428,230.768 331.5,229.5C 329.149,228.988 327.149,227.988 325.5,226.5C 328.301,224.927 330.968,223.094 333.5,221C 330.518,220.502 327.518,220.335 324.5,220.5C 323.699,218.958 323.366,217.292 323.5,215.5C 324.167,215.5 324.5,215.167 324.5,214.5C 325.708,213.766 327.041,213.433 328.5,213.5 Z"/></g>
<g><path style="opacity:1" fill="#a1a3a6" d="M 323.5,201.5 C 324.873,201.343 326.207,201.51 327.5,202C 321.232,205.481 314.899,208.814 308.5,212C 304.555,215.946 301.389,220.446 299,225.5C 297.893,226.712 297.393,226.379 297.5,224.5C 300.307,215.363 305.974,208.696 314.5,204.5C 317.285,202.905 320.285,201.905 323.5,201.5 Z"/></g>
<g><path style="opacity:1" fill="#9ea198" d="M 324.5,220.5 C 327.518,220.335 330.518,220.502 333.5,221C 330.968,223.094 328.301,224.927 325.5,226.5C 327.149,227.988 329.149,228.988 331.5,229.5C 332.428,230.768 332.595,232.101 332,233.5C 327.977,234.393 323.977,235.393 320,236.5C 319.28,238.112 319.446,239.612 320.5,241C 323.856,241.215 327.189,241.215 330.5,241C 330,241.5 329.5,242 329,242.5C 328.66,246.558 327.993,250.558 327,254.5C 324.074,256.774 322.574,259.774 322.5,263.5C 328.267,281.551 340.267,287.718 358.5,282C 363.082,277.757 366.082,272.591 367.5,266.5C 370.076,266.278 370.91,264.945 370,262.5C 360.2,260.717 360.2,259.383 370,258.5C 371.357,255.473 371.524,252.473 370.5,249.5C 371.427,243.189 371.594,236.856 371,230.5C 369.286,226.807 367.619,223.141 366,219.5C 364.693,218.228 363.193,217.228 361.5,216.5C 355.202,215.504 348.868,215.17 342.5,215.5C 337.385,217.272 332.718,216.606 328.5,213.5C 337.769,211.837 347.102,211.337 356.5,212C 362.198,212.843 366.531,215.676 369.5,220.5C 373.779,226.969 375.779,234.136 375.5,242C 375.263,249.623 375.263,256.956 375.5,264C 370.232,287.628 356.232,295.628 333.5,288C 327.591,284.111 322.091,279.611 317,274.5C 315.41,269.159 313.91,263.492 312.5,257.5C 312.793,252.167 313.793,247 315.5,242C 314.651,235.793 316.151,229.626 320,223.5C 321.271,222.117 322.771,221.117 324.5,220.5 Z"/></g>
<g><path style="opacity:1" fill="#90938e" d="M 323.5,215.5 C 323.366,217.292 323.699,218.958 324.5,220.5C 322.771,221.117 321.271,222.117 320,223.5C 316.151,229.626 314.651,235.793 315.5,242C 313.793,247 312.793,252.167 312.5,257.5C 313.91,263.492 315.41,269.159 317,274.5C 322.091,279.611 327.591,284.111 333.5,288C 356.232,295.628 370.232,287.628 375.5,264C 375.263,256.956 375.263,249.623 375.5,242C 375.779,234.136 373.779,226.969 369.5,220.5C 366.531,215.676 362.198,212.843 356.5,212C 347.102,211.337 337.769,211.837 328.5,213.5C 327.041,213.433 325.708,213.766 324.5,214.5C 326.076,212.269 328.243,210.603 331,209.5C 331.333,209.833 331.667,210.167 332,210.5C 354.532,203.267 370.199,210.6 379,232.5C 379.333,234.833 379.667,237.167 380,239.5C 380.333,239.167 380.667,238.833 381,238.5C 381.113,242.549 382.28,246.215 384.5,249.5C 384.291,250.086 383.957,250.586 383.5,251C 384.27,253.607 384.937,256.273 385.5,259C 385.359,261.717 385.359,264.384 385.5,267C 382.749,273.546 379.249,280.046 375,286.5C 374.667,286.167 374.333,285.833 374,285.5C 370.386,291.063 365.219,294.23 358.5,295C 351.557,295.123 344.723,295.29 338,295.5C 337.147,293.875 336.147,293.542 335,294.5C 331.404,292.865 328.071,290.865 325,288.5C 324.667,288.833 324.333,289.167 324,289.5C 319.11,284.732 314.444,279.732 310,274.5C 307.783,270.906 306.283,267.073 305.5,263C 306.853,252.915 309.02,242.748 312,232.5C 315.571,226.531 319.405,220.864 323.5,215.5 Z"/></g>
<g><path style="opacity:1" fill="#b2b5a6" d="M 322.5,263.5 C 324.851,265.07 327.518,265.903 330.5,266C 331.499,268.761 333.499,270.094 336.5,270C 335.484,270.519 334.818,271.353 334.5,272.5C 335.821,274.332 336.821,276.332 337.5,278.5C 344.863,278.831 352.197,278.497 359.5,277.5C 361.086,275.827 361.753,273.827 361.5,271.5C 359.801,271.66 358.134,271.494 356.5,271C 359.346,267.716 363.013,266.216 367.5,266.5C 366.082,272.591 363.082,277.757 358.5,282C 340.267,287.718 328.267,281.551 322.5,263.5 Z"/></g>
<g><path style="opacity:1" fill="#abada1" d="M 342.5,215.5 C 348.868,215.17 355.202,215.504 361.5,216.5C 363.193,217.228 364.693,218.228 366,219.5C 367.619,223.141 369.286,226.807 371,230.5C 371.594,236.856 371.427,243.189 370.5,249.5C 366.818,249.665 363.152,249.499 359.5,249C 359.043,248.586 358.709,248.086 358.5,247.5C 359.655,246.05 361.155,245.05 363,244.5C 363.977,242.26 364.477,239.927 364.5,237.5C 362.833,237.5 361.167,237.5 359.5,237.5C 359.5,235.833 359.5,234.167 359.5,232.5C 361.857,232.663 364.19,232.497 366.5,232C 367.451,231.282 367.617,230.449 367,229.5C 361.815,228.946 356.982,227.446 352.5,225C 355.595,224.286 358.595,223.286 361.5,222C 362.337,220.989 362.67,219.822 362.5,218.5C 355.834,217.196 349.167,216.196 342.5,215.5 Z"/></g>
<g><path style="opacity:1" fill="#ecedcc" d="M 339.5,223.5 C 343.842,224.951 348.176,226.617 352.5,228.5C 353.645,230.635 353.645,232.801 352.5,235C 353.5,236.667 354.5,238.333 355.5,240C 355.012,241.584 354.012,242.751 352.5,243.5C 354.095,249.144 353.429,254.477 350.5,259.5C 351.711,260.72 351.711,261.887 350.5,263C 352.863,263.589 353.863,265.089 353.5,267.5C 347.824,267.666 342.157,267.499 336.5,267C 335.33,265.245 333.663,264.245 331.5,264C 329.789,262.867 329.289,261.367 330,259.5C 333.679,258.206 337.179,256.539 340.5,254.5C 339.332,252.783 337.665,252.116 335.5,252.5C 335.141,250.234 335.808,248.401 337.5,247C 336.778,242.796 336.611,238.629 337,234.5C 339.28,232.963 341.78,231.797 344.5,231C 337.579,231.611 335.912,229.111 339.5,223.5 Z"/></g>
<g><path style="opacity:1" fill="#92a5a1" d="M 732.5,211.5 C 736.137,214.306 739.304,217.639 742,221.5C 747.256,231.766 751.256,241.766 754,251.5C 754.333,250.167 754.667,248.833 755,247.5C 754.382,252.844 754.548,258.01 755.5,263C 754.802,266.262 753.802,269.428 752.5,272.5C 752.833,273.167 753.167,273.833 753.5,274.5C 748.477,285.679 741.143,295.179 731.5,303C 720.575,308.325 709.575,312.658 698.5,316C 691.5,316.667 684.5,316.667 677.5,316C 671.101,313.532 664.767,310.866 658.5,308C 645.709,299.956 637.042,289.289 632.5,276C 633.102,274.437 633.935,274.604 635,276.5C 634.937,273.513 634.103,270.68 632.5,268C 633.407,263.316 634.407,258.65 635.5,254C 634.718,251.328 633.718,248.828 632.5,246.5C 632.393,244.621 632.893,244.288 634,245.5C 634.498,243.456 635.665,242.122 637.5,241.5C 635.84,255.161 638.507,267.827 645.5,279.5C 646.58,282.135 648.246,284.135 650.5,285.5C 647.971,284.457 647.138,285.457 648,288.5C 649.715,290.759 651.548,292.926 653.5,295C 659.287,297.394 664.954,300.06 670.5,303C 675.165,304.337 679.832,304.503 684.5,303.5C 683.051,302.828 681.718,302.161 680.5,301.5C 690.221,302.22 699.887,301.386 709.5,299C 714.044,295.87 718.377,292.536 722.5,289C 723.883,287.729 724.883,286.229 725.5,284.5C 731.152,278.945 735.152,272.278 737.5,264.5C 740.319,258.377 741.653,251.877 741.5,245C 741.055,226.269 732.389,213.269 715.5,206C 711.353,204.891 707.353,203.724 703.5,202.5C 703.586,201.504 703.252,200.671 702.5,200C 708.701,200.777 714.701,202.443 720.5,205C 722.527,207.681 725.193,209.347 728.5,210C 729.126,210.75 729.626,211.584 730,212.5C 730.838,211.001 731.671,210.668 732.5,211.5 Z"/></g>
<g><path style="opacity:0.908" fill="#e3eef9" d="M 251.5,316.5 C 249.824,315.817 249.157,314.483 249.5,312.5C 248.864,305.989 248.864,299.655 249.5,293.5C 251.993,292.226 254.659,291.56 257.5,291.5C 257.5,292.833 257.5,294.167 257.5,295.5C 255.856,295.286 254.356,295.62 253,296.5C 252.86,299.981 253.027,303.481 253.5,307C 253.003,310.241 252.336,313.408 251.5,316.5 Z"/></g>
<g><path style="opacity:1" fill="#b5bbbb" d="M 402.5,286.5 C 402.5,286.833 402.5,287.167 402.5,287.5C 394.703,293.622 386.37,298.956 377.5,303.5C 373.89,304.703 370.223,305.703 366.5,306.5C 364.952,306.179 364.285,305.179 364.5,303.5C 374.818,301.071 384.151,296.738 392.5,290.5C 395.245,289.263 397.578,287.43 399.5,285C 401.157,284.275 402.157,284.775 402.5,286.5 Z"/></g>
<g><path style="opacity:1" fill="#c0c7c2" d="M 650.5,285.5 C 658.355,294.651 668.355,299.984 680.5,301.5C 681.718,302.161 683.051,302.828 684.5,303.5C 679.832,304.503 675.165,304.337 670.5,303C 664.954,300.06 659.287,297.394 653.5,295C 651.548,292.926 649.715,290.759 648,288.5C 647.138,285.457 647.971,284.457 650.5,285.5 Z"/></g>
<g><path style="opacity:1" fill="#ced7d3" d="M 734.5,287.5 C 735.978,287.238 737.311,287.571 738.5,288.5C 730.626,297.709 721.293,305.043 710.5,310.5C 708.512,309.711 708.179,308.545 709.5,307C 719.165,302.164 727.498,295.664 734.5,287.5 Z"/></g>
<g><path style="opacity:1" fill="#bec4c1" d="M 350.5,308.5 C 347.837,310.17 346.17,309.503 345.5,306.5C 348.67,303.332 350.337,303.999 350.5,308.5 Z"/></g>
<g><path style="opacity:1" fill="#506d85" d="M 642.5,177.5 C 643.391,178.11 644.391,178.443 645.5,178.5C 647.621,178.325 649.621,178.659 651.5,179.5C 646.901,182.429 642.901,186.096 639.5,190.5C 637.83,193.002 635.664,195.002 633,196.5C 632.246,199.684 630.746,202.351 628.5,204.5C 625.611,207.256 623.444,210.589 622,214.5C 616.644,225.924 613.81,237.924 613.5,250.5C 613.5,251.5 613.5,252.5 613.5,253.5C 614.467,258.38 615.801,263.046 617.5,267.5C 622.084,282.837 629.418,296.671 639.5,309C 664.671,324.911 691.338,327.744 719.5,317.5C 719.815,321.371 719.482,325.038 718.5,328.5C 682.695,337.397 651.862,328.73 626,302.5C 606.538,274.897 603.038,245.564 615.5,214.5C 620.309,206.898 625.142,199.231 630,191.5C 633.552,188.281 637.385,185.448 641.5,183C 641.167,182.667 640.833,182.333 640.5,182C 641.267,180.53 641.933,179.03 642.5,177.5 Z"/></g>
<g><path style="opacity:1" fill="#30506e" d="M 275.5,282.5 C 277.737,286.746 280.403,290.746 283.5,294.5C 282.903,294.735 282.57,295.235 282.5,296C 284.715,318.551 287.381,341.051 290.5,363.5C 286.176,363.927 281.842,364.261 277.5,364.5C 274.479,338.99 271.145,313.656 267.5,288.5C 267.5,287.5 267.5,286.5 267.5,285.5C 269.857,283.902 272.523,282.902 275.5,282.5 Z"/></g>
<g><path style="opacity:0.963" fill="#577898" d="M 267.5,276.5 C 268.5,276.5 269.5,276.5 270.5,276.5C 270.833,276.5 271.167,276.5 271.5,276.5C 273.316,278.118 274.649,280.118 275.5,282.5C 272.523,282.902 269.857,283.902 267.5,285.5C 266.861,284.903 266.528,284.07 266.5,283C 267.378,281.2 268.045,279.367 268.5,277.5C 265.115,276.79 262.781,277.956 261.5,281C 263.305,287.694 263.971,294.528 263.5,301.5C 264.822,301.67 265.989,301.337 267,300.5C 267.499,296.514 267.666,292.514 267.5,288.5C 271.145,313.656 274.479,338.99 277.5,364.5C 281.842,364.261 286.176,363.927 290.5,363.5C 287.381,341.051 284.715,318.551 282.5,296C 282.57,295.235 282.903,294.735 283.5,294.5C 285.833,296.167 287.833,298.167 289.5,300.5C 289.5,302.167 289.5,303.833 289.5,305.5C 290.167,309.5 290.833,313.5 291.5,317.5C 291.5,319.167 291.5,320.833 291.5,322.5C 292.763,331.87 294.096,341.204 295.5,350.5C 294.975,355.413 296.142,359.747 299,363.5C 300.09,371.48 300.924,379.48 301.5,387.5C 307.795,387.312 313.961,386.312 320,384.5C 322.309,387.481 324.642,390.481 327,393.5C 328.009,391.975 328.509,390.308 328.5,388.5C 331.769,388.116 334.603,386.782 337,384.5C 336.577,386.903 336.744,389.237 337.5,391.5C 331.358,389.773 328.025,392.273 327.5,399C 328.054,400.551 328.72,402.051 329.5,403.5C 328.731,406.115 328.397,408.781 328.5,411.5C 329.5,411.5 330.5,411.5 331.5,411.5C 331.043,413.747 330.043,415.747 328.5,417.5C 323.365,420.123 318.032,421.123 312.5,420.5C 311.248,416.322 309.248,412.655 306.5,409.5C 307.5,409.5 308.5,409.5 309.5,409.5C 308.628,403.029 306.128,397.362 302,392.5C 301.5,392.833 301,393.167 300.5,393.5C 300.379,404.751 300.379,416.084 300.5,427.5C 297.774,408.687 295.44,389.687 293.5,370.5C 286.142,370.418 278.809,370.752 271.5,371.5C 270.514,367.557 269.848,363.557 269.5,359.5C 264.333,359.227 259.333,359.227 254.5,359.5C 253.496,347.298 252.163,335.132 250.5,323C 251.287,320.901 251.62,318.734 251.5,316.5C 252.336,313.408 253.003,310.241 253.5,307C 253.027,303.481 252.86,299.981 253,296.5C 254.356,295.62 255.856,295.286 257.5,295.5C 257.5,294.167 257.5,292.833 257.5,291.5C 254.659,291.56 251.993,292.226 249.5,293.5C 249.5,292.5 249.5,291.5 249.5,290.5C 253.167,290.5 256.833,290.5 260.5,290.5C 260.261,286.158 259.927,281.824 259.5,277.5C 262.127,276.908 264.794,276.575 267.5,276.5 Z"/></g>
<g><path style="opacity:1" fill="#567797" d="M 582.5,43.5 C 583.404,44.209 583.737,45.209 583.5,46.5C 589.8,47.9918 596.134,49.3251 602.5,50.5C 602.5,59.5 602.5,68.5 602.5,77.5C 603.959,77.5674 605.292,77.2341 606.5,76.5C 604.43,116.163 602.43,155.83 600.5,195.5C 598.354,227.132 596.687,258.798 595.5,290.5C 592.742,327.745 590.908,365.078 590,402.5C 592.655,398.177 595.488,394.011 598.5,390C 599.5,389.5 600.5,389 601.5,388.5C 604.421,389.407 607.421,389.74 610.5,389.5C 609.468,392.405 607.468,394.238 604.5,395C 606.439,395.908 607.439,397.408 607.5,399.5C 606.596,400.209 606.263,401.209 606.5,402.5C 604.837,400.507 603.67,398.174 603,395.5C 601.989,394.663 600.822,394.33 599.5,394.5C 599.674,396.861 600.007,399.194 600.5,401.5C 601.665,402.496 602.332,403.829 602.5,405.5C 601.307,408.719 599.974,411.886 598.5,415C 598.639,416.301 599.305,417.134 600.5,417.5C 600.753,419.827 600.086,421.827 598.5,423.5C 583.615,421.254 568.615,420.087 553.5,420C 552.584,419.626 551.75,419.126 551,418.5C 546.21,409.75 541.043,401.25 535.5,393C 531.541,393.158 527.541,393.325 523.5,393.5C 525.265,392.539 527.265,392.205 529.5,392.5C 529.5,391.167 529.5,389.833 529.5,388.5C 522.763,389.514 516.096,390.014 509.5,390C 505.288,396.253 502.622,403.086 501.5,410.5C 502.5,410.5 503.5,410.5 504.5,410.5C 503.223,412.148 502.223,413.982 501.5,416C 486.458,416.734 471.458,417.901 456.5,419.5C 453.859,417.196 451.192,414.862 448.5,412.5C 443.687,406.519 438.687,400.686 433.5,395C 426.508,394.5 419.508,394.334 412.5,394.5C 412.611,393.883 412.944,393.383 413.5,393C 419.853,392.513 426.186,391.847 432.5,391C 433.337,389.989 433.67,388.822 433.5,387.5C 435.017,387.511 436.184,388.177 437,389.5C 443.639,397.973 450.806,405.973 458.5,413.5C 471.002,412.305 483.502,410.972 496,409.5C 500.834,402.83 504.334,395.497 506.5,387.5C 517.893,387.323 529.227,387.323 540.5,387.5C 544.913,395.995 549.58,404.328 554.5,412.5C 563.734,414.274 573.067,414.94 582.5,414.5C 589.35,295.189 595.516,175.855 601,56.5C 595.709,54.1332 590.209,52.2999 584.5,51C 552.109,44.8807 519.442,42.8807 486.5,45C 476.509,46.7779 466.509,48.1112 456.5,49C 457.416,48.7216 458.082,48.2216 458.5,47.5C 473.451,45.3406 488.451,43.5073 503.5,42C 503.957,41.586 504.291,41.086 504.5,40.5C 498.528,39.3364 492.528,39.1697 486.5,40C 473.461,42.1791 460.461,43.6791 447.5,44.5C 453.222,42.4028 459.222,40.9028 465.5,40C 492.002,36.4089 518.669,35.7422 545.5,38C 558.06,38.6535 570.393,40.4869 582.5,43.5 Z"/></g>
<g><path style="opacity:1" fill="#557697" d="M 552.5,320.5 C 563.626,318.388 571.459,322.721 576,333.5C 581.965,350.298 576.298,360.631 559,364.5C 539.894,362.664 532.894,352.331 538,333.5C 538.837,331.156 540.171,329.156 542,327.5C 542.399,327.728 542.565,328.062 542.5,328.5C 540.647,331.208 539.647,334.208 539.5,337.5C 541.175,341.529 542.009,345.863 542,350.5C 542.707,352.081 543.54,353.581 544.5,355C 549.403,356.373 554.236,357.873 559,359.5C 569.75,357.09 574.75,350.423 574,339.5C 572.486,334.971 570.319,330.805 567.5,327C 563.414,324.947 559.08,324.113 554.5,324.5C 554.843,322.517 554.176,321.183 552.5,320.5 Z"/></g>
<g><path style="opacity:1" fill="#dbe8f4" d="M 552.5,320.5 C 554.176,321.183 554.843,322.517 554.5,324.5C 550.549,324.718 549.882,326.051 552.5,328.5C 551.174,329.642 550.174,330.976 549.5,332.5C 548.508,332.328 547.842,332.662 547.5,333.5C 546.167,333.5 544.833,333.5 543.5,333.5C 543.833,336.5 542.5,337.833 539.5,337.5C 539.647,334.208 540.647,331.208 542.5,328.5C 544.918,324.755 548.251,322.088 552.5,320.5 Z"/></g>
<g><path style="opacity:1" fill="#2a4b6a" d="M 257.5,296.5 C 259.144,296.286 260.644,296.62 262,297.5C 262.628,308.502 263.294,319.502 264,330.5C 264.867,337.835 266.367,345.001 268.5,352C 265.901,352.769 263.401,352.602 261,351.5C 259.133,333.088 257.967,314.755 257.5,296.5 Z"/></g>
<g><path style="opacity:1" fill="#6b8a97" d="M 554.5,324.5 C 559.08,324.113 563.414,324.947 567.5,327C 570.319,330.805 572.486,334.971 574,339.5C 574.75,350.423 569.75,357.09 559,359.5C 554.236,357.873 549.403,356.373 544.5,355C 543.54,353.581 542.707,352.081 542,350.5C 542.009,345.863 541.175,341.529 539.5,337.5C 542.5,337.833 543.833,336.5 543.5,333.5C 544.833,333.5 546.167,333.5 547.5,333.5C 548.319,337.853 550.652,341.353 554.5,344C 551.588,345.858 550.088,348.358 550,351.5C 551.133,353.211 552.633,353.711 554.5,353C 556.564,346.282 559.231,345.949 562.5,352C 566.088,352.611 567.254,351.111 566,347.5C 560.732,344.189 560.732,340.522 566,336.5C 567.254,332.889 566.088,331.389 562.5,332C 560.998,334.544 559.164,336.71 557,338.5C 554.454,337.548 552.954,335.715 552.5,333C 551.552,332.517 550.552,332.351 549.5,332.5C 550.174,330.976 551.174,329.642 552.5,328.5C 549.882,326.051 550.549,324.718 554.5,324.5 Z"/></g>
<g><path style="opacity:1" fill="#385a7c" d="M 595.5,290.5 C 607.755,313.586 625.755,330.753 649.5,342C 670.39,352.345 692.39,356.179 715.5,353.5C 714.225,364.14 713.059,374.807 712,385.5C 711.471,390.688 710.304,395.688 708.5,400.5C 703.025,401.76 697.525,401.76 692,400.5C 690.077,401.492 688.244,402.659 686.5,404C 677.83,404.095 669.163,404.095 660.5,404C 657.047,409.121 653.214,413.954 649,418.5C 645.139,411.438 641.305,404.438 637.5,397.5C 634.742,395.299 632.076,392.299 629.5,388.5C 623.227,389.46 616.893,389.793 610.5,389.5C 607.421,389.74 604.421,389.407 601.5,388.5C 600.5,389 599.5,389.5 598.5,390C 595.488,394.011 592.655,398.177 590,402.5C 590.908,365.078 592.742,327.745 595.5,290.5 Z"/></g>
<g><path style="opacity:1" fill="#557697" d="M 547.5,333.5 C 547.842,332.662 548.508,332.328 549.5,332.5C 550.552,332.351 551.552,332.517 552.5,333C 552.954,335.715 554.454,337.548 557,338.5C 559.164,336.71 560.998,334.544 562.5,332C 566.088,331.389 567.254,332.889 566,336.5C 560.732,340.522 560.732,344.189 566,347.5C 567.254,351.111 566.088,352.611 562.5,352C 559.231,345.949 556.564,346.282 554.5,353C 552.633,353.711 551.133,353.211 550,351.5C 550.088,348.358 551.588,345.858 554.5,344C 550.652,341.353 548.319,337.853 547.5,333.5 Z"/></g>
<g><path style="opacity:0.961" fill="#557697" d="M 730.5,314.5 C 733.939,314.253 737.272,314.586 740.5,315.5C 740.5,318.167 740.5,320.833 740.5,323.5C 743.5,323.5 746.5,323.5 749.5,323.5C 748.971,333.158 748.638,342.825 748.5,352.5C 747.447,360.062 747.447,367.562 748.5,375C 743.202,376.995 737.868,378.995 732.5,381C 731.663,382.011 731.33,383.178 731.5,384.5C 726.168,385.5 720.835,386.5 715.5,387.5C 713.92,393.925 713.587,400.092 714.5,406C 706.298,470.446 698.632,534.946 691.5,599.5C 668.815,602.002 646.148,604.669 623.5,607.5C 605.591,651.821 587.257,695.988 568.5,740C 568.957,740.414 569.291,740.914 569.5,741.5C 549.18,751.66 529.18,761.66 509.5,771.5C 484.279,763.595 458.779,756.595 433,750.5C 416.736,703.708 400.069,657.042 383,610.5C 381.951,608.616 380.451,607.282 378.5,606.5C 368.893,605.72 359.393,604.387 350,602.5C 348.893,602.585 347.893,602.919 347,603.5C 343.621,601.462 340.121,601.129 336.5,602.5C 334.852,601.073 332.852,600.24 330.5,600C 327.776,599.73 325.109,599.23 322.5,598.5C 321.833,598.833 321.167,599.167 320.5,599.5C 318.986,588.039 316.986,576.705 314.5,565.5C 313.5,552.161 312.5,538.828 311.5,525.5C 307.753,494.524 304.086,463.524 300.5,432.5C 301.833,432.5 303.167,432.5 304.5,432.5C 304.5,426.833 304.5,421.167 304.5,415.5C 311.855,474.356 318.855,533.356 325.5,592.5C 340.188,593.963 354.855,595.63 369.5,597.5C 367.932,542.518 367.099,487.518 367,432.5C 366.825,428.789 366.325,425.122 365.5,421.5C 364.28,422.711 363.113,422.711 362,421.5C 359.928,414.452 357.761,407.452 355.5,400.5C 357.903,400.448 360.236,400.781 362.5,401.5C 364.279,405.595 365.612,409.928 366.5,414.5C 370.5,414.833 374.5,415.167 378.5,415.5C 376.42,409.68 374.087,404.014 371.5,398.5C 371.33,397.178 371.663,396.011 372.5,395C 369.244,388.683 364.244,384.183 357.5,381.5C 357.833,381.167 358.167,380.833 358.5,380.5C 362.644,381.732 366.81,382.732 371,383.5C 374.97,393.438 379.47,403.104 384.5,412.5C 388.833,413.833 393.167,413.833 397.5,412.5C 399.53,408.439 401.53,404.439 403.5,400.5C 404.043,400.56 404.376,400.893 404.5,401.5C 402.945,403.943 402.278,406.61 402.5,409.5C 404.199,409.473 405.533,408.806 406.5,407.5C 405.268,411.695 403.935,415.862 402.5,420C 392.877,419.872 383.211,420.039 373.5,420.5C 373.505,480.074 374.171,539.574 375.5,599C 416.795,605.399 458.128,611.566 499.5,617.5C 561.165,609.417 622.832,601.417 684.5,593.5C 691.66,539.552 698.16,485.552 704,431.5C 702.56,434.335 700.727,434.835 698.5,433C 695.854,432.503 693.187,432.336 690.5,432.5C 690.71,425.778 690.21,419.112 689,412.5C 688,411.5 687,410.5 686,409.5C 682.525,413.104 679.525,417.104 677,421.5C 675.991,423.025 675.491,424.692 675.5,426.5C 665.84,427.259 656.174,427.426 646.5,427C 645.667,426.167 644.833,425.333 644,424.5C 641.803,417.773 638.803,411.439 635,405.5C 630.961,407.796 626.627,409.13 622,409.5C 616.946,409.124 611.779,408.124 606.5,406.5C 606.5,405.167 606.5,403.833 606.5,402.5C 612.167,402.5 617.833,402.5 623.5,402.5C 627.437,402.207 631.27,402.54 635,403.5C 636.559,401.783 637.392,399.783 637.5,397.5C 641.305,404.438 645.139,411.438 649,418.5C 653.214,413.954 657.047,409.121 660.5,404C 669.163,404.095 677.83,404.095 686.5,404C 688.244,402.659 690.077,401.492 692,400.5C 697.525,401.76 703.025,401.76 708.5,400.5C 710.304,395.688 711.471,390.688 712,385.5C 713.059,374.807 714.225,364.14 715.5,353.5C 716.241,346.793 717.241,340.127 718.5,333.5C 718.5,331.833 718.5,330.167 718.5,328.5C 719.482,325.038 719.815,321.371 719.5,317.5C 721.781,316.392 723.948,315.058 726,313.5C 727.356,314.38 728.856,314.714 730.5,314.5 Z"/></g>
<g><path style="opacity:1" fill="#2e4e6d" d="M 726.5,320.5 C 728.833,320.5 731.167,320.5 733.5,320.5C 732.028,339.891 730.028,359.224 727.5,378.5C 724.873,379.092 722.206,379.425 719.5,379.5C 721.185,359.714 723.518,340.047 726.5,320.5 Z"/></g>
<g><path style="opacity:1" fill="#2a4b6a" d="M 738.5,330.5 C 739.833,330.5 741.167,330.5 742.5,330.5C 742.311,344.171 741.978,357.838 741.5,371.5C 739.194,371.993 736.861,372.326 734.5,372.5C 735.439,358.444 736.772,344.444 738.5,330.5 Z"/></g>
<g><path style="opacity:1" fill="#849ea5" d="M 348.5,384.5 C 352.622,384.697 356.622,385.53 360.5,387C 359.672,387.915 358.672,388.581 357.5,389C 352.833,389.667 348.167,389.667 343.5,389C 343.167,388.667 342.833,388.333 342.5,388C 344.727,387.059 346.727,385.892 348.5,384.5 Z"/></g>
<g><path style="opacity:1" fill="#dde9f5" d="M 433.5,387.5 C 433.67,388.822 433.337,389.989 432.5,391C 426.186,391.847 419.853,392.513 413.5,393C 412.944,393.383 412.611,393.883 412.5,394.5C 409.727,398.385 407.727,402.718 406.5,407.5C 405.533,408.806 404.199,409.473 402.5,409.5C 402.278,406.61 402.945,403.943 404.5,401.5C 404.376,400.893 404.043,400.56 403.5,400.5C 403.351,399.448 403.517,398.448 404,397.5C 406.176,395.125 408.343,392.792 410.5,390.5C 418.036,388.646 425.702,387.646 433.5,387.5 Z"/></g>
<g><path style="opacity:1" fill="#ddeaf6" d="M 523.5,393.5 C 519.418,393.344 515.418,393.844 511.5,395C 508.679,399.969 506.346,405.136 504.5,410.5C 503.5,410.5 502.5,410.5 501.5,410.5C 502.622,403.086 505.288,396.253 509.5,390C 516.096,390.014 522.763,389.514 529.5,388.5C 529.5,389.833 529.5,391.167 529.5,392.5C 527.265,392.205 525.265,392.539 523.5,393.5 Z"/></g>
<g><path style="opacity:1" fill="#6c89a1" d="M 637.5,397.5 C 637.392,399.783 636.559,401.783 635,403.5C 631.27,402.54 627.437,402.207 623.5,402.5C 623.5,401.167 623.5,399.833 623.5,398.5C 618.073,398.218 612.74,398.551 607.5,399.5C 607.439,397.408 606.439,395.908 604.5,395C 607.468,394.238 609.468,392.405 610.5,389.5C 616.893,389.793 623.227,389.46 629.5,388.5C 632.076,392.299 634.742,395.299 637.5,397.5 Z"/></g>
<g><path style="opacity:1" fill="#294a6a" d="M 316.5,390.5 C 321.004,394.336 324.337,399.003 326.5,404.5C 325.936,406.819 325.436,409.153 325,411.5C 322.557,412.593 320.057,413.593 317.5,414.5C 313.369,407.503 309.369,400.336 305.5,393C 309.347,392.367 313.014,391.533 316.5,390.5 Z"/></g>
<g><path style="opacity:1" fill="#e1ecf5" d="M 337.5,391.5 C 343.599,391.376 349.599,392.043 355.5,393.5C 355.768,395.099 355.434,396.432 354.5,397.5C 348.277,395.566 341.944,395.232 335.5,396.5C 333.755,401.4 332.422,406.4 331.5,411.5C 330.5,411.5 329.5,411.5 328.5,411.5C 328.397,408.781 328.731,406.115 329.5,403.5C 328.72,402.051 328.054,400.551 327.5,399C 328.025,392.273 331.358,389.773 337.5,391.5 Z"/></g>
<g><path style="opacity:1" fill="#406283" d="M 600.5,417.5 C 602.738,414.028 604.738,410.362 606.5,406.5C 611.779,408.124 616.946,409.124 622,409.5C 626.627,409.13 630.961,407.796 635,405.5C 638.803,411.439 641.803,417.773 644,424.5C 644.833,425.333 645.667,426.167 646.5,427C 656.174,427.426 665.84,427.259 675.5,426.5C 675.491,424.692 675.991,423.025 677,421.5C 679.525,417.104 682.525,413.104 686,409.5C 687,410.5 688,411.5 689,412.5C 690.21,419.112 690.71,425.778 690.5,432.5C 693.187,432.336 695.854,432.503 698.5,433C 700.727,434.835 702.56,434.335 704,431.5C 698.16,485.552 691.66,539.552 684.5,593.5C 622.832,601.417 561.165,609.417 499.5,617.5C 458.128,611.566 416.795,605.399 375.5,599C 374.171,539.574 373.505,480.074 373.5,420.5C 383.211,420.039 392.877,419.872 402.5,420C 403.935,415.862 405.268,411.695 406.5,407.5C 407.727,402.718 409.727,398.385 412.5,394.5C 419.508,394.334 426.508,394.5 433.5,395C 438.687,400.686 443.687,406.519 448.5,412.5C 451.192,414.862 453.859,417.196 456.5,419.5C 471.458,417.901 486.458,416.734 501.5,416C 502.223,413.982 503.223,412.148 504.5,410.5C 506.346,405.136 508.679,399.969 511.5,395C 515.418,393.844 519.418,393.344 523.5,393.5C 527.541,393.325 531.541,393.158 535.5,393C 541.043,401.25 546.21,409.75 551,418.5C 551.75,419.126 552.584,419.626 553.5,420C 568.615,420.087 583.615,421.254 598.5,423.5C 600.086,421.827 600.753,419.827 600.5,417.5 Z"/></g>
<g><path style="opacity:1" fill="#d5e2f0" d="M 306.5,409.5 C 306.013,408.527 305.513,407.527 305,406.5C 304.502,409.482 304.335,412.482 304.5,415.5C 304.5,421.167 304.5,426.833 304.5,432.5C 303.167,432.5 301.833,432.5 300.5,432.5C 300.5,430.833 300.5,429.167 300.5,427.5C 300.379,416.084 300.379,404.751 300.5,393.5C 301,393.167 301.5,392.833 302,392.5C 306.128,397.362 308.628,403.029 309.5,409.5C 308.5,409.5 307.5,409.5 306.5,409.5 Z"/></g>
<g><path style="opacity:1" fill="#dde9f5" d="M 606.5,402.5 C 606.5,403.833 606.5,405.167 606.5,406.5C 604.738,410.362 602.738,414.028 600.5,417.5C 599.305,417.134 598.639,416.301 598.5,415C 599.974,411.886 601.307,408.719 602.5,405.5C 602.332,403.829 601.665,402.496 600.5,401.5C 600.007,399.194 599.674,396.861 599.5,394.5C 600.822,394.33 601.989,394.663 603,395.5C 603.67,398.174 604.837,400.507 606.5,402.5 Z"/></g>
<g><path style="opacity:1" fill="#294a6a" d="M 354.5,397.5 C 354.557,398.609 354.89,399.609 355.5,400.5C 357.761,407.452 359.928,414.452 362,421.5C 363.113,422.711 364.28,422.711 365.5,421.5C 366.325,425.122 366.825,428.789 367,432.5C 367.099,487.518 367.932,542.518 369.5,597.5C 354.855,595.63 340.188,593.963 325.5,592.5C 318.855,533.356 311.855,474.356 304.5,415.5C 304.335,412.482 304.502,409.482 305,406.5C 305.513,407.527 306.013,408.527 306.5,409.5C 309.248,412.655 311.248,416.322 312.5,420.5C 318.032,421.123 323.365,420.123 328.5,417.5C 330.043,415.747 331.043,413.747 331.5,411.5C 332.422,406.4 333.755,401.4 335.5,396.5C 341.944,395.232 348.277,395.566 354.5,397.5 Z"/></g>
<g><path style="opacity:1" fill="#e0ebf3" d="M 623.5,402.5 C 617.833,402.5 612.167,402.5 606.5,402.5C 606.263,401.209 606.596,400.209 607.5,399.5C 612.74,398.551 618.073,398.218 623.5,398.5C 623.5,399.833 623.5,401.167 623.5,402.5 Z"/></g>
<g><path style="opacity:1" fill="#294a6a" d="M 600.5,401.5 C 599.459,406.58 598.126,411.58 596.5,416.5C 593.753,416.813 591.086,416.48 588.5,415.5C 591.532,410.965 594.365,406.298 597,401.5C 598.145,400.316 599.312,400.316 600.5,401.5 Z"/></g>
<g><path style="opacity:1" fill="#2d4d6c" d="M 371.5,398.5 C 374.087,404.014 376.42,409.68 378.5,415.5C 374.5,415.167 370.5,414.833 366.5,414.5C 365.612,409.928 364.279,405.595 362.5,401.5C 360.277,396.676 361.777,393.676 367,392.5C 368.755,394.358 370.255,396.358 371.5,398.5 Z"/></g>
<g><path style="opacity:1" fill="#294a6a" d="M 692.5,406.5 C 696.833,406.5 701.167,406.5 705.5,406.5C 704.202,413.225 702.202,419.725 699.5,426C 698.207,426.49 696.873,426.657 695.5,426.5C 696.035,419.509 695.035,412.842 692.5,406.5 Z"/></g>
<g><path style="opacity:1" fill="#294a6a" d="M 664.5,408.5 C 668.851,408.969 673.184,409.636 677.5,410.5C 676.093,414.067 674.093,417.234 671.5,420C 665.833,420.667 660.167,420.667 654.5,420C 657.698,415.974 661.032,412.141 664.5,408.5 Z"/></g>
<g><path style="opacity:1" fill="#000b48" d="M 389.5,444.5 C 399.436,443.27 402.103,447.103 397.5,456C 392.097,458.88 388.43,457.38 386.5,451.5C 387.054,448.913 388.054,446.58 389.5,444.5 Z"/></g>
<g><path style="opacity:1" fill="#6a8a96" d="M 392.5,484.5 C 398.665,483.829 401.165,486.496 400,492.5C 396.433,497.796 392.766,497.796 389,492.5C 387.78,488.707 388.947,486.04 392.5,484.5 Z"/></g>
<g><path style="opacity:1" fill="#010b48" d="M 311.5,525.5 C 312.5,538.828 313.5,552.161 314.5,565.5C 308.027,568.372 303.86,573.372 302,580.5C 299.135,598.136 306.469,608.136 324,610.5C 329.973,610.442 334.14,607.775 336.5,602.5C 340.121,601.129 343.621,601.462 347,603.5C 347.893,602.919 348.893,602.585 350,602.5C 359.393,604.387 368.893,605.72 378.5,606.5C 377.159,614.354 374.159,621.521 369.5,628C 371.778,633.868 374.611,639.368 378,644.5C 378.667,646.167 378.667,647.833 378,649.5C 367.791,656.294 357.291,662.628 346.5,668.5C 345.328,668.081 344.328,667.415 343.5,666.5C 342.229,660.51 339.895,655.01 336.5,650C 329.833,649.333 323.167,649.333 316.5,650C 312.993,655.181 310.16,660.681 308,666.5C 307.044,667.894 305.711,668.561 304,668.5C 293.961,664.277 283.795,660.111 273.5,656C 271.653,653.421 271.153,650.588 272,647.5C 275.055,642.058 277.555,636.392 279.5,630.5C 274.883,625.901 271.55,620.568 269.5,614.5C 262.174,615.669 254.841,616.502 247.5,617C 245.879,614.834 245.045,612.334 245,609.5C 244.894,600.476 243.727,591.643 241.5,583C 242.376,581.415 243.709,580.415 245.5,580C 251.494,579.056 257.494,578.223 263.5,577.5C 264.534,569.899 266.867,562.732 270.5,556C 266.378,550.209 261.878,544.709 257,539.5C 256.333,537.833 256.333,536.167 257,534.5C 265.127,527.766 273.794,521.766 283,516.5C 284.473,516.903 285.806,517.57 287,518.5C 288.938,524.103 292.604,528.103 298,530.5C 302.04,527.635 306.54,525.968 311.5,525.5 Z"/></g>
<g><path style="opacity:1" fill="#000b48" d="M 393.5,526.5 C 400.529,527.353 402.696,531.02 400,537.5C 394.442,541.673 390.275,540.34 387.5,533.5C 388.379,529.999 390.379,527.666 393.5,526.5 Z"/></g>
<g><path style="opacity:1" fill="#6a8a96" d="M 393.5,576.5 C 400.931,575.76 403.098,578.76 400,585.5C 395.381,589.62 392.215,588.62 390.5,582.5C 390.984,580.199 391.984,578.199 393.5,576.5 Z"/></g>
<g><path style="opacity:1" fill="#294a6a" d="M 389.5,609.5 C 426.103,614.492 462.77,619.159 499.5,623.5C 509.182,622.572 518.848,621.572 528.5,620.5C 525.975,666.878 522.808,713.211 519,759.5C 515.99,761.673 512.657,763.006 509,763.5C 485.288,757.864 461.788,751.531 438.5,744.5C 421.963,699.553 405.629,654.553 389.5,609.5 Z"/></g>
<g><path style="opacity:1" fill="#000948" d="M 609.5,610.5 C 611.604,610.201 613.604,610.534 615.5,611.5C 597.724,653.385 580.224,695.385 563,737.5C 550.702,743.827 538.369,750.16 526,756.5C 528.737,710.851 531.57,665.184 534.5,619.5C 559.682,616.851 584.682,613.851 609.5,610.5 Z"/></g>
</svg>
